<?xml version="1.0" encoding="UTF-8" standalone="no"?>
<!-- Created with Inkscape (http://www.inkscape.org/) -->

<svg
   xmlns:dc="http://purl.org/dc/elements/1.1/"
   xmlns:cc="http://creativecommons.org/ns#"
   xmlns:rdf="http://www.w3.org/1999/02/22-rdf-syntax-ns#"
   xmlns:svg="http://www.w3.org/2000/svg"
   xmlns="http://www.w3.org/2000/svg"
   xmlns:sodipodi="http://sodipodi.sourceforge.net/DTD/sodipodi-0.dtd"
   xmlns:inkscape="http://www.inkscape.org/namespaces/inkscape"
   width="744.09448819"
   height="1052.3622047"
   id="svg2"
   version="1.1"
   inkscape:version="0.48.3.1 r9886"
   sodipodi:docname="1d.svg">
  <sodipodi:namedview
     id="base"
     pagecolor="#ffffff"
     bordercolor="#666666"
     borderopacity="1.0"
     inkscape:pageopacity="0.0"
     inkscape:pageshadow="2"
     inkscape:zoom="0.7"
     inkscape:cx="440.76201"
     inkscape:cy="919.20191"
     inkscape:document-units="px"
     inkscape:current-layer="layer1"
     showgrid="false"
     inkscape:window-width="773"
     inkscape:window-height="730"
     inkscape:window-x="0"
     inkscape:window-y="0"
     inkscape:window-maximized="0" />
  <defs
     id="defs4" />
  <metadata
     id="metadata7">
    <rdf:RDF>
      <cc:Work
         rdf:about="">
        <dc:format>image/svg+xml</dc:format>
        <dc:type
           rdf:resource="http://purl.org/dc/dcmitype/StillImage" />
        <dc:title></dc:title>
      </cc:Work>
    </rdf:RDF>
  </metadata>
  <g
     inkscape:label="Layer 1"
     inkscape:groupmode="layer"
     id="layer1">
    <path
       style="color:#000000;fill:none;stroke:#000000;stroke-width:2.0999999;stroke-linecap:butt;stroke-linejoin:miter;stroke-miterlimit:4;stroke-opacity:1;stroke-dasharray:none;stroke-dashoffset:0;marker:none;visibility:visible;display:inline;overflow:visible;enable-background:accumulate"
       d="m 60.609153,106.8594 525.279327,0"
       id="path2985"
       inkscape:connector-curvature="0" />
    <path
       sodipodi:type="arc"
       style="fill:none;stroke:#000000;stroke-width:2.0999999;stroke-miterlimit:4;stroke-opacity:1;stroke-dasharray:none;stroke-dashoffset:0"
       id="path2987"
       sodipodi:cx="110"
       sodipodi:cy="105.93361"
       sodipodi:rx="20"
       sodipodi:ry="19.285715"
       d="m 130,105.93361 a 20,19.285715 0 1 1 -40,0 20,19.285715 0 1 1 40,0 z"
       transform="translate(11.05,0)" />
    <path
       transform="translate(211.05,0.71428742)"
       sodipodi:type="arc"
       style="fill:none;stroke:#000000;stroke-width:2.0999999;stroke-miterlimit:4;stroke-opacity:1;stroke-dasharray:none;stroke-dashoffset:0"
       id="path2987-8"
       sodipodi:cx="110"
       sodipodi:cy="105.93361"
       sodipodi:rx="20"
       sodipodi:ry="19.285715"
       d="m 130,105.93361 a 20,19.285715 0 1 1 -40,0 20,19.285715 0 1 1 40,0 z" />
    <path
       transform="translate(411.05,-0.71428397)"
       sodipodi:type="arc"
       style="fill:none;stroke:#000000;stroke-width:2.0999999;stroke-miterlimit:4;stroke-opacity:1;stroke-dasharray:none;stroke-dashoffset:0"
       id="path2987-2"
       sodipodi:cx="110"
       sodipodi:cy="105.93361"
       sodipodi:rx="20"
       sodipodi:ry="19.285715"
       d="m 130,105.93361 a 20,19.285715 0 1 1 -40,0 20,19.285715 0 1 1 40,0 z" />
    <g
       transform="translate(112.85714,-261.42857)"
       id="g3042">
      <g
         style="font-style:normal;font-variant:normal;font-weight:normal;font-stretch:normal;letter-spacing:normal;word-spacing:normal;text-anchor:start;fill:none;stroke:#000000;stroke-linecap:butt;stroke-linejoin:miter;stroke-miterlimit:10.43299961;stroke-opacity:1;stroke-dasharray:none;stroke-dashoffset:0"
         id="content"
         transform="matrix(1.0629921,0,0,-1.0629921,-186.02362,789.27165)"
         xml:space="preserve"
         stroke-miterlimit="10.433"
         font-style="normal"
         font-variant="normal"
         font-weight="normal"
         font-stretch="normal"
         font-size-adjust="none"
         letter-spacing="normal"
         word-spacing="normal"><path
           style="fill:#000000;stroke-width:0"
           inkscape:connector-curvature="0"
           d="m 469.82,440.23 0,0 0,0.01 0,0 0,0.01 -0.01,0.02 0,0.01 0,0.02 0,0.02 0,0.02 -0.01,0.02 0,0.02 -0.01,0.02 -0.01,0.02 -0.01,0.03 -0.01,0.02 -0.01,0.03 -0.01,0.02 -0.02,0.03 -0.02,0.02 -0.02,0.02 -0.02,0.03 -0.01,0.01 -0.01,0.01 -0.02,0.01 -0.01,0.01 -0.02,0.01 -0.01,0.01 -0.02,0.01 -0.01,0.01 -0.02,0.01 -0.02,0.01 -0.02,0 -0.02,0.01 -0.02,0.01 -0.02,0 -0.02,0.01 -0.02,0.01 -0.03,0 -0.02,0 -0.03,0.01 -0.02,0 -0.03,0 -0.03,0.01 -0.02,0 -0.03,0 c -1.16,0 -4.79,-0.41 -6.08,-0.5 -0.41,-0.05 -0.96,-0.1 -0.96,-1 0,-0.6 0.46,-0.6 1.21,-0.6 2.39,0 2.48,-0.34 2.48,-0.84 l -0.15,-1 -7.22,-28.7 c -0.21,-0.69 -0.21,-0.8 -0.21,-1.1 0,-1.14 1,-1.39 1.46,-1.39 0.79,0 1.59,0.6 1.84,1.3 l 0.94,3.78 1.11,4.48 c 0.29,1.1 0.59,2.19 0.84,3.35 0.1,0.3 0.5,1.94 0.55,2.23 0.14,0.46 1.69,3.25 3.39,4.6 1.09,0.79 2.64,1.73 4.78,1.73 2.14,0 2.69,-1.69 2.69,-3.48 0,-2.69 -1.89,-8.13 -3.1,-11.16 -0.39,-1.16 -0.64,-1.75 -0.64,-2.75 0,-2.33 1.74,-4.08 4.08,-4.08 4.69,0 6.53,7.27 6.53,7.67 0,0.5 -0.45,0.5 -0.59,0.5 -0.5,0 -0.5,-0.15 -0.75,-0.9 -0.75,-2.64 -2.34,-6.17 -5.08,-6.17 -0.86,0 -1.2,0.5 -1.2,1.64 0,1.25 0.45,2.45 0.9,3.54 0.8,2.14 3.04,8.07 3.04,10.96 0,3.23 -2,5.32 -5.74,5.32 -3.14,0 -5.53,-1.53 -7.37,-3.82 z"
           id="path3045" /></g>    </g>
    <g
       transform="translate(-98.571429,-262.85714)"
       id="g3069">
      <g
         style="font-style:normal;font-variant:normal;font-weight:normal;font-stretch:normal;letter-spacing:normal;word-spacing:normal;text-anchor:start;fill:none;stroke:#000000;stroke-linecap:butt;stroke-linejoin:miter;stroke-miterlimit:10.43299961;stroke-opacity:1;stroke-dasharray:none;stroke-dashoffset:0"
         word-spacing="normal"
         letter-spacing="normal"
         font-size-adjust="none"
         font-stretch="normal"
         font-weight="normal"
         font-variant="normal"
         font-style="normal"
         stroke-miterlimit="10.433"
         xml:space="preserve"
         transform="matrix(1.0629921,0,0,-1.0629921,-186.02362,789.27165)"
         id="g3071"><path
           style="fill:#000000;stroke-width:0"
           inkscape:connector-curvature="0"
           id="path3073"
           d="m 469.82,440.23 0,0 0,0.01 0,0 0,0.01 -0.01,0.02 0,0.01 0,0.02 0,0.02 0,0.02 -0.01,0.02 0,0.02 -0.01,0.02 -0.01,0.02 -0.01,0.03 -0.01,0.02 -0.01,0.03 -0.01,0.02 -0.02,0.03 -0.02,0.02 -0.02,0.02 -0.02,0.03 -0.01,0.01 -0.01,0.01 -0.02,0.01 -0.01,0.01 -0.02,0.01 -0.01,0.01 -0.02,0.01 -0.01,0.01 -0.02,0.01 -0.02,0.01 -0.02,0 -0.02,0.01 -0.02,0.01 -0.02,0 -0.02,0.01 -0.02,0.01 -0.03,0 -0.02,0 -0.03,0.01 -0.02,0 -0.03,0 -0.03,0.01 -0.02,0 -0.03,0 c -1.16,0 -4.79,-0.41 -6.08,-0.5 -0.41,-0.05 -0.96,-0.1 -0.96,-1 0,-0.6 0.46,-0.6 1.21,-0.6 2.39,0 2.48,-0.34 2.48,-0.84 l -0.15,-1 -7.22,-28.7 c -0.21,-0.69 -0.21,-0.8 -0.21,-1.1 0,-1.14 1,-1.39 1.46,-1.39 0.79,0 1.59,0.6 1.84,1.3 l 0.94,3.78 1.11,4.48 c 0.29,1.1 0.59,2.19 0.84,3.35 0.1,0.3 0.5,1.94 0.55,2.23 0.14,0.46 1.69,3.25 3.39,4.6 1.09,0.79 2.64,1.73 4.78,1.73 2.14,0 2.69,-1.69 2.69,-3.48 0,-2.69 -1.89,-8.13 -3.1,-11.16 -0.39,-1.16 -0.64,-1.75 -0.64,-2.75 0,-2.33 1.74,-4.08 4.08,-4.08 4.69,0 6.53,7.27 6.53,7.67 0,0.5 -0.45,0.5 -0.59,0.5 -0.5,0 -0.5,-0.15 -0.75,-0.9 -0.75,-2.64 -2.34,-6.17 -5.08,-6.17 -0.86,0 -1.2,0.5 -1.2,1.64 0,1.25 0.45,2.45 0.9,3.54 0.8,2.14 3.04,8.07 3.04,10.96 0,3.23 -2,5.32 -5.74,5.32 -3.14,0 -5.53,-1.53 -7.37,-3.82 z" /></g>    </g>
    <path
       sodipodi:nodetypes="ccc"
       inkscape:connector-curvature="0"
       id="path3290"
       d="M 320,-168.94889 320,-2.1296181 320,396.6479"
       style="color:#000000;fill:none;stroke:#000000;stroke-width:2.21460748;stroke-linecap:butt;stroke-linejoin:miter;stroke-miterlimit:4;stroke-opacity:1;stroke-dasharray:none;stroke-dashoffset:0;marker:none;visibility:visible;display:inline;overflow:visible;enable-background:accumulate" />
    <path
       transform="translate(211.42857,200.71386)"
       sodipodi:type="arc"
       style="fill:none;stroke:#000000;stroke-width:2.0999999;stroke-miterlimit:4;stroke-opacity:1;stroke-dasharray:none;stroke-dashoffset:0"
       id="path2987-8-1"
       sodipodi:cx="110"
       sodipodi:cy="105.93361"
       sodipodi:rx="20"
       sodipodi:ry="19.285715"
       d="m 130,105.93361 a 20,19.285715 0 1 1 -40,0 20,19.285715 0 1 1 40,0 z" />
    <path
       transform="translate(211.42857,-198.90714)"
       sodipodi:type="arc"
       style="fill:none;stroke:#000000;stroke-width:2.0999999;stroke-miterlimit:4;stroke-opacity:1;stroke-dasharray:none;stroke-dashoffset:0"
       id="path2987-8-4"
       sodipodi:cx="110"
       sodipodi:cy="105.93361"
       sodipodi:rx="20"
       sodipodi:ry="19.285715"
       d="m 130,105.93361 a 20,19.285715 0 1 1 -40,0 20,19.285715 0 1 1 40,0 z" />
    <g
       id="g3335"
       transform="translate(37.142857,-210)">
      <g
         word-spacing="normal"
         letter-spacing="normal"
         font-size-adjust="none"
         font-stretch="normal"
         font-weight="normal"
         font-variant="normal"
         font-style="normal"
         stroke-miterlimit="10.433"
         xml:space="preserve"
         transform="matrix(1.0629921,0,0,-1.0629921,-186.02362,789.27165)"
         id="g3337"
         style="font-style:normal;font-variant:normal;font-weight:normal;font-stretch:normal;letter-spacing:normal;word-spacing:normal;text-anchor:start;fill:none;stroke:#000000;stroke-linecap:butt;stroke-linejoin:miter;stroke-miterlimit:10.43299961;stroke-opacity:1;stroke-dasharray:none;stroke-dashoffset:0"><path
           id="path3339"
           d="m 472.96,409 0.05,-0.19 0.06,-0.19 0.07,-0.18 0.08,-0.18 0.08,-0.17 0.09,-0.16 0.09,-0.16 0.1,-0.16 0.11,-0.15 0.11,-0.15 0.11,-0.14 0.13,-0.13 0.12,-0.13 0.14,-0.12 0.14,-0.12 0.14,-0.11 0.15,-0.11 0.15,-0.1 0.15,-0.09 0.16,-0.09 0.17,-0.08 0.17,-0.07 0.17,-0.07 0.18,-0.06 0.17,-0.06 0.19,-0.04 0.18,-0.05 0.19,-0.03 0.19,-0.02 0.2,-0.02 0.2,-0.01 0.19,-0.01 c 1.74,0 2.9,1.14 3.69,2.74 0.85,1.79 1.49,4.84 1.49,4.93 0,0.5 -0.44,0.5 -0.6,0.5 -0.5,0 -0.54,-0.2 -0.7,-0.9 -0.69,-2.78 -1.64,-6.17 -3.73,-6.17 -1.05,0 -1.54,0.65 -1.54,2.29 0,1.1 0.6,3.44 0.99,5.17 l 1.4,5.4 c 0.15,0.75 0.65,2.64 0.85,3.39 0.25,1.14 0.75,3.03 0.75,3.32 0,0.91 -0.7,1.35 -1.45,1.35 -0.25,0 -1.55,-0.05 -1.94,-1.74 -0.96,-3.64 -3.14,-12.36 -3.74,-15 -0.06,-0.2 -2.04,-4.18 -5.68,-4.18 -2.6,0 -3.1,2.25 -3.1,4.09 0,2.78 1.41,6.72 2.71,10.16 0.59,1.5 0.84,2.18 0.84,3.14 0,2.23 -1.59,4.07 -4.09,4.07 -4.74,0 -6.58,-7.21 -6.58,-7.67 0,-0.5 0.5,-0.5 0.61,-0.5 0.5,0 0.54,0.11 0.79,0.91 1.24,4.33 3.14,6.17 5.03,6.17 0.44,0 1.25,-0.05 1.25,-1.64 0,-1.2 -0.56,-2.64 -0.85,-3.39 -1.85,-4.94 -2.9,-8.02 -2.9,-10.45 0,-4.74 3.44,-5.99 6.15,-5.99 3.28,0 5.07,2.24 5.92,3.35 z"
           inkscape:connector-curvature="0"
           style="fill:#000000;stroke-width:0" /><path
           id="path3341"
           d="m 495.38,420.54 -0.01,0.05 0,0.06 -0.01,0.05 -0.01,0.06 -0.01,0.05 -0.01,0.06 -0.02,0.05 -0.02,0.06 -0.02,0.06 -0.02,0.05 -0.03,0.06 -0.03,0.05 -0.03,0.06 -0.04,0.05 -0.04,0.05 -0.04,0.05 -0.04,0.05 -0.05,0.05 -0.05,0.04 -0.05,0.05 -0.06,0.04 -0.06,0.03 -0.06,0.04 -0.07,0.03 -0.06,0.03 -0.08,0.03 -0.07,0.02 -0.08,0.02 -0.08,0.01 -0.08,0.01 -0.09,0.01 -0.09,0 c -0.94,0 -1.95,-0.91 -1.95,-1.92 0,-0.59 0.45,-1.33 1.4,-1.33 1,0 1.96,0.99 1.96,1.92 z"
           inkscape:connector-curvature="0"
           style="fill:#000000;stroke-width:0" /><path
           id="path3343"
           d="m 488.27,402.84 -0.06,-0.17 -0.05,-0.17 -0.03,-0.08 -0.02,-0.09 -0.03,-0.08 -0.02,-0.09 -0.03,-0.09 -0.02,-0.09 -0.01,-0.1 -0.02,-0.09 -0.01,-0.1 -0.01,-0.05 0,-0.05 0,-0.06 -0.01,-0.05 0,-0.05 0,-0.06 c 0,-1.64 1.39,-2.95 3.3,-2.95 3.48,0 5.03,4.79 5.03,5.33 0,0.45 -0.45,0.45 -0.56,0.45 -0.49,0 -0.53,-0.2 -0.67,-0.59 -0.8,-2.79 -2.33,-4.22 -3.69,-4.22 -0.7,0 -0.88,0.45 -0.88,1.22 0,0.79 0.25,1.46 0.57,2.23 0.34,0.94 0.73,1.87 1.11,2.78 0.31,0.84 1.57,4.02 1.72,4.44 0.09,0.34 0.2,0.76 0.2,1.11 0,1.64 -1.39,2.95 -3.31,2.95 -3.46,0 -5.05,-4.73 -5.05,-5.33 0,-0.45 0.48,-0.45 0.59,-0.45 0.49,0 0.52,0.17 0.63,0.56 0.9,3 2.44,4.25 3.72,4.25 0.56,0 0.87,-0.28 0.87,-1.22 0,-0.79 -0.2,-1.32 -1.08,-3.48 z"
           inkscape:connector-curvature="0"
           style="fill:#000000;stroke-width:0" /><path
           id="path3345"
           d="m 505.48,399.32 -0.01,-0.36 -0.01,-0.37 -0.03,-0.38 -0.05,-0.38 -0.02,-0.19 -0.04,-0.2 -0.04,-0.2 -0.04,-0.19 -0.05,-0.2 -0.06,-0.2 -0.06,-0.2 -0.07,-0.2 -0.07,-0.2 -0.09,-0.21 -0.09,-0.2 -0.1,-0.21 -0.1,-0.2 -0.12,-0.21 -0.12,-0.2 -0.13,-0.21 -0.14,-0.21 -0.16,-0.2 -0.16,-0.21 -0.17,-0.21 -0.18,-0.21 -0.19,-0.2 -0.21,-0.21 -0.21,-0.21 c -0.14,-0.14 -0.25,-0.25 -0.25,-0.42 0,-0.25 0.28,-0.49 0.48,-0.49 0.49,0 3.46,2.78 3.46,6.92 0,2.18 -0.85,3.8 -2.44,3.8 -1.16,0 -1.99,-0.9 -1.99,-1.98 0,-1.11 0.8,-2.02 2.02,-2.02 0.84,0 1.39,0.56 1.44,0.56 z"
           inkscape:connector-curvature="0"
           style="fill:#000000;stroke-width:0" /><path
           id="path3347"
           d="m 525.29,420.54 0,0.06 0,0.06 -0.01,0.05 -0.01,0.06 -0.01,0.06 -0.01,0.06 -0.02,0.05 -0.02,0.06 -0.03,0.06 -0.02,0.05 -0.03,0.06 -0.03,0.05 -0.03,0.06 -0.04,0.05 -0.04,0.05 -0.04,0.05 -0.05,0.05 -0.04,0.04 -0.05,0.05 -0.06,0.04 -0.05,0.04 -0.06,0.03 -0.06,0.04 -0.06,0.03 -0.07,0.02 -0.07,0.03 -0.07,0.02 -0.08,0.02 -0.08,0.01 -0.08,0.01 -0.08,0.01 -0.09,0 c -1.01,0 -1.95,-0.98 -1.95,-1.92 0,-0.56 0.42,-1.33 1.39,-1.33 0.94,0 1.95,0.91 1.95,1.92 z"
           inkscape:connector-curvature="0"
           style="fill:#000000;stroke-width:0" /><path
           id="path3349"
           d="m 517.9,397.06 -0.06,-0.23 -0.06,-0.22 -0.08,-0.22 -0.08,-0.21 -0.08,-0.21 -0.1,-0.21 -0.1,-0.21 -0.1,-0.2 -0.11,-0.19 -0.12,-0.19 -0.12,-0.19 -0.13,-0.18 -0.13,-0.17 -0.14,-0.17 -0.14,-0.16 -0.14,-0.15 -0.16,-0.15 -0.15,-0.14 -0.16,-0.13 -0.16,-0.13 -0.17,-0.11 -0.16,-0.11 -0.18,-0.1 -0.17,-0.09 -0.18,-0.08 -0.18,-0.07 -0.18,-0.06 -0.19,-0.05 -0.18,-0.04 -0.19,-0.03 -0.19,-0.02 -0.19,0 c -0.45,0 -0.88,0.06 -1.27,0.2 0.91,0.42 1.19,1.25 1.19,1.78 0,0.83 -0.66,1.28 -1.36,1.28 -1.08,0 -1.98,-0.94 -1.98,-2.04 0,-1.33 1.36,-2.21 3.45,-2.21 2.09,0 6.15,1.25 7.25,5.5 l 3.12,12.49 c 0.11,0.37 0.18,0.68 0.18,1.22 0,1.9 -1.63,3.26 -3.72,3.26 -3.88,0 -6.1,-4.84 -6.1,-5.33 0,-0.45 0.49,-0.45 0.6,-0.45 0.4,0 0.45,0.11 0.69,0.62 0.87,2.04 2.68,4.19 4.7,4.19 0.87,0 1.18,-0.59 1.18,-1.7 0,-0.39 -0.06,-0.88 -0.1,-1.05 z"
           inkscape:connector-curvature="0"
           style="fill:#000000;stroke-width:0" /></g>    </g>
    <g
       id="g3401"
       transform="translate(31.428567,-400)">
      <g
         id="g3403"
         transform="matrix(1.0629921,0,0,-1.0629921,-186.02362,789.27165)"
         xml:space="preserve"
         stroke-miterlimit="10.433"
         font-style="normal"
         font-variant="normal"
         font-weight="normal"
         font-stretch="normal"
         font-size-adjust="none"
         letter-spacing="normal"
         word-spacing="normal"
         style="font-style:normal;font-variant:normal;font-weight:normal;font-stretch:normal;letter-spacing:normal;word-spacing:normal;text-anchor:start;fill:none;stroke:#000000;stroke-linecap:butt;stroke-linejoin:miter;stroke-miterlimit:10.43299961;stroke-opacity:1;stroke-dasharray:none;stroke-dashoffset:0"><path
           d="m 472.96,409 0.05,-0.19 0.06,-0.19 0.07,-0.18 0.08,-0.18 0.08,-0.17 0.09,-0.16 0.09,-0.16 0.1,-0.16 0.11,-0.15 0.11,-0.15 0.11,-0.14 0.13,-0.13 0.12,-0.13 0.14,-0.12 0.14,-0.12 0.14,-0.11 0.15,-0.11 0.15,-0.1 0.15,-0.09 0.16,-0.09 0.17,-0.08 0.17,-0.07 0.17,-0.07 0.18,-0.06 0.17,-0.06 0.19,-0.04 0.18,-0.05 0.19,-0.03 0.19,-0.02 0.2,-0.02 0.2,-0.01 0.19,-0.01 c 1.74,0 2.9,1.14 3.69,2.74 0.85,1.79 1.49,4.84 1.49,4.93 0,0.5 -0.44,0.5 -0.6,0.5 -0.5,0 -0.54,-0.2 -0.7,-0.9 -0.69,-2.78 -1.64,-6.17 -3.73,-6.17 -1.05,0 -1.54,0.65 -1.54,2.29 0,1.1 0.6,3.44 0.99,5.17 l 1.4,5.4 c 0.15,0.75 0.65,2.64 0.85,3.39 0.25,1.14 0.75,3.03 0.75,3.32 0,0.91 -0.7,1.35 -1.45,1.35 -0.25,0 -1.55,-0.05 -1.94,-1.74 -0.96,-3.64 -3.14,-12.36 -3.74,-15 -0.06,-0.2 -2.04,-4.18 -5.68,-4.18 -2.6,0 -3.1,2.25 -3.1,4.09 0,2.78 1.41,6.72 2.71,10.16 0.59,1.5 0.84,2.18 0.84,3.14 0,2.23 -1.59,4.07 -4.09,4.07 -4.74,0 -6.58,-7.21 -6.58,-7.67 0,-0.5 0.5,-0.5 0.61,-0.5 0.5,0 0.54,0.11 0.79,0.91 1.24,4.33 3.14,6.17 5.03,6.17 0.44,0 1.25,-0.05 1.25,-1.64 0,-1.2 -0.56,-2.64 -0.85,-3.39 -1.85,-4.94 -2.9,-8.02 -2.9,-10.45 0,-4.74 3.44,-5.99 6.15,-5.99 3.28,0 5.07,2.24 5.92,3.35 z"
           id="path3405"
           inkscape:connector-curvature="0"
           style="fill:#000000;stroke-width:0" /><path
           d="m 495.38,420.54 -0.01,0.05 0,0.06 -0.01,0.05 -0.01,0.06 -0.01,0.05 -0.01,0.06 -0.02,0.05 -0.02,0.06 -0.02,0.06 -0.02,0.05 -0.03,0.06 -0.03,0.05 -0.03,0.06 -0.04,0.05 -0.04,0.05 -0.04,0.05 -0.04,0.05 -0.05,0.05 -0.05,0.04 -0.05,0.05 -0.06,0.04 -0.06,0.03 -0.06,0.04 -0.07,0.03 -0.06,0.03 -0.08,0.03 -0.07,0.02 -0.08,0.02 -0.08,0.01 -0.08,0.01 -0.09,0.01 -0.09,0 c -0.94,0 -1.95,-0.91 -1.95,-1.92 0,-0.59 0.45,-1.33 1.4,-1.33 1,0 1.96,0.99 1.96,1.92 z"
           id="path3407"
           inkscape:connector-curvature="0"
           style="fill:#000000;stroke-width:0" /><path
           d="m 488.27,402.84 -0.06,-0.17 -0.05,-0.17 -0.03,-0.08 -0.02,-0.09 -0.03,-0.08 -0.02,-0.09 -0.03,-0.09 -0.02,-0.09 -0.01,-0.1 -0.02,-0.09 -0.01,-0.1 -0.01,-0.05 0,-0.05 0,-0.06 -0.01,-0.05 0,-0.05 0,-0.06 c 0,-1.64 1.39,-2.95 3.3,-2.95 3.48,0 5.03,4.79 5.03,5.33 0,0.45 -0.45,0.45 -0.56,0.45 -0.49,0 -0.53,-0.2 -0.67,-0.59 -0.8,-2.79 -2.33,-4.22 -3.69,-4.22 -0.7,0 -0.88,0.45 -0.88,1.22 0,0.79 0.25,1.46 0.57,2.23 0.34,0.94 0.73,1.87 1.11,2.78 0.31,0.84 1.57,4.02 1.72,4.44 0.09,0.34 0.2,0.76 0.2,1.11 0,1.64 -1.39,2.95 -3.31,2.95 -3.46,0 -5.05,-4.73 -5.05,-5.33 0,-0.45 0.48,-0.45 0.59,-0.45 0.49,0 0.52,0.17 0.63,0.56 0.9,3 2.44,4.25 3.72,4.25 0.56,0 0.87,-0.28 0.87,-1.22 0,-0.79 -0.2,-1.32 -1.08,-3.48 z"
           id="path3409"
           inkscape:connector-curvature="0"
           style="fill:#000000;stroke-width:0" /><path
           d="m 505.48,399.32 -0.01,-0.36 -0.01,-0.37 -0.03,-0.38 -0.05,-0.38 -0.02,-0.19 -0.04,-0.2 -0.04,-0.2 -0.04,-0.19 -0.05,-0.2 -0.06,-0.2 -0.06,-0.2 -0.07,-0.2 -0.07,-0.2 -0.09,-0.21 -0.09,-0.2 -0.1,-0.21 -0.1,-0.2 -0.12,-0.21 -0.12,-0.2 -0.13,-0.21 -0.14,-0.21 -0.16,-0.2 -0.16,-0.21 -0.17,-0.21 -0.18,-0.21 -0.19,-0.2 -0.21,-0.21 -0.21,-0.21 c -0.14,-0.14 -0.25,-0.25 -0.25,-0.42 0,-0.25 0.28,-0.49 0.48,-0.49 0.49,0 3.46,2.78 3.46,6.92 0,2.18 -0.85,3.8 -2.44,3.8 -1.16,0 -1.99,-0.9 -1.99,-1.98 0,-1.11 0.8,-2.02 2.02,-2.02 0.84,0 1.39,0.56 1.44,0.56 z"
           id="path3411"
           inkscape:connector-curvature="0"
           style="fill:#000000;stroke-width:0" /><path
           d="m 525.29,420.54 0,0.06 0,0.06 -0.01,0.05 -0.01,0.06 -0.01,0.06 -0.01,0.06 -0.02,0.05 -0.02,0.06 -0.03,0.06 -0.02,0.05 -0.03,0.06 -0.03,0.05 -0.03,0.06 -0.04,0.05 -0.04,0.05 -0.04,0.05 -0.05,0.05 -0.04,0.04 -0.05,0.05 -0.06,0.04 -0.05,0.04 -0.06,0.03 -0.06,0.04 -0.06,0.03 -0.07,0.02 -0.07,0.03 -0.07,0.02 -0.08,0.02 -0.08,0.01 -0.08,0.01 -0.08,0.01 -0.09,0 c -1.01,0 -1.95,-0.98 -1.95,-1.92 0,-0.56 0.42,-1.33 1.39,-1.33 0.94,0 1.95,0.91 1.95,1.92 z"
           id="path3413"
           inkscape:connector-curvature="0"
           style="fill:#000000;stroke-width:0" /><path
           d="m 517.9,397.06 -0.06,-0.23 -0.06,-0.22 -0.08,-0.22 -0.08,-0.21 -0.08,-0.21 -0.1,-0.21 -0.1,-0.21 -0.1,-0.2 -0.11,-0.19 -0.12,-0.19 -0.12,-0.19 -0.13,-0.18 -0.13,-0.17 -0.14,-0.17 -0.14,-0.16 -0.14,-0.15 -0.16,-0.15 -0.15,-0.14 -0.16,-0.13 -0.16,-0.13 -0.17,-0.11 -0.16,-0.11 -0.18,-0.1 -0.17,-0.09 -0.18,-0.08 -0.18,-0.07 -0.18,-0.06 -0.19,-0.05 -0.18,-0.04 -0.19,-0.03 -0.19,-0.02 -0.19,0 c -0.45,0 -0.88,0.06 -1.27,0.2 0.91,0.42 1.19,1.25 1.19,1.78 0,0.83 -0.66,1.28 -1.36,1.28 -1.08,0 -1.98,-0.94 -1.98,-2.04 0,-1.33 1.36,-2.21 3.45,-2.21 2.09,0 6.15,1.25 7.25,5.5 l 3.12,12.49 c 0.11,0.37 0.18,0.68 0.18,1.22 0,1.9 -1.63,3.26 -3.72,3.26 -3.88,0 -6.1,-4.84 -6.1,-5.33 0,-0.45 0.49,-0.45 0.6,-0.45 0.4,0 0.45,0.11 0.69,0.62 0.87,2.04 2.68,4.19 4.7,4.19 0.87,0 1.18,-0.59 1.18,-1.7 0,-0.39 -0.06,-0.88 -0.1,-1.05 z"
           id="path3415"
           inkscape:connector-curvature="0"
           style="fill:#000000;stroke-width:0" /><path
           d="m 544.62,406.64 h 10.65 c 0.46,0 1.28,0 1.28,0.84 0,0.86 -0.79,0.86 -1.28,0.86 h -10.65 v 10.7 c 0,0.46 0,1.28 -0.85,1.28 -0.87,0 -0.87,-0.79 -0.87,-1.28 v -10.7 h -10.69 c -0.45,0 -1.3,0 -1.3,-0.83 0,-0.87 0.8,-0.87 1.3,-0.87 h 10.69 v -10.71 c 0,-0.45 0,-1.28 0.84,-1.28 0.88,0 0.88,0.8 0.88,1.28 z"
           id="path3417"
           inkscape:connector-curvature="0"
           style="fill:#000000;stroke-width:0" /><path
           d="m 570.75,420.92 0,0.04 0,0.04 0,0.05 0,0.04 -0.01,0.03 0,0.04 0,0.04 0,0.03 0,0.04 0,0.03 0,0.03 -0.01,0.03 0,0.03 0,0.03 -0.01,0.03 0,0.02 0,0.03 -0.01,0.02 0,0.03 -0.01,0.02 -0.01,0.04 -0.02,0.04 -0.01,0.03 -0.02,0.03 -0.02,0.03 -0.03,0.03 -0.03,0.02 -0.03,0.02 -0.03,0.02 -0.04,0.01 -0.04,0.01 -0.04,0.02 -0.03,0 -0.02,0 -0.03,0.01 -0.02,0 -0.03,0.01 -0.03,0 -0.03,0 -0.03,0 -0.03,0 -0.03,0.01 -0.04,0 -0.03,0 -0.04,0 -0.04,0 -0.04,0 -0.04,0 -0.04,0 -0.04,0 -0.05,0 -0.04,0 c -2.23,-2.2 -5.39,-2.23 -6.83,-2.23 v -1.25 c 0.85,0 3.14,0 5.05,0.97 v -17.77 c 0,-1.16 0,-1.61 -3.49,-1.61 h -1.31 v -1.25 c 0.63,0.03 4.91,0.14 6.2,0.14 1.08,0 5.47,-0.11 6.24,-0.14 v 1.25 h -1.33 c -3.48,0 -3.48,0.45 -3.48,1.61 z"
           id="path3419"
           inkscape:connector-curvature="0"
           style="fill:#000000;stroke-width:0" /></g>    </g>
    <g
       id="g3491"
       transform="translate(28.571428,-5.7142864)">
      <g
         word-spacing="normal"
         letter-spacing="normal"
         font-size-adjust="none"
         font-stretch="normal"
         font-weight="normal"
         font-variant="normal"
         font-style="normal"
         stroke-miterlimit="10.433"
         xml:space="preserve"
         transform="matrix(1.0629921,0,0,-1.0629921,-186.02362,789.27165)"
         id="g3493"
         style="font-style:normal;font-variant:normal;font-weight:normal;font-stretch:normal;letter-spacing:normal;word-spacing:normal;text-anchor:start;fill:none;stroke:#000000;stroke-linecap:butt;stroke-linejoin:miter;stroke-miterlimit:10.43299961;stroke-opacity:1;stroke-dasharray:none;stroke-dashoffset:0"><path
           id="path3495"
           d="m 472.96,409 0.05,-0.19 0.06,-0.19 0.07,-0.18 0.08,-0.18 0.08,-0.17 0.09,-0.16 0.09,-0.16 0.1,-0.16 0.11,-0.15 0.11,-0.15 0.11,-0.14 0.13,-0.13 0.12,-0.13 0.14,-0.12 0.14,-0.12 0.14,-0.11 0.15,-0.11 0.15,-0.1 0.15,-0.09 0.16,-0.09 0.17,-0.08 0.17,-0.07 0.17,-0.07 0.18,-0.06 0.17,-0.06 0.19,-0.04 0.18,-0.05 0.19,-0.03 0.19,-0.02 0.2,-0.02 0.2,-0.01 0.19,-0.01 c 1.74,0 2.9,1.14 3.69,2.74 0.85,1.79 1.49,4.84 1.49,4.93 0,0.5 -0.44,0.5 -0.6,0.5 -0.5,0 -0.54,-0.2 -0.7,-0.9 -0.69,-2.78 -1.64,-6.17 -3.73,-6.17 -1.05,0 -1.54,0.65 -1.54,2.29 0,1.1 0.6,3.44 0.99,5.17 l 1.4,5.4 c 0.15,0.75 0.65,2.64 0.85,3.39 0.25,1.14 0.75,3.03 0.75,3.32 0,0.91 -0.7,1.35 -1.45,1.35 -0.25,0 -1.55,-0.05 -1.94,-1.74 -0.96,-3.64 -3.14,-12.36 -3.74,-15 -0.06,-0.2 -2.04,-4.18 -5.68,-4.18 -2.6,0 -3.1,2.25 -3.1,4.09 0,2.78 1.41,6.72 2.71,10.16 0.59,1.5 0.84,2.18 0.84,3.14 0,2.23 -1.59,4.07 -4.09,4.07 -4.74,0 -6.58,-7.21 -6.58,-7.67 0,-0.5 0.5,-0.5 0.61,-0.5 0.5,0 0.54,0.11 0.79,0.91 1.24,4.33 3.14,6.17 5.03,6.17 0.44,0 1.25,-0.05 1.25,-1.64 0,-1.2 -0.56,-2.64 -0.85,-3.39 -1.85,-4.94 -2.9,-8.02 -2.9,-10.45 0,-4.74 3.44,-5.99 6.15,-5.99 3.28,0 5.07,2.24 5.92,3.35 z"
           inkscape:connector-curvature="0"
           style="fill:#000000;stroke-width:0" /><path
           id="path3497"
           d="m 495.38,420.54 -0.01,0.05 0,0.06 -0.01,0.05 -0.01,0.06 -0.01,0.05 -0.01,0.06 -0.02,0.05 -0.02,0.06 -0.02,0.06 -0.02,0.05 -0.03,0.06 -0.03,0.05 -0.03,0.06 -0.04,0.05 -0.04,0.05 -0.04,0.05 -0.04,0.05 -0.05,0.05 -0.05,0.04 -0.05,0.05 -0.06,0.04 -0.06,0.03 -0.06,0.04 -0.07,0.03 -0.06,0.03 -0.08,0.03 -0.07,0.02 -0.08,0.02 -0.08,0.01 -0.08,0.01 -0.09,0.01 -0.09,0 c -0.94,0 -1.95,-0.91 -1.95,-1.92 0,-0.59 0.45,-1.33 1.4,-1.33 1,0 1.96,0.99 1.96,1.92 z"
           inkscape:connector-curvature="0"
           style="fill:#000000;stroke-width:0" /><path
           id="path3499"
           d="m 488.27,402.84 -0.06,-0.17 -0.05,-0.17 -0.03,-0.08 -0.02,-0.09 -0.03,-0.08 -0.02,-0.09 -0.03,-0.09 -0.02,-0.09 -0.01,-0.1 -0.02,-0.09 -0.01,-0.1 -0.01,-0.05 0,-0.05 0,-0.06 -0.01,-0.05 0,-0.05 0,-0.06 c 0,-1.64 1.39,-2.95 3.3,-2.95 3.48,0 5.03,4.79 5.03,5.33 0,0.45 -0.45,0.45 -0.56,0.45 -0.49,0 -0.53,-0.2 -0.67,-0.59 -0.8,-2.79 -2.33,-4.22 -3.69,-4.22 -0.7,0 -0.88,0.45 -0.88,1.22 0,0.79 0.25,1.46 0.57,2.23 0.34,0.94 0.73,1.87 1.11,2.78 0.31,0.84 1.57,4.02 1.72,4.44 0.09,0.34 0.2,0.76 0.2,1.11 0,1.64 -1.39,2.95 -3.31,2.95 -3.46,0 -5.05,-4.73 -5.05,-5.33 0,-0.45 0.48,-0.45 0.59,-0.45 0.49,0 0.52,0.17 0.63,0.56 0.9,3 2.44,4.25 3.72,4.25 0.56,0 0.87,-0.28 0.87,-1.22 0,-0.79 -0.2,-1.32 -1.08,-3.48 z"
           inkscape:connector-curvature="0"
           style="fill:#000000;stroke-width:0" /><path
           id="path3501"
           d="m 505.48,399.32 -0.01,-0.36 -0.01,-0.37 -0.03,-0.38 -0.05,-0.38 -0.02,-0.19 -0.04,-0.2 -0.04,-0.2 -0.04,-0.19 -0.05,-0.2 -0.06,-0.2 -0.06,-0.2 -0.07,-0.2 -0.07,-0.2 -0.09,-0.21 -0.09,-0.2 -0.1,-0.21 -0.1,-0.2 -0.12,-0.21 -0.12,-0.2 -0.13,-0.21 -0.14,-0.21 -0.16,-0.2 -0.16,-0.21 -0.17,-0.21 -0.18,-0.21 -0.19,-0.2 -0.21,-0.21 -0.21,-0.21 c -0.14,-0.14 -0.25,-0.25 -0.25,-0.42 0,-0.25 0.28,-0.49 0.48,-0.49 0.49,0 3.46,2.78 3.46,6.92 0,2.18 -0.85,3.8 -2.44,3.8 -1.16,0 -1.99,-0.9 -1.99,-1.98 0,-1.11 0.8,-2.02 2.02,-2.02 0.84,0 1.39,0.56 1.44,0.56 z"
           inkscape:connector-curvature="0"
           style="fill:#000000;stroke-width:0" /><path
           id="path3503"
           d="m 525.29,420.54 0,0.06 0,0.06 -0.01,0.05 -0.01,0.06 -0.01,0.06 -0.01,0.06 -0.02,0.05 -0.02,0.06 -0.03,0.06 -0.02,0.05 -0.03,0.06 -0.03,0.05 -0.03,0.06 -0.04,0.05 -0.04,0.05 -0.04,0.05 -0.05,0.05 -0.04,0.04 -0.05,0.05 -0.06,0.04 -0.05,0.04 -0.06,0.03 -0.06,0.04 -0.06,0.03 -0.07,0.02 -0.07,0.03 -0.07,0.02 -0.08,0.02 -0.08,0.01 -0.08,0.01 -0.08,0.01 -0.09,0 c -1.01,0 -1.95,-0.98 -1.95,-1.92 0,-0.56 0.42,-1.33 1.39,-1.33 0.94,0 1.95,0.91 1.95,1.92 z"
           inkscape:connector-curvature="0"
           style="fill:#000000;stroke-width:0" /><path
           id="path3505"
           d="m 517.9,397.06 -0.06,-0.23 -0.06,-0.22 -0.08,-0.22 -0.08,-0.21 -0.08,-0.21 -0.1,-0.21 -0.1,-0.21 -0.1,-0.2 -0.11,-0.19 -0.12,-0.19 -0.12,-0.19 -0.13,-0.18 -0.13,-0.17 -0.14,-0.17 -0.14,-0.16 -0.14,-0.15 -0.16,-0.15 -0.15,-0.14 -0.16,-0.13 -0.16,-0.13 -0.17,-0.11 -0.16,-0.11 -0.18,-0.1 -0.17,-0.09 -0.18,-0.08 -0.18,-0.07 -0.18,-0.06 -0.19,-0.05 -0.18,-0.04 -0.19,-0.03 -0.19,-0.02 -0.19,0 c -0.45,0 -0.88,0.06 -1.27,0.2 0.91,0.42 1.19,1.25 1.19,1.78 0,0.83 -0.66,1.28 -1.36,1.28 -1.08,0 -1.98,-0.94 -1.98,-2.04 0,-1.33 1.36,-2.21 3.45,-2.21 2.09,0 6.15,1.25 7.25,5.5 l 3.12,12.49 c 0.11,0.37 0.18,0.68 0.18,1.22 0,1.9 -1.63,3.26 -3.72,3.26 -3.88,0 -6.1,-4.84 -6.1,-5.33 0,-0.45 0.49,-0.45 0.6,-0.45 0.4,0 0.45,0.11 0.69,0.62 0.87,2.04 2.68,4.19 4.7,4.19 0.87,0 1.18,-0.59 1.18,-1.7 0,-0.39 -0.06,-0.88 -0.1,-1.05 z"
           inkscape:connector-curvature="0"
           style="fill:#000000;stroke-width:0" /><path
           id="path3507"
           d="m 554.4,406.64 0.05,0 0.06,0 0.11,0 0.12,0 0.05,0.01 0.06,0 0.06,0.01 0.06,0 0.06,0.01 0.06,0.01 0.05,0.01 0.06,0.02 0.05,0.01 0.05,0.02 0.06,0.02 0.05,0.03 0.04,0.02 0.05,0.03 0.04,0.04 0.04,0.03 0.04,0.04 0.01,0.02 0.02,0.02 0.02,0.03 0.01,0.02 0.02,0.02 0.01,0.03 0.01,0.03 0.01,0.02 0.01,0.03 0.01,0.03 0.01,0.03 0.01,0.03 0,0.04 0.01,0.03 0,0.04 0.01,0.03 0,0.04 0,0.04 c 0,0.86 -0.8,0.86 -1.39,0.86 h -20.77 c -0.56,0 -1.39,0 -1.39,-0.83 0,-0.87 0.8,-0.87 1.39,-0.87 z"
           inkscape:connector-curvature="0"
           style="fill:#000000;stroke-width:0" /><path
           id="path3509"
           d="m 571.23,420.92 0,0.04 0,0.04 0,0.05 0,0.04 0,0.03 -0.01,0.04 0,0.04 0,0.03 0,0.04 0,0.03 0,0.03 -0.01,0.03 0,0.03 0,0.03 0,0.03 -0.01,0.02 0,0.03 -0.01,0.02 0,0.03 -0.01,0.02 -0.01,0.04 -0.01,0.04 -0.02,0.03 -0.02,0.03 -0.02,0.03 -0.03,0.03 -0.02,0.02 -0.04,0.02 -0.03,0.02 -0.04,0.01 -0.04,0.01 -0.04,0.02 -0.02,0 -0.03,0 -0.02,0.01 -0.03,0 -0.03,0.01 -0.03,0 -0.03,0 -0.03,0 -0.03,0 -0.03,0.01 -0.04,0 -0.03,0 -0.04,0 -0.04,0 -0.04,0 -0.04,0 -0.04,0 -0.04,0 -0.04,0 -0.05,0 c -2.23,-2.2 -5.39,-2.23 -6.83,-2.23 v -1.25 c 0.85,0 3.14,0 5.05,0.97 v -17.77 c 0,-1.16 0,-1.61 -3.49,-1.61 h -1.31 v -1.25 c 0.63,0.03 4.91,0.14 6.2,0.14 1.08,0 5.47,-0.11 6.24,-0.14 v 1.25 h -1.33 c -3.48,0 -3.48,0.45 -3.48,1.61 z"
           inkscape:connector-curvature="0"
           style="fill:#000000;stroke-width:0" /></g>    </g>
    <g
       id="g3601"
       transform="translate(-231.42857,-207.14286)">
      <g
         id="g3603"
         transform="matrix(1.0629921,0,0,-1.0629921,-186.02362,789.27165)"
         xml:space="preserve"
         stroke-miterlimit="10.433"
         font-style="normal"
         font-variant="normal"
         font-weight="normal"
         font-stretch="normal"
         font-size-adjust="none"
         letter-spacing="normal"
         word-spacing="normal"
         style="font-style:normal;font-variant:normal;font-weight:normal;font-stretch:normal;letter-spacing:normal;word-spacing:normal;text-anchor:start;fill:none;stroke:#000000;stroke-linecap:butt;stroke-linejoin:miter;stroke-miterlimit:10.43299961;stroke-opacity:1;stroke-dasharray:none;stroke-dashoffset:0"><path
           d="m 472.96,409 0.05,-0.19 0.06,-0.19 0.07,-0.18 0.08,-0.18 0.08,-0.17 0.09,-0.16 0.09,-0.16 0.1,-0.16 0.11,-0.15 0.11,-0.15 0.11,-0.14 0.13,-0.13 0.12,-0.13 0.14,-0.12 0.14,-0.12 0.14,-0.11 0.15,-0.11 0.15,-0.1 0.15,-0.09 0.16,-0.09 0.17,-0.08 0.17,-0.07 0.17,-0.07 0.18,-0.06 0.17,-0.06 0.19,-0.04 0.18,-0.05 0.19,-0.03 0.19,-0.02 0.2,-0.02 0.2,-0.01 0.19,-0.01 c 1.74,0 2.9,1.14 3.69,2.74 0.85,1.79 1.49,4.84 1.49,4.93 0,0.5 -0.44,0.5 -0.6,0.5 -0.5,0 -0.54,-0.2 -0.7,-0.9 -0.69,-2.78 -1.64,-6.17 -3.73,-6.17 -1.05,0 -1.54,0.65 -1.54,2.29 0,1.1 0.6,3.44 0.99,5.17 l 1.4,5.4 c 0.15,0.75 0.65,2.64 0.85,3.39 0.25,1.14 0.75,3.03 0.75,3.32 0,0.91 -0.7,1.35 -1.45,1.35 -0.25,0 -1.55,-0.05 -1.94,-1.74 -0.96,-3.64 -3.14,-12.36 -3.74,-15 -0.06,-0.2 -2.04,-4.18 -5.68,-4.18 -2.6,0 -3.1,2.25 -3.1,4.09 0,2.78 1.41,6.72 2.71,10.16 0.59,1.5 0.84,2.18 0.84,3.14 0,2.23 -1.59,4.07 -4.09,4.07 -4.74,0 -6.58,-7.21 -6.58,-7.67 0,-0.5 0.5,-0.5 0.61,-0.5 0.5,0 0.54,0.11 0.79,0.91 1.24,4.33 3.14,6.17 5.03,6.17 0.44,0 1.25,-0.05 1.25,-1.64 0,-1.2 -0.56,-2.64 -0.85,-3.39 -1.85,-4.94 -2.9,-8.02 -2.9,-10.45 0,-4.74 3.44,-5.99 6.15,-5.99 3.28,0 5.07,2.24 5.92,3.35 z"
           id="path3605"
           inkscape:connector-curvature="0"
           style="fill:#000000;stroke-width:0" /><path
           d="m 495.38,420.54 -0.01,0.05 0,0.06 -0.01,0.05 -0.01,0.06 -0.01,0.05 -0.01,0.06 -0.02,0.05 -0.02,0.06 -0.02,0.06 -0.02,0.05 -0.03,0.06 -0.03,0.05 -0.03,0.06 -0.04,0.05 -0.04,0.05 -0.04,0.05 -0.04,0.05 -0.05,0.05 -0.05,0.04 -0.05,0.05 -0.06,0.04 -0.06,0.03 -0.06,0.04 -0.07,0.03 -0.06,0.03 -0.08,0.03 -0.07,0.02 -0.08,0.02 -0.08,0.01 -0.08,0.01 -0.09,0.01 -0.09,0 c -0.94,0 -1.95,-0.91 -1.95,-1.92 0,-0.59 0.45,-1.33 1.4,-1.33 1,0 1.96,0.99 1.96,1.92 z"
           id="path3607"
           inkscape:connector-curvature="0"
           style="fill:#000000;stroke-width:0" /><path
           d="m 488.27,402.84 -0.06,-0.17 -0.05,-0.17 -0.03,-0.08 -0.02,-0.09 -0.03,-0.08 -0.02,-0.09 -0.03,-0.09 -0.02,-0.09 -0.01,-0.1 -0.02,-0.09 -0.01,-0.1 -0.01,-0.05 0,-0.05 0,-0.06 -0.01,-0.05 0,-0.05 0,-0.06 c 0,-1.64 1.39,-2.95 3.3,-2.95 3.48,0 5.03,4.79 5.03,5.33 0,0.45 -0.45,0.45 -0.56,0.45 -0.49,0 -0.53,-0.2 -0.67,-0.59 -0.8,-2.79 -2.33,-4.22 -3.69,-4.22 -0.7,0 -0.88,0.45 -0.88,1.22 0,0.79 0.25,1.46 0.57,2.23 0.34,0.94 0.73,1.87 1.11,2.78 0.31,0.84 1.57,4.02 1.72,4.44 0.09,0.34 0.2,0.76 0.2,1.11 0,1.64 -1.39,2.95 -3.31,2.95 -3.46,0 -5.05,-4.73 -5.05,-5.33 0,-0.45 0.48,-0.45 0.59,-0.45 0.49,0 0.52,0.17 0.63,0.56 0.9,3 2.44,4.25 3.72,4.25 0.56,0 0.87,-0.28 0.87,-1.22 0,-0.79 -0.2,-1.32 -1.08,-3.48 z"
           id="path3609"
           inkscape:connector-curvature="0"
           style="fill:#000000;stroke-width:0" /><path
           d="m 524.04,406.64 0.05,0 0.06,0 0.11,0 0.12,0 0.06,0.01 0.05,0 0.06,0.01 0.06,0 0.06,0.01 0.06,0.01 0.05,0.01 0.06,0.02 0.05,0.01 0.06,0.02 0.05,0.02 0.05,0.03 0.04,0.02 0.05,0.03 0.04,0.04 0.04,0.03 0.04,0.04 0.02,0.02 0.01,0.02 0.02,0.03 0.01,0.02 0.02,0.02 0.01,0.03 0.01,0.03 0.01,0.02 0.01,0.03 0.01,0.03 0.01,0.03 0.01,0.03 0.01,0.04 0,0.03 0,0.04 0.01,0.03 0,0.04 0,0.04 c 0,0.86 -0.8,0.86 -1.39,0.86 h -20.77 c -0.56,0 -1.39,0 -1.39,-0.83 0,-0.87 0.8,-0.87 1.39,-0.87 z"
           id="path3611"
           inkscape:connector-curvature="0"
           style="fill:#000000;stroke-width:0" /><path
           d="m 540.87,420.92 0,0.04 0,0.04 0,0.05 0,0.04 0,0.03 -0.01,0.04 0,0.04 0,0.03 0,0.04 0,0.03 0,0.03 -0.01,0.03 0,0.03 0,0.03 0,0.03 -0.01,0.02 0,0.03 -0.01,0.02 0,0.03 -0.01,0.02 -0.01,0.04 -0.01,0.04 -0.02,0.03 -0.02,0.03 -0.02,0.03 -0.03,0.03 -0.02,0.02 -0.04,0.02 -0.03,0.02 -0.04,0.01 -0.04,0.01 -0.04,0.02 -0.02,0 -0.03,0 -0.02,0.01 -0.03,0 -0.03,0.01 -0.03,0 -0.03,0 -0.03,0 -0.03,0 -0.03,0.01 -0.04,0 -0.03,0 -0.04,0 -0.04,0 -0.04,0 -0.04,0 -0.04,0 -0.04,0 -0.04,0 -0.05,0 c -2.23,-2.2 -5.39,-2.23 -6.83,-2.23 v -1.25 c 0.85,0 3.14,0 5.05,0.97 v -17.77 c 0,-1.16 0,-1.61 -3.49,-1.61 h -1.31 v -1.25 c 0.63,0.03 4.91,0.14 6.21,0.14 1.07,0 5.46,-0.11 6.23,-0.14 v 1.25 h -1.33 c -3.48,0 -3.48,0.45 -3.48,1.61 z"
           id="path3613"
           inkscape:connector-curvature="0"
           style="fill:#000000;stroke-width:0" /><path
           d="m 556.35,399.32 0,-0.36 -0.02,-0.37 -0.03,-0.38 -0.04,-0.38 -0.03,-0.19 -0.03,-0.2 -0.04,-0.2 -0.05,-0.19 -0.05,-0.2 -0.05,-0.2 -0.06,-0.2 -0.07,-0.2 -0.08,-0.2 -0.08,-0.21 -0.09,-0.2 -0.1,-0.21 -0.11,-0.2 -0.11,-0.21 -0.12,-0.2 -0.14,-0.21 -0.14,-0.21 -0.15,-0.2 -0.16,-0.21 -0.17,-0.21 -0.18,-0.21 -0.2,-0.2 -0.2,-0.21 -0.22,-0.21 c -0.14,-0.14 -0.25,-0.25 -0.25,-0.42 0,-0.25 0.28,-0.49 0.49,-0.49 0.48,0 3.45,2.78 3.45,6.92 0,2.18 -0.84,3.8 -2.44,3.8 -1.15,0 -1.98,-0.9 -1.98,-1.98 0,-1.11 0.8,-2.02 2.01,-2.02 0.85,0 1.39,0.56 1.44,0.56 z"
           id="path3615"
           inkscape:connector-curvature="0"
           style="fill:#000000;stroke-width:0" /><path
           d="m 576.17,420.54 0,0.06 -0.01,0.06 0,0.05 -0.01,0.06 -0.02,0.06 -0.01,0.06 -0.02,0.05 -0.02,0.06 -0.02,0.06 -0.03,0.05 -0.02,0.06 -0.03,0.05 -0.04,0.06 -0.03,0.05 -0.04,0.05 -0.05,0.05 -0.04,0.05 -0.05,0.04 -0.05,0.05 -0.05,0.04 -0.06,0.04 -0.05,0.03 -0.07,0.04 -0.06,0.03 -0.07,0.02 -0.07,0.03 -0.07,0.02 -0.07,0.02 -0.08,0.01 -0.08,0.01 -0.09,0.01 -0.08,0 c -1.02,0 -1.96,-0.98 -1.96,-1.92 0,-0.56 0.43,-1.33 1.4,-1.33 0.93,0 1.95,0.91 1.95,1.92 z"
           id="path3617"
           inkscape:connector-curvature="0"
           style="fill:#000000;stroke-width:0" /><path
           d="m 568.78,397.06 -0.06,-0.23 -0.07,-0.22 -0.07,-0.22 -0.08,-0.21 -0.09,-0.21 -0.09,-0.21 -0.1,-0.21 -0.11,-0.2 -0.11,-0.19 -0.11,-0.19 -0.13,-0.19 -0.12,-0.18 -0.13,-0.17 -0.14,-0.17 -0.14,-0.16 -0.15,-0.15 -0.15,-0.15 -0.15,-0.14 -0.16,-0.13 -0.17,-0.13 -0.16,-0.11 -0.17,-0.11 -0.17,-0.1 -0.18,-0.09 -0.17,-0.08 -0.18,-0.07 -0.19,-0.06 -0.18,-0.05 -0.19,-0.04 -0.19,-0.03 -0.19,-0.02 -0.19,0 c -0.45,0 -0.87,0.06 -1.26,0.2 0.9,0.42 1.19,1.25 1.19,1.78 0,0.83 -0.66,1.28 -1.37,1.28 -1.07,0 -1.98,-0.94 -1.98,-2.04 0,-1.33 1.36,-2.21 3.45,-2.21 2.1,0 6.16,1.25 7.25,5.5 l 3.13,12.49 c 0.11,0.37 0.17,0.68 0.17,1.22 0,1.9 -1.62,3.26 -3.72,3.26 -3.87,0 -6.09,-4.84 -6.09,-5.33 0,-0.45 0.48,-0.45 0.59,-0.45 0.41,0 0.45,0.11 0.69,0.62 0.88,2.04 2.69,4.19 4.7,4.19 0.88,0 1.19,-0.59 1.19,-1.7 0,-0.39 -0.06,-0.88 -0.11,-1.05 z"
           id="path3619"
           inkscape:connector-curvature="0"
           style="fill:#000000;stroke-width:0" /></g>    </g>
    <g
       id="g3731"
       transform="translate(158.57143,-202.85714)">
      <g
         word-spacing="normal"
         letter-spacing="normal"
         font-size-adjust="none"
         font-stretch="normal"
         font-weight="normal"
         font-variant="normal"
         font-style="normal"
         stroke-miterlimit="10.433"
         xml:space="preserve"
         transform="matrix(1.0629921,0,0,-1.0629921,-186.02362,789.27165)"
         id="g3733"
         style="font-style:normal;font-variant:normal;font-weight:normal;font-stretch:normal;letter-spacing:normal;word-spacing:normal;text-anchor:start;fill:none;stroke:#000000;stroke-linecap:butt;stroke-linejoin:miter;stroke-miterlimit:10.43299961;stroke-opacity:1;stroke-dasharray:none;stroke-dashoffset:0"><path
           id="path3735"
           d="m 472.96,409 0.05,-0.19 0.06,-0.19 0.07,-0.18 0.08,-0.18 0.08,-0.17 0.09,-0.16 0.09,-0.16 0.1,-0.16 0.11,-0.15 0.11,-0.15 0.11,-0.14 0.13,-0.13 0.12,-0.13 0.14,-0.12 0.14,-0.12 0.14,-0.11 0.15,-0.11 0.15,-0.1 0.15,-0.09 0.16,-0.09 0.17,-0.08 0.17,-0.07 0.17,-0.07 0.18,-0.06 0.17,-0.06 0.19,-0.04 0.18,-0.05 0.19,-0.03 0.19,-0.02 0.2,-0.02 0.2,-0.01 0.19,-0.01 c 1.74,0 2.9,1.14 3.69,2.74 0.85,1.79 1.49,4.84 1.49,4.93 0,0.5 -0.44,0.5 -0.6,0.5 -0.5,0 -0.54,-0.2 -0.7,-0.9 -0.69,-2.78 -1.64,-6.17 -3.73,-6.17 -1.05,0 -1.54,0.65 -1.54,2.29 0,1.1 0.6,3.44 0.99,5.17 l 1.4,5.4 c 0.15,0.75 0.65,2.64 0.85,3.39 0.25,1.14 0.75,3.03 0.75,3.32 0,0.91 -0.7,1.35 -1.45,1.35 -0.25,0 -1.55,-0.05 -1.94,-1.74 -0.96,-3.64 -3.14,-12.36 -3.74,-15 -0.06,-0.2 -2.04,-4.18 -5.68,-4.18 -2.6,0 -3.1,2.25 -3.1,4.09 0,2.78 1.41,6.72 2.71,10.16 0.59,1.5 0.84,2.18 0.84,3.14 0,2.23 -1.59,4.07 -4.09,4.07 -4.74,0 -6.58,-7.21 -6.58,-7.67 0,-0.5 0.5,-0.5 0.61,-0.5 0.5,0 0.54,0.11 0.79,0.91 1.24,4.33 3.14,6.17 5.03,6.17 0.44,0 1.25,-0.05 1.25,-1.64 0,-1.2 -0.56,-2.64 -0.85,-3.39 -1.85,-4.94 -2.9,-8.02 -2.9,-10.45 0,-4.74 3.44,-5.99 6.15,-5.99 3.28,0 5.07,2.24 5.92,3.35 z"
           inkscape:connector-curvature="0"
           style="fill:#000000;stroke-width:0" /><path
           id="path3737"
           d="m 495.38,420.54 -0.01,0.05 0,0.06 -0.01,0.05 -0.01,0.06 -0.01,0.05 -0.01,0.06 -0.02,0.05 -0.02,0.06 -0.02,0.06 -0.02,0.05 -0.03,0.06 -0.03,0.05 -0.03,0.06 -0.04,0.05 -0.04,0.05 -0.04,0.05 -0.04,0.05 -0.05,0.05 -0.05,0.04 -0.05,0.05 -0.06,0.04 -0.06,0.03 -0.06,0.04 -0.07,0.03 -0.06,0.03 -0.08,0.03 -0.07,0.02 -0.08,0.02 -0.08,0.01 -0.08,0.01 -0.09,0.01 -0.09,0 c -0.94,0 -1.95,-0.91 -1.95,-1.92 0,-0.59 0.45,-1.33 1.4,-1.33 1,0 1.96,0.99 1.96,1.92 z"
           inkscape:connector-curvature="0"
           style="fill:#000000;stroke-width:0" /><path
           id="path3739"
           d="m 488.27,402.84 -0.06,-0.17 -0.05,-0.17 -0.03,-0.08 -0.02,-0.09 -0.03,-0.08 -0.02,-0.09 -0.03,-0.09 -0.02,-0.09 -0.01,-0.1 -0.02,-0.09 -0.01,-0.1 -0.01,-0.05 0,-0.05 0,-0.06 -0.01,-0.05 0,-0.05 0,-0.06 c 0,-1.64 1.39,-2.95 3.3,-2.95 3.48,0 5.03,4.79 5.03,5.33 0,0.45 -0.45,0.45 -0.56,0.45 -0.49,0 -0.53,-0.2 -0.67,-0.59 -0.8,-2.79 -2.33,-4.22 -3.69,-4.22 -0.7,0 -0.88,0.45 -0.88,1.22 0,0.79 0.25,1.46 0.57,2.23 0.34,0.94 0.73,1.87 1.11,2.78 0.31,0.84 1.57,4.02 1.72,4.44 0.09,0.34 0.2,0.76 0.2,1.11 0,1.64 -1.39,2.95 -3.31,2.95 -3.46,0 -5.05,-4.73 -5.05,-5.33 0,-0.45 0.48,-0.45 0.59,-0.45 0.49,0 0.52,0.17 0.63,0.56 0.9,3 2.44,4.25 3.72,4.25 0.56,0 0.87,-0.28 0.87,-1.22 0,-0.79 -0.2,-1.32 -1.08,-3.48 z"
           inkscape:connector-curvature="0"
           style="fill:#000000;stroke-width:0" /><path
           id="path3741"
           d="m 514.26,406.64 h 10.65 c 0.46,0 1.29,0 1.29,0.84 0,0.86 -0.8,0.86 -1.29,0.86 h -10.65 v 10.7 c 0,0.46 0,1.28 -0.85,1.28 -0.87,0 -0.87,-0.79 -0.87,-1.28 v -10.7 h -10.69 c -0.45,0 -1.3,0 -1.3,-0.83 0,-0.87 0.8,-0.87 1.3,-0.87 h 10.69 v -10.71 c 0,-0.45 0,-1.28 0.84,-1.28 0.88,0 0.88,0.8 0.88,1.28 z"
           inkscape:connector-curvature="0"
           style="fill:#000000;stroke-width:0" /><path
           id="path3743"
           d="m 540.39,420.92 0,0.04 0,0.04 0,0.05 0,0.04 0,0.03 -0.01,0.04 0,0.04 0,0.03 0,0.04 0,0.03 0,0.03 -0.01,0.03 0,0.03 0,0.03 0,0.03 -0.01,0.02 0,0.03 -0.01,0.02 0,0.03 -0.01,0.02 -0.01,0.04 -0.01,0.04 -0.02,0.03 -0.02,0.03 -0.02,0.03 -0.03,0.03 -0.02,0.02 -0.04,0.02 -0.03,0.02 -0.04,0.01 -0.04,0.01 -0.04,0.02 -0.02,0 -0.03,0 -0.02,0.01 -0.03,0 -0.03,0.01 -0.03,0 -0.03,0 -0.03,0 -0.03,0 -0.03,0.01 -0.04,0 -0.03,0 -0.04,0 -0.04,0 -0.04,0 -0.04,0 -0.04,0 -0.04,0 -0.04,0 -0.05,0 c -2.24,-2.2 -5.39,-2.23 -6.83,-2.23 v -1.25 c 0.84,0 3.14,0 5.05,0.97 v -17.77 c 0,-1.16 0,-1.61 -3.49,-1.61 h -1.31 v -1.25 c 0.63,0.03 4.91,0.14 6.21,0.14 1.07,0 5.46,-0.11 6.23,-0.14 v 1.25 h -1.33 c -3.48,0 -3.48,0.45 -3.48,1.61 z"
           inkscape:connector-curvature="0"
           style="fill:#000000;stroke-width:0" /><path
           id="path3745"
           d="m 555.87,399.32 0,-0.36 -0.02,-0.37 -0.03,-0.38 -0.04,-0.38 -0.03,-0.19 -0.03,-0.2 -0.04,-0.2 -0.05,-0.19 -0.05,-0.2 -0.05,-0.2 -0.06,-0.2 -0.07,-0.2 -0.08,-0.2 -0.08,-0.21 -0.09,-0.2 -0.1,-0.21 -0.11,-0.2 -0.11,-0.21 -0.13,-0.2 -0.13,-0.21 -0.14,-0.21 -0.15,-0.2 -0.16,-0.21 -0.17,-0.21 -0.19,-0.21 -0.19,-0.2 -0.2,-0.21 -0.22,-0.21 c -0.14,-0.14 -0.25,-0.25 -0.25,-0.42 0,-0.25 0.28,-0.49 0.49,-0.49 0.48,0 3.45,2.78 3.45,6.92 0,2.18 -0.84,3.8 -2.44,3.8 -1.15,0 -1.98,-0.9 -1.98,-1.98 0,-1.11 0.8,-2.02 2.01,-2.02 0.85,0 1.39,0.56 1.44,0.56 z"
           inkscape:connector-curvature="0"
           style="fill:#000000;stroke-width:0" /><path
           id="path3747"
           d="m 575.69,420.54 0,0.06 -0.01,0.06 0,0.05 -0.01,0.06 -0.02,0.06 -0.01,0.06 -0.02,0.05 -0.02,0.06 -0.02,0.06 -0.03,0.05 -0.02,0.06 -0.04,0.05 -0.03,0.06 -0.04,0.05 -0.03,0.05 -0.05,0.05 -0.04,0.05 -0.05,0.04 -0.05,0.05 -0.05,0.04 -0.06,0.04 -0.06,0.03 -0.06,0.04 -0.06,0.03 -0.07,0.02 -0.07,0.03 -0.07,0.02 -0.07,0.02 -0.08,0.01 -0.08,0.01 -0.09,0.01 -0.08,0 c -1.02,0 -1.96,-0.98 -1.96,-1.92 0,-0.56 0.43,-1.33 1.39,-1.33 0.94,0 1.96,0.91 1.96,1.92 z"
           inkscape:connector-curvature="0"
           style="fill:#000000;stroke-width:0" /><path
           id="path3749"
           d="m 568.3,397.06 -0.06,-0.23 -0.07,-0.22 -0.07,-0.22 -0.08,-0.21 -0.09,-0.21 -0.09,-0.21 -0.1,-0.21 -0.11,-0.2 -0.11,-0.19 -0.11,-0.19 -0.13,-0.19 -0.12,-0.18 -0.14,-0.17 -0.13,-0.17 -0.14,-0.16 -0.15,-0.15 -0.15,-0.15 -0.16,-0.14 -0.15,-0.13 -0.17,-0.13 -0.16,-0.11 -0.17,-0.11 -0.17,-0.1 -0.18,-0.09 -0.17,-0.08 -0.18,-0.07 -0.19,-0.06 -0.18,-0.05 -0.19,-0.04 -0.19,-0.03 -0.19,-0.02 -0.19,0 c -0.45,0 -0.87,0.06 -1.26,0.2 0.9,0.42 1.18,1.25 1.18,1.78 0,0.83 -0.65,1.28 -1.35,1.28 -1.08,0 -1.99,-0.94 -1.99,-2.04 0,-1.33 1.36,-2.21 3.45,-2.21 2.1,0 6.16,1.25 7.25,5.5 l 3.13,12.49 c 0.11,0.37 0.17,0.68 0.17,1.22 0,1.9 -1.62,3.26 -3.72,3.26 -3.87,0 -6.09,-4.84 -6.09,-5.33 0,-0.45 0.48,-0.45 0.59,-0.45 0.41,0 0.45,0.11 0.69,0.62 0.87,2.04 2.69,4.19 4.7,4.19 0.88,0 1.19,-0.59 1.19,-1.7 0,-0.39 -0.06,-0.88 -0.11,-1.05 z"
           inkscape:connector-curvature="0"
           style="fill:#000000;stroke-width:0" /></g>    </g>
  </g>
</svg>
