<?xml version="1.0" encoding="UTF-8" standalone="no"?>
<!-- Created with Inkscape (http://www.inkscape.org/) -->

<svg
   xmlns:dc="http://purl.org/dc/elements/1.1/"
   xmlns:cc="http://creativecommons.org/ns#"
   xmlns:rdf="http://www.w3.org/1999/02/22-rdf-syntax-ns#"
   xmlns:svg="http://www.w3.org/2000/svg"
   xmlns="http://www.w3.org/2000/svg"
   xmlns:sodipodi="http://sodipodi.sourceforge.net/DTD/sodipodi-0.dtd"
   xmlns:inkscape="http://www.inkscape.org/namespaces/inkscape"
   version="1.0"
   x="0.0000000"
   y="0.0000000"
   width="1039.55"
   height="433.14001"
   id="svg2"
   sodipodi:version="0.32"
   inkscape:version="0.47 r22583"
   sodipodi:docname="omp-fork-join.svg"
   inkscape:output_extension="org.inkscape.output.svg.inkscape"
   sodipodi:modified="true">
  <metadata
     id="metadata1548">
    <rdf:RDF>
      <cc:Work
         rdf:about="">
        <dc:format>image/svg+xml</dc:format>
        <dc:type
           rdf:resource="http://purl.org/dc/dcmitype/StillImage" />
      </cc:Work>
    </rdf:RDF>
  </metadata>
  <sodipodi:namedview
     inkscape:window-height="1027"
     inkscape:window-width="924"
     inkscape:pageshadow="2"
     inkscape:pageopacity="0.0"
     borderopacity="1.0"
     bordercolor="#666666"
     pagecolor="#ffffff"
     id="base"
     inkscape:zoom="0.79265063"
     inkscape:cx="519.77502"
     inkscape:cy="216.57001"
     inkscape:window-x="474"
     inkscape:window-y="0"
     inkscape:current-layer="svg2"
     showgrid="false"
     inkscape:grid-bbox="false"
     inkscape:showpageshadow="true"
     showguides="true"
     inkscape:guide-bbox="true"
     height="433.14px"
     width="1039.55px"
     inkscape:window-maximized="0" />
  <defs
     id="defs4">
    <inkscape:perspective
       sodipodi:type="inkscape:persp3d"
       inkscape:vp_x="0 : 216.57001 : 1"
       inkscape:vp_y="0 : 1000 : 0"
       inkscape:vp_z="1039.55 : 216.57001 : 1"
       inkscape:persp3d-origin="519.77502 : 144.38 : 1"
       id="perspective108" />
    <marker
       refX="0"
       refY="0"
       orient="auto"
       style="overflow:visible"
       id="Arrow2Lend">
      <path
         d="M 8.7185878,4.0337352 L -2.2072895,0.016013256 L 8.7185884,-4.0017078 C 6.97309,-1.6296469 6.9831476,1.6157441 8.7185878,4.0337352 z "
         transform="matrix(-1.1,0,0,-1.1,5.5,0)"
         style="font-size:12px;fill-rule:evenodd;stroke-width:0.625;stroke-linejoin:round"
         id="path12438" />
    </marker>
  </defs>
  <path
     id="flowRoot5059"
     style="stroke:#000000;stroke-opacity:1"
     d="" />
  <path
     id="path5795"
     style="fill:none;fill-opacity:0.75;fill-rule:evenodd;stroke:#000000;stroke-width:0.61870599;stroke-linecap:round;stroke-linejoin:miter;stroke-miterlimit:4;stroke-dasharray:4.949648, 4.949648;stroke-dashoffset:0;stroke-opacity:1"
     d="M 471.48026,297.89292 L 587.26666,297.89292" />
  <path
     id="rect5772"
     style="fill:#d4cc3a;fill-opacity:1;stroke:none;stroke-width:1;stroke-linecap:round;stroke-linejoin:round;stroke-miterlimit:4;stroke-dashoffset:0;stroke-opacity:1"
     d="M 487.07636,286.51186 L 572.82463,286.51186 L 572.82463,309.26141 L 487.07636,309.26141 L 487.07636,286.51186 z " />
  <path
     id="path5797"
     style="fill:none;fill-opacity:0.75;fill-rule:evenodd;stroke:#000000;stroke-width:0.61870599;stroke-linecap:round;stroke-linejoin:miter;stroke-miterlimit:4;stroke-dasharray:4.949648, 4.949648;stroke-dashoffset:0;stroke-opacity:1"
     d="M 471.48026,349.29386 L 587.26666,349.29386" />
  <path
     id="path2119"
     style="fill:none;fill-opacity:0.75;fill-rule:evenodd;stroke:#000000;stroke-width:0.61870599px;stroke-linecap:butt;stroke-linejoin:miter;stroke-opacity:1"
     d="M 133.93472,323.98448 L 47.006523,323.98448" />
  <path
     id="path5654"
     style="fill:none;fill-opacity:0.75;fill-rule:evenodd;stroke:#000000;stroke-width:0.61870599;stroke-linecap:round;stroke-linejoin:miter;stroke-miterlimit:4;stroke-dasharray:4.949648, 4.949648;stroke-dashoffset:0;stroke-opacity:1"
     d="M 426.83912,323.52045 L 471.34063,246.44156" />
  <path
     id="path5656"
     style="fill:none;fill-opacity:0.75;fill-rule:evenodd;stroke:#000000;stroke-width:0.61870599;stroke-linecap:round;stroke-linejoin:miter;stroke-miterlimit:4;stroke-dasharray:4.949648, 4.949648;stroke-dashoffset:0;stroke-opacity:1"
     d="M 426.87713,323.74665 L 471.34063,400.75969" />
  <path
     id="path5658"
     style="fill:none;fill-opacity:0.75;fill-rule:evenodd;stroke:#000000;stroke-width:0.61870599px;stroke-linecap:butt;stroke-linejoin:miter;stroke-opacity:1"
     d="M 719.58883,323.66389 L 632.66065,323.66389" />
  <path
     id="path5660"
     style="fill:none;fill-opacity:0.75;fill-rule:evenodd;stroke:#000000;stroke-width:0.61870599;stroke-linecap:round;stroke-linejoin:miter;stroke-miterlimit:4;stroke-dasharray:4.949648, 4.949648;stroke-dashoffset:0;stroke-opacity:1"
     d="M 632.04194,323.62183 L 587.4819,246.44156" />
  <path
     id="path5662"
     style="fill:none;fill-opacity:0.75;fill-rule:evenodd;stroke:#000000;stroke-width:0.61870599;stroke-linecap:round;stroke-linejoin:miter;stroke-miterlimit:4;stroke-dasharray:4.949648, 4.949648;stroke-dashoffset:0;stroke-opacity:1"
     d="M 632.0226,323.61293 L 587.4819,400.75969" />
  <path
     id="path5664"
     style="fill:none;fill-opacity:0.75;fill-rule:evenodd;stroke:#000000;stroke-width:0.61870599;stroke-linecap:round;stroke-linejoin:miter;stroke-miterlimit:4;stroke-dasharray:4.949648, 4.949648;stroke-dashoffset:0;stroke-opacity:1"
     d="M 471.48026,246.44075 L 587.26667,246.44075" />
  <path
     id="path5666"
     style="fill:none;fill-opacity:0.75;fill-rule:evenodd;stroke:#000000;stroke-width:0.61870599;stroke-linecap:round;stroke-linejoin:round;stroke-miterlimit:4;stroke-dasharray:4.949648, 4.949648;stroke-dashoffset:0;stroke-opacity:1"
     d="M 471.33435,400.77836 L 587.41256,400.77836" />
  <path
     id="path5668"
     style="stroke-linecap:round;stroke-linejoin:round"
     d="M 430.37707,323.66389 C 430.37707,325.59586 428.8091,327.16382 426.87714,327.16382 C 424.94518,327.16382 423.37721,325.59586 423.37721,323.66389 C 423.37721,321.73193 424.94518,320.16397 426.87714,320.16397 C 428.8091,320.16397 430.37707,321.73193 430.37707,323.66389 z " />
  <path
     id="path5670"
     style="stroke-linecap:round;stroke-linejoin:round"
     d="M 635.54187,323.66389 C 635.54187,325.59586 633.9739,327.16382 632.04194,327.16382 C 630.10998,327.16382 628.54201,325.59586 628.54201,323.66389 C 628.54201,321.73193 630.10998,320.16397 632.04194,320.16397 C 633.9739,320.16397 635.54187,321.73193 635.54187,323.66389 z " />
  <path
     id="path1316"
     style="fill:none;fill-opacity:0.75;fill-rule:evenodd;stroke:#000000;stroke-width:0.61870599;stroke-linecap:round;stroke-linejoin:miter;stroke-miterlimit:4;stroke-dasharray:4.949648, 4.949648;stroke-dashoffset:0;stroke-opacity:1"
     d="M 134.55343,323.36577 L 179.05495,246.28688" />
  <path
     id="path1324"
     style="fill:none;fill-opacity:0.75;fill-rule:evenodd;stroke:#000000;stroke-width:0.61870599;stroke-linecap:round;stroke-linejoin:miter;stroke-miterlimit:4;stroke-dasharray:4.949648, 4.949648;stroke-dashoffset:0;stroke-opacity:1"
     d="M 134.59145,323.59197 L 179.05495,400.60501" />
  <path
     id="path1332"
     style="fill:none;fill-opacity:0.75;fill-rule:evenodd;stroke:#000000;stroke-width:0.61870599;stroke-linecap:round;stroke-linejoin:miter;stroke-miterlimit:4;stroke-dasharray:4.949648, 4.949648;stroke-dashoffset:0;stroke-opacity:1"
     d="M 339.75626,323.46715 L 295.19621,246.28688" />
  <path
     id="path1334"
     style="fill:none;fill-opacity:0.75;fill-rule:evenodd;stroke:#000000;stroke-width:0.61870599;stroke-linecap:round;stroke-linejoin:miter;stroke-miterlimit:4;stroke-dasharray:4.949648, 4.949648;stroke-dashoffset:0;stroke-opacity:1"
     d="M 339.73691,323.45825 L 295.19621,400.60501" />
  <path
     id="path1346"
     style="fill:none;fill-opacity:0.75;fill-rule:evenodd;stroke:#000000;stroke-width:0.61870599;stroke-linecap:round;stroke-linejoin:miter;stroke-miterlimit:4;stroke-dasharray:4.949648, 4.949648;stroke-dashoffset:0;stroke-opacity:1"
     d="M 179.06482,246.28608 L 294.85123,246.28608" />
  <path
     id="path1348"
     style="fill:none;fill-opacity:0.75;fill-rule:evenodd;stroke:#000000;stroke-width:0.61870599;stroke-linecap:round;stroke-linejoin:round;stroke-miterlimit:4;stroke-dasharray:4.949648, 4.949648;stroke-dashoffset:0;stroke-opacity:1"
     d="M 179.04867,400.62368 L 295.12688,400.62368" />
  <path
     id="path2084"
     style="stroke-linecap:round;stroke-linejoin:round"
     d="M 138.09137,323.50919 C 138.09137,325.44116 136.5234,327.00912 134.59144,327.00912 C 132.65948,327.00912 131.09151,325.44116 131.09151,323.50919 C 131.09151,321.57723 132.65948,320.00927 134.59144,320.00927 C 136.5234,320.00927 138.09137,321.57723 138.09137,323.50919 z " />
  <path
     id="path2098"
     style="stroke-linecap:round;stroke-linejoin:round"
     d="M 343.25617,323.50919 C 343.25617,325.44116 341.6882,327.00912 339.75624,327.00912 C 337.82428,327.00912 336.25631,325.44116 336.25631,323.50919 C 336.25631,321.57723 337.82428,320.00927 339.75624,320.00927 C 341.6882,320.00927 343.25617,321.57723 343.25617,323.50919 z " />
  <path
     id="path2121"
     style="fill:none;fill-opacity:0.75;fill-rule:evenodd;stroke:#000000;stroke-width:0.61870599;stroke-linecap:butt;stroke-linejoin:miter;stroke-miterlimit:4;stroke-dasharray:4.9496479, 4.9496479;stroke-dashoffset:0;stroke-opacity:1"
     d="M 136.14412,324.10885 L 342.48257,324.10885" />
  <path
     id="rect3581"
     style="fill:#ab0e0e;fill-opacity:1;stroke:none;stroke-width:1;stroke-linecap:round;stroke-linejoin:round;stroke-miterlimit:4;stroke-dashoffset:0"
     d="M 194.08389,389.24889 L 279.83218,389.24889 L 279.83218,411.99844 L 194.08389,411.99844 L 194.08389,389.24889 z " />
  <path
     id="rect4323"
     style="fill:none;fill-opacity:1;stroke:#000000;stroke-width:0.61870599;stroke-linecap:round;stroke-linejoin:round;stroke-miterlimit:4;stroke-dasharray:0.618706, 4.949648;stroke-dashoffset:0;stroke-opacity:1"
     d="M 178.55295,225.01708 L 295.36312,225.01708 L 295.36312,423.20061 L 178.55295,423.20061 L 178.55295,225.01708 z " />
  <rect
     width="85.748276"
     height="22.749544"
     x="194.08389"
     y="234.9113"
     style="fill:#0eab29;fill-opacity:1;stroke:none;stroke-width:1;stroke-linecap:round;stroke-linejoin:round;stroke-miterlimit:4;stroke-dasharray:none;stroke-dashoffset:0;stroke-opacity:1"
     id="rect3579" />
  <rect
     width="85.748276"
     height="22.749544"
     x="194.08389"
     y="312.7341"
     style="fill:#0e38ab;fill-opacity:1;stroke:none;stroke-width:1;stroke-linecap:round;stroke-linejoin:round;stroke-miterlimit:4;stroke-dasharray:none;stroke-dashoffset:0;stroke-opacity:1"
     id="rect3583" />
  <path
     id="path5672"
     style="fill:none;fill-opacity:0.75;fill-rule:evenodd;stroke:#000000;stroke-width:0.61870599px;stroke-linecap:butt;stroke-linejoin:miter;stroke-opacity:1"
     d="M 426.22041,324.13916 L 339.29221,324.13916" />
  <path
     id="rect5682"
     style="fill:none;fill-opacity:1;stroke:#000000;stroke-width:0.61870599;stroke-linecap:round;stroke-linejoin:round;stroke-miterlimit:4;stroke-dasharray:0.618706, 4.949648;stroke-dashoffset:0;stroke-opacity:1"
     d="M 470.83862,225.17174 L 587.6488,225.17174 L 587.6488,423.35528 L 470.83862,423.35528 L 470.83862,225.17174 z " />
  <rect
     width="85.748276"
     height="22.749544"
     x="486.4993"
     y="235.06596"
     style="fill:#0eab29;fill-opacity:1;stroke:none;stroke-width:1;stroke-linecap:round;stroke-linejoin:round;stroke-miterlimit:4;stroke-dasharray:none;stroke-dashoffset:0;stroke-opacity:1"
     id="rect5676" />
  <path
     id="rect5680"
     style="fill:#0e38ab;fill-opacity:1;stroke:none;stroke-width:1;stroke-linecap:round;stroke-linejoin:round;stroke-miterlimit:4;stroke-dashoffset:0;stroke-opacity:1"
     d="M 486.4993,337.95772 L 572.24757,337.95772 L 572.24757,360.70727 L 486.4993,360.70727 L 486.4993,337.95772 z " />
  <path
     id="rect5678"
     style="fill:#ab0e0e;fill-opacity:1;stroke:none;stroke-width:1;stroke-linecap:round;stroke-linejoin:round;stroke-miterlimit:4;stroke-dashoffset:0"
     d="M 486.4993,389.40362 L 572.24757,389.40362 L 572.24757,412.15316 L 486.4993,412.15316 L 486.4993,389.40362 z " />
  <path
     id="path5799"
     style="fill:none;fill-opacity:0.75;fill-rule:evenodd;stroke:#000000;stroke-width:0.61870599;stroke-linecap:round;stroke-linejoin:miter;stroke-miterlimit:4;stroke-dasharray:4.949648, 4.949648;stroke-dashoffset:5.259001;stroke-opacity:1"
     d="M 426.97761,323.65275 L 470.68706,349.29386" />
  <path
     id="path5801"
     style="fill:none;fill-opacity:0.75;fill-rule:evenodd;stroke:#000000;stroke-width:0.61870599;stroke-linecap:round;stroke-linejoin:miter;stroke-miterlimit:4;stroke-dasharray:4.949648, 4.949648;stroke-dashoffset:5.259001;stroke-opacity:1"
     d="M 427.28696,323.9621 L 470.83206,297.89292" />
  <path
     id="path6529"
     style="fill:none;fill-opacity:0.75;fill-rule:evenodd;stroke:#000000;stroke-width:0.61870599;stroke-linecap:round;stroke-linejoin:miter;stroke-miterlimit:4;stroke-dasharray:4.949648, 4.949648;stroke-dashoffset:5.259001;stroke-opacity:1"
     d="M 631.95577,323.69138 L 588.24632,349.33249" />
  <path
     id="path6531"
     style="fill:none;fill-opacity:0.75;fill-rule:evenodd;stroke:#000000;stroke-width:0.61870599;stroke-linecap:round;stroke-linejoin:miter;stroke-miterlimit:4;stroke-dasharray:4.949648, 4.949648;stroke-dashoffset:5.259001;stroke-opacity:1"
     d="M 631.64642,323.95579 L 588.10131,297.88661" />
  <path
     id="path6729"
     style="fill:none;fill-opacity:0.75;fill-rule:evenodd;stroke:#000000;stroke-width:0.61870599;stroke-linecap:round;stroke-linejoin:miter;stroke-miterlimit:4;stroke-dasharray:4.949648, 4.949648;stroke-dashoffset:0;stroke-opacity:1"
     d="M 721.41865,322.92715 L 765.84286,280.41253" />
  <path
     id="path6731"
     style="fill:none;fill-opacity:0.75;fill-rule:evenodd;stroke:#000000;stroke-width:0.61870599;stroke-linecap:round;stroke-linejoin:miter;stroke-miterlimit:4;stroke-dasharray:4.949648, 4.949648;stroke-dashoffset:0;stroke-opacity:1"
     d="M 721.45664,323.15335 L 765.87188,351.16737" />
  <path
     id="path6741"
     style="stroke-linecap:round;stroke-linejoin:round"
     d="M 724.95657,323.07059 C 724.95657,325.00256 723.3886,326.57052 721.45664,326.57052 C 719.52468,326.57052 717.95671,325.00256 717.95671,323.07059 C 717.95671,321.13863 719.52468,319.57067 721.45664,319.57067 C 723.3886,319.57067 724.95657,321.13863 724.95657,323.07059 z " />
  <path
     id="path6743"
     style="stroke-linecap:round;stroke-linejoin:round"
     d="M 930.12137,323.07059 C 930.12137,325.00256 928.5534,326.57052 926.62144,326.57052 C 924.68948,326.57052 923.12151,325.00256 923.12151,323.07059 C 923.12151,321.13863 924.68948,319.57067 926.62144,319.57067 C 928.5534,319.57067 930.12137,321.13863 930.12137,323.07059 z " />
  <path
     id="rect6753"
     style="fill:none;fill-opacity:1;stroke:#000000;stroke-width:0.61821884;stroke-linecap:round;stroke-linejoin:round;stroke-miterlimit:4;stroke-dasharray:0.61821884, 4.9457508;stroke-dashoffset:1.5455471;stroke-opacity:1"
     d="M 765.41818,263.51516 L 882.22839,263.51516 L 882.22839,368.9506 L 765.41818,368.9506 L 765.41818,263.51516 z " />
  <path
     id="path6779"
     style="fill:none;fill-opacity:0.75;fill-rule:evenodd;stroke:#000000;stroke-width:0.61870599px;stroke-linecap:butt;stroke-linejoin:miter;stroke-opacity:1"
     d="M 1013.0856,323.70053 L 926.15744,323.70053" />
  <path
     id="path6737"
     style="fill:none;fill-opacity:0.75;fill-rule:evenodd;stroke:#000000;stroke-width:0.61870599;stroke-linecap:round;stroke-linejoin:miter;stroke-miterlimit:4;stroke-dasharray:4.949648, 4.949648;stroke-dashoffset:0;stroke-opacity:1"
     d="M 765.93003,280.40926 L 881.71647,280.40926" />
  <path
     id="path6739"
     style="fill:none;fill-opacity:0.75;fill-rule:evenodd;stroke:#000000;stroke-width:0.61870599;stroke-linecap:round;stroke-linejoin:round;stroke-miterlimit:4;stroke-dasharray:4.949648, 4.949648;stroke-dashoffset:0;stroke-opacity:1"
     d="M 765.91389,351.18604 L 881.9921,351.18604" />
  <path
     id="rect6747"
     style="fill:#0eab29;fill-opacity:1;stroke:none;stroke-width:1;stroke-linecap:round;stroke-linejoin:round;stroke-miterlimit:4;stroke-dashoffset:0;stroke-opacity:1"
     d="M 781.07889,269.03448 L 866.82716,269.03448 L 866.82716,291.78402 L 781.07889,291.78402 L 781.07889,269.03448 z " />
  <path
     id="rect6749"
     style="fill:#d5cb39;fill-opacity:1;stroke:none;stroke-width:1;stroke-linecap:round;stroke-linejoin:round;stroke-miterlimit:4;stroke-dashoffset:0"
     d="M 781.07889,339.81127 L 866.82716,339.81127 L 866.82716,362.56081 L 781.07889,362.56081 L 781.07889,339.81127 z " />
  <path
     id="path6833"
     style="fill:none;fill-opacity:0.75;fill-rule:evenodd;stroke:#000000;stroke-width:0.61870599;stroke-linecap:round;stroke-linejoin:miter;stroke-miterlimit:4;stroke-dasharray:4.949648, 4.949648;stroke-dashoffset:0;stroke-opacity:1"
     d="M 927.03501,322.92388 L 882.61081,280.40926" />
  <path
     id="path6835"
     style="fill:none;fill-opacity:0.75;fill-rule:evenodd;stroke:#000000;stroke-width:0.61870599;stroke-linecap:round;stroke-linejoin:miter;stroke-miterlimit:4;stroke-dasharray:4.949648, 4.949648;stroke-dashoffset:0;stroke-opacity:1"
     d="M 927.02604,323.17201 L 882.61081,351.18604" />
  <g
     id="g2299">
    <path
       style="fill:#000000;fill-opacity:1;fill-rule:evenodd;stroke:none;stroke-width:1px;stroke-linecap:butt;stroke-linejoin:miter;stroke-opacity:1"
       d="M 83.53125,274.34375 L 82.5625,274.625 L 91.5625,307.625 L 92.53125,307.34375 L 83.53125,274.34375 z "
       id="path11597" />
    <path
       id="path2305"
       style="font-size:12px;fill-rule:evenodd;stroke-width:0.625;stroke-linejoin:round"
       d="M 95.250424,302.37331 L 94.148924,315.13114 L 86.722889,304.69901 C 89.745413,305.86485 93.186642,304.91487 95.250424,302.37331 z " />
  </g>
  <path
     transform="translate(-77.479467,101.57088)"
     style=""
     d="M 251.0293,98.623255 L 251.0293,104.10177 L 253.50977,104.10177 C 254.42773,104.10178 255.13736,103.86415 255.63867,103.38888 C 256.13996,102.91363 256.39062,102.23655 256.39062,101.35763 C 256.39062,100.48525 256.13996,99.811418 255.63867,99.336145 C 255.13736,98.860898 254.42773,98.623268 253.50977,98.623255 L 251.0293,98.623255 M 249.05664,97.002161 L 253.50977,97.002161 C 255.14387,97.002176 256.37759,97.373269 257.21094,98.115442 C 258.05077,98.851132 258.47069,99.93186 258.4707,101.35763 C 258.47069,102.79644 258.05077,103.88368 257.21094,104.61935 C 256.37759,105.35503 255.14387,105.72287 253.50977,105.72286 L 251.0293,105.72286 L 251.0293,111.58224 L 249.05664,111.58224 L 249.05664,97.002161 M 265.12109,106.08419 C 263.66927,106.0842 262.66341,106.25021 262.10352,106.58224 C 261.54362,106.91428 261.26367,107.48068 261.26367,108.28146 C 261.26367,108.91948 261.472,109.42729 261.88867,109.8049 C 262.31184,110.17599 262.88476,110.36154 263.60742,110.36154 C 264.60351,110.36154 265.40103,110.00998 266,109.30685 C 266.60546,108.59722 266.90819,107.65646 266.9082,106.48458 L 266.9082,106.08419 L 265.12109,106.08419 M 268.70508,105.342 L 268.70508,111.58224 L 266.9082,111.58224 L 266.9082,109.92208 C 266.49804,110.58615 265.98697,111.07768 265.375,111.39669 C 264.76301,111.70919 264.01432,111.86544 263.12891,111.86544 C 262.00911,111.86544 261.11718,111.55294 260.45312,110.92794 C 259.79557,110.29643 259.4668,109.45334 259.4668,108.39865 C 259.4668,107.16818 259.87695,106.24045 260.69727,105.61544 C 261.52409,104.99045 262.75455,104.67795 264.38867,104.67794 L 266.9082,104.67794 L 266.9082,104.50216 C 266.90819,103.67535 266.63476,103.03733 266.08789,102.5881 C 265.54752,102.13238 264.7858,101.90451 263.80273,101.9045 C 263.17773,101.90451 262.56901,101.97938 261.97656,102.12911 C 261.38411,102.27886 260.81445,102.50347 260.26758,102.80294 L 260.26758,101.14279 C 260.92513,100.88889 261.56315,100.70009 262.18164,100.57638 C 262.80013,100.44618 263.40234,100.38108 263.98828,100.38107 C 265.57031,100.38108 266.75194,100.79123 267.5332,101.61154 C 268.31444,102.43186 268.70507,103.67535 268.70508,105.342 M 278.79297,102.32443 C 278.59114,102.20725 278.36978,102.12261 278.12891,102.07052 C 277.89452,102.01194 277.63411,101.98264 277.34766,101.98263 C 276.33203,101.98264 275.55078,102.31467 275.00391,102.97872 C 274.46354,103.63628 274.19336,104.58355 274.19336,105.82052 L 274.19336,111.58224 L 272.38672,111.58224 L 272.38672,100.64474 L 274.19336,100.64474 L 274.19336,102.34396 C 274.57096,101.67991 275.0625,101.18837 275.66797,100.86935 C 276.27343,100.54384 277.00911,100.38108 277.875,100.38107 C 277.99869,100.38108 278.13541,100.39084 278.28516,100.41036 C 278.43489,100.4234 278.6009,100.44618 278.7832,100.47872 L 278.79297,102.32443 M 285.62891,106.08419 C 284.17708,106.0842 283.17122,106.25021 282.61133,106.58224 C 282.05143,106.91428 281.77148,107.48068 281.77148,108.28146 C 281.77148,108.91948 281.97981,109.42729 282.39648,109.8049 C 282.81966,110.17599 283.39257,110.36154 284.11523,110.36154 C 285.11132,110.36154 285.90885,110.00998 286.50781,109.30685 C 287.11327,108.59722 287.41601,107.65646 287.41602,106.48458 L 287.41602,106.08419 L 285.62891,106.08419 M 289.21289,105.342 L 289.21289,111.58224 L 287.41602,111.58224 L 287.41602,109.92208 C 287.00585,110.58615 286.49478,111.07768 285.88281,111.39669 C 285.27083,111.70919 284.52213,111.86544 283.63672,111.86544 C 282.51692,111.86544 281.625,111.55294 280.96094,110.92794 C 280.30338,110.29643 279.97461,109.45334 279.97461,108.39865 C 279.97461,107.16818 280.38476,106.24045 281.20508,105.61544 C 282.0319,104.99045 283.26237,104.67795 284.89648,104.67794 L 287.41602,104.67794 L 287.41602,104.50216 C 287.41601,103.67535 287.14257,103.03733 286.5957,102.5881 C 286.05533,102.13238 285.29361,101.90451 284.31055,101.9045 C 283.68554,101.90451 283.07682,101.97938 282.48438,102.12911 C 281.89192,102.27886 281.32226,102.50347 280.77539,102.80294 L 280.77539,101.14279 C 281.43294,100.88889 282.07096,100.70009 282.68945,100.57638 C 283.30794,100.44618 283.91015,100.38108 284.49609,100.38107 C 286.07812,100.38108 287.25976,100.79123 288.04102,101.61154 C 288.82226,102.43186 289.21288,103.67535 289.21289,105.342 M 292.96289,96.386927 L 294.75977,96.386927 L 294.75977,111.58224 L 292.96289,111.58224 L 292.96289,96.386927 M 298.50977,96.386927 L 300.30664,96.386927 L 300.30664,111.58224 L 298.50977,111.58224 L 298.50977,96.386927 M 313.41211,105.66427 L 313.41211,106.54318 L 305.15039,106.54318 C 305.22851,107.78016 305.59961,108.72417 306.26367,109.37521 C 306.93424,110.01974 307.86523,110.34201 309.05664,110.342 C 309.74674,110.34201 310.41405,110.25737 311.05859,110.0881 C 311.70963,109.91883 312.35416,109.66492 312.99219,109.32638 L 312.99219,111.0256 C 312.34765,111.29904 311.68684,111.50737 311.00977,111.6506 C 310.33267,111.79383 309.64583,111.86544 308.94922,111.86544 C 307.20442,111.86544 305.82096,111.35763 304.79883,110.342 C 303.7832,109.32638 303.27539,107.95269 303.27539,106.22091 C 303.27539,104.43055 303.75716,103.01128 304.7207,101.9631 C 305.69075,100.90842 306.99609,100.38108 308.63672,100.38107 C 310.10806,100.38108 311.27017,100.85634 312.12305,101.80685 C 312.98241,102.75087 313.4121,104.03667 313.41211,105.66427 M 311.61523,105.13693 C 311.6022,104.15386 311.32551,103.36936 310.78516,102.78341 C 310.25129,102.19748 309.54166,101.90451 308.65625,101.9045 C 307.65364,101.90451 306.8496,102.18772 306.24414,102.75411 C 305.64518,103.32053 305.30013,104.11805 305.20898,105.14669 L 311.61523,105.13693 M 316.32227,96.386927 L 318.11914,96.386927 L 318.11914,111.58224 L 316.32227,111.58224 L 316.32227,96.386927 M 326.29297,97.002161 L 338.62695,97.002161 L 338.62695,98.662317 L 333.45117,98.662317 L 333.45117,111.58224 L 331.46875,111.58224 L 331.46875,98.662317 L 326.29297,98.662317 L 326.29297,97.002161 M 342.11328,106.08419 C 340.66145,106.0842 339.65559,106.25021 339.0957,106.58224 C 338.5358,106.91428 338.25586,107.48068 338.25586,108.28146 C 338.25586,108.91948 338.46419,109.42729 338.88086,109.8049 C 339.30403,110.17599 339.87695,110.36154 340.59961,110.36154 C 341.5957,110.36154 342.39322,110.00998 342.99219,109.30685 C 343.59765,108.59722 343.90038,107.65646 343.90039,106.48458 L 343.90039,106.08419 L 342.11328,106.08419 M 345.69727,105.342 L 345.69727,111.58224 L 343.90039,111.58224 L 343.90039,109.92208 C 343.49023,110.58615 342.97916,111.07768 342.36719,111.39669 C 341.7552,111.70919 341.0065,111.86544 340.12109,111.86544 C 339.0013,111.86544 338.10937,111.55294 337.44531,110.92794 C 336.78776,110.29643 336.45898,109.45334 336.45898,108.39865 C 336.45898,107.16818 336.86914,106.24045 337.68945,105.61544 C 338.51627,104.99045 339.74674,104.67795 341.38086,104.67794 L 343.90039,104.67794 L 343.90039,104.50216 C 343.90038,103.67535 343.62694,103.03733 343.08008,102.5881 C 342.53971,102.13238 341.77799,101.90451 340.79492,101.9045 C 340.16992,101.90451 339.56119,101.97938 338.96875,102.12911 C 338.3763,102.27886 337.80664,102.50347 337.25977,102.80294 L 337.25977,101.14279 C 337.91732,100.88889 338.55534,100.70009 339.17383,100.57638 C 339.79231,100.44618 340.39453,100.38108 340.98047,100.38107 C 342.56249,100.38108 343.74413,100.79123 344.52539,101.61154 C 345.30663,102.43186 345.69726,103.67535 345.69727,105.342 M 356.41992,100.967 L 356.41992,102.66622 C 355.9121,102.40582 355.38476,102.2105 354.83789,102.08029 C 354.29101,101.95009 353.7246,101.88498 353.13867,101.88497 C 352.24674,101.88498 351.57617,102.0217 351.12695,102.29513 C 350.68424,102.56858 350.46289,102.97873 350.46289,103.5256 C 350.46289,103.94227 350.62239,104.27105 350.94141,104.51193 C 351.26041,104.74631 351.90169,104.97092 352.86523,105.18575 L 353.48047,105.32247 C 354.7565,105.59592 355.66145,105.98329 356.19531,106.48458 C 356.73567,106.97938 357.00585,107.67274 357.00586,108.56466 C 357.00585,109.58029 356.6022,110.38432 355.79492,110.97677 C 354.99413,111.56922 353.89062,111.86544 352.48438,111.86544 C 351.89843,111.86544 351.28645,111.80685 350.64844,111.68966 C 350.01692,111.57898 349.34961,111.40971 348.64648,111.18185 L 348.64648,109.32638 C 349.31055,109.67143 349.96484,109.93185 350.60938,110.10763 C 351.2539,110.2769 351.89192,110.36154 352.52344,110.36154 C 353.36979,110.36154 354.02083,110.21831 354.47656,109.93185 C 354.93228,109.63888 355.16015,109.22873 355.16016,108.70138 C 355.16015,108.2131 354.99413,107.83875 354.66211,107.57833 C 354.33658,107.31792 353.61718,107.06727 352.50391,106.82638 L 351.87891,106.6799 C 350.76562,106.44553 349.96159,106.08745 349.4668,105.60568 C 348.972,105.1174 348.72461,104.45008 348.72461,103.60372 C 348.72461,102.57509 349.08919,101.78082 349.81836,101.22091 C 350.54752,100.66103 351.58268,100.38108 352.92383,100.38107 C 353.58788,100.38108 354.21288,100.42991 354.79883,100.52755 C 355.38476,100.62522 355.92512,100.7717 356.41992,100.967 M 359.76953,96.386927 L 361.57617,96.386927 L 361.57617,105.36154 L 366.9375,100.64474 L 369.23242,100.64474 L 363.43164,105.76193 L 369.47656,111.58224 L 367.13281,111.58224 L 361.57617,106.24044 L 361.57617,111.58224 L 359.76953,111.58224 L 359.76953,96.386927 M 377.8457,97.002161 L 379.81836,97.002161 L 379.81836,111.58224 L 377.8457,111.58224 L 377.8457,97.002161"
     id="flowRoot3374" />
  <path
     transform="translate(211.85699,101.57088)"
     style=""
     d="M 251.0293,98.623255 L 251.0293,104.10177 L 253.50977,104.10177 C 254.42773,104.10178 255.13736,103.86415 255.63867,103.38888 C 256.13996,102.91363 256.39062,102.23655 256.39062,101.35763 C 256.39062,100.48525 256.13996,99.811418 255.63867,99.336145 C 255.13736,98.860898 254.42773,98.623268 253.50977,98.623255 L 251.0293,98.623255 M 249.05664,97.002161 L 253.50977,97.002161 C 255.14387,97.002176 256.37759,97.373269 257.21094,98.115442 C 258.05077,98.851132 258.47069,99.93186 258.4707,101.35763 C 258.47069,102.79644 258.05077,103.88368 257.21094,104.61935 C 256.37759,105.35503 255.14387,105.72287 253.50977,105.72286 L 251.0293,105.72286 L 251.0293,111.58224 L 249.05664,111.58224 L 249.05664,97.002161 M 265.12109,106.08419 C 263.66927,106.0842 262.66341,106.25021 262.10352,106.58224 C 261.54362,106.91428 261.26367,107.48068 261.26367,108.28146 C 261.26367,108.91948 261.472,109.42729 261.88867,109.8049 C 262.31184,110.17599 262.88476,110.36154 263.60742,110.36154 C 264.60351,110.36154 265.40103,110.00998 266,109.30685 C 266.60546,108.59722 266.90819,107.65646 266.9082,106.48458 L 266.9082,106.08419 L 265.12109,106.08419 M 268.70508,105.342 L 268.70508,111.58224 L 266.9082,111.58224 L 266.9082,109.92208 C 266.49804,110.58615 265.98697,111.07768 265.375,111.39669 C 264.76301,111.70919 264.01432,111.86544 263.12891,111.86544 C 262.00911,111.86544 261.11718,111.55294 260.45312,110.92794 C 259.79557,110.29643 259.4668,109.45334 259.4668,108.39865 C 259.4668,107.16818 259.87695,106.24045 260.69727,105.61544 C 261.52409,104.99045 262.75455,104.67795 264.38867,104.67794 L 266.9082,104.67794 L 266.9082,104.50216 C 266.90819,103.67535 266.63476,103.03733 266.08789,102.5881 C 265.54752,102.13238 264.7858,101.90451 263.80273,101.9045 C 263.17773,101.90451 262.56901,101.97938 261.97656,102.12911 C 261.38411,102.27886 260.81445,102.50347 260.26758,102.80294 L 260.26758,101.14279 C 260.92513,100.88889 261.56315,100.70009 262.18164,100.57638 C 262.80013,100.44618 263.40234,100.38108 263.98828,100.38107 C 265.57031,100.38108 266.75194,100.79123 267.5332,101.61154 C 268.31444,102.43186 268.70507,103.67535 268.70508,105.342 M 278.79297,102.32443 C 278.59114,102.20725 278.36978,102.12261 278.12891,102.07052 C 277.89452,102.01194 277.63411,101.98264 277.34766,101.98263 C 276.33203,101.98264 275.55078,102.31467 275.00391,102.97872 C 274.46354,103.63628 274.19336,104.58355 274.19336,105.82052 L 274.19336,111.58224 L 272.38672,111.58224 L 272.38672,100.64474 L 274.19336,100.64474 L 274.19336,102.34396 C 274.57096,101.67991 275.0625,101.18837 275.66797,100.86935 C 276.27343,100.54384 277.00911,100.38108 277.875,100.38107 C 277.99869,100.38108 278.13541,100.39084 278.28516,100.41036 C 278.43489,100.4234 278.6009,100.44618 278.7832,100.47872 L 278.79297,102.32443 M 285.62891,106.08419 C 284.17708,106.0842 283.17122,106.25021 282.61133,106.58224 C 282.05143,106.91428 281.77148,107.48068 281.77148,108.28146 C 281.77148,108.91948 281.97981,109.42729 282.39648,109.8049 C 282.81966,110.17599 283.39257,110.36154 284.11523,110.36154 C 285.11132,110.36154 285.90885,110.00998 286.50781,109.30685 C 287.11327,108.59722 287.41601,107.65646 287.41602,106.48458 L 287.41602,106.08419 L 285.62891,106.08419 M 289.21289,105.342 L 289.21289,111.58224 L 287.41602,111.58224 L 287.41602,109.92208 C 287.00585,110.58615 286.49478,111.07768 285.88281,111.39669 C 285.27083,111.70919 284.52213,111.86544 283.63672,111.86544 C 282.51692,111.86544 281.625,111.55294 280.96094,110.92794 C 280.30338,110.29643 279.97461,109.45334 279.97461,108.39865 C 279.97461,107.16818 280.38476,106.24045 281.20508,105.61544 C 282.0319,104.99045 283.26237,104.67795 284.89648,104.67794 L 287.41602,104.67794 L 287.41602,104.50216 C 287.41601,103.67535 287.14257,103.03733 286.5957,102.5881 C 286.05533,102.13238 285.29361,101.90451 284.31055,101.9045 C 283.68554,101.90451 283.07682,101.97938 282.48438,102.12911 C 281.89192,102.27886 281.32226,102.50347 280.77539,102.80294 L 280.77539,101.14279 C 281.43294,100.88889 282.07096,100.70009 282.68945,100.57638 C 283.30794,100.44618 283.91015,100.38108 284.49609,100.38107 C 286.07812,100.38108 287.25976,100.79123 288.04102,101.61154 C 288.82226,102.43186 289.21288,103.67535 289.21289,105.342 M 292.96289,96.386927 L 294.75977,96.386927 L 294.75977,111.58224 L 292.96289,111.58224 L 292.96289,96.386927 M 298.50977,96.386927 L 300.30664,96.386927 L 300.30664,111.58224 L 298.50977,111.58224 L 298.50977,96.386927 M 313.41211,105.66427 L 313.41211,106.54318 L 305.15039,106.54318 C 305.22851,107.78016 305.59961,108.72417 306.26367,109.37521 C 306.93424,110.01974 307.86523,110.34201 309.05664,110.342 C 309.74674,110.34201 310.41405,110.25737 311.05859,110.0881 C 311.70963,109.91883 312.35416,109.66492 312.99219,109.32638 L 312.99219,111.0256 C 312.34765,111.29904 311.68684,111.50737 311.00977,111.6506 C 310.33267,111.79383 309.64583,111.86544 308.94922,111.86544 C 307.20442,111.86544 305.82096,111.35763 304.79883,110.342 C 303.7832,109.32638 303.27539,107.95269 303.27539,106.22091 C 303.27539,104.43055 303.75716,103.01128 304.7207,101.9631 C 305.69075,100.90842 306.99609,100.38108 308.63672,100.38107 C 310.10806,100.38108 311.27017,100.85634 312.12305,101.80685 C 312.98241,102.75087 313.4121,104.03667 313.41211,105.66427 M 311.61523,105.13693 C 311.6022,104.15386 311.32551,103.36936 310.78516,102.78341 C 310.25129,102.19748 309.54166,101.90451 308.65625,101.9045 C 307.65364,101.90451 306.8496,102.18772 306.24414,102.75411 C 305.64518,103.32053 305.30013,104.11805 305.20898,105.14669 L 311.61523,105.13693 M 316.32227,96.386927 L 318.11914,96.386927 L 318.11914,111.58224 L 316.32227,111.58224 L 316.32227,96.386927 M 326.29297,97.002161 L 338.62695,97.002161 L 338.62695,98.662317 L 333.45117,98.662317 L 333.45117,111.58224 L 331.46875,111.58224 L 331.46875,98.662317 L 326.29297,98.662317 L 326.29297,97.002161 M 342.11328,106.08419 C 340.66145,106.0842 339.65559,106.25021 339.0957,106.58224 C 338.5358,106.91428 338.25586,107.48068 338.25586,108.28146 C 338.25586,108.91948 338.46419,109.42729 338.88086,109.8049 C 339.30403,110.17599 339.87695,110.36154 340.59961,110.36154 C 341.5957,110.36154 342.39322,110.00998 342.99219,109.30685 C 343.59765,108.59722 343.90038,107.65646 343.90039,106.48458 L 343.90039,106.08419 L 342.11328,106.08419 M 345.69727,105.342 L 345.69727,111.58224 L 343.90039,111.58224 L 343.90039,109.92208 C 343.49023,110.58615 342.97916,111.07768 342.36719,111.39669 C 341.7552,111.70919 341.0065,111.86544 340.12109,111.86544 C 339.0013,111.86544 338.10937,111.55294 337.44531,110.92794 C 336.78776,110.29643 336.45898,109.45334 336.45898,108.39865 C 336.45898,107.16818 336.86914,106.24045 337.68945,105.61544 C 338.51627,104.99045 339.74674,104.67795 341.38086,104.67794 L 343.90039,104.67794 L 343.90039,104.50216 C 343.90038,103.67535 343.62694,103.03733 343.08008,102.5881 C 342.53971,102.13238 341.77799,101.90451 340.79492,101.9045 C 340.16992,101.90451 339.56119,101.97938 338.96875,102.12911 C 338.3763,102.27886 337.80664,102.50347 337.25977,102.80294 L 337.25977,101.14279 C 337.91732,100.88889 338.55534,100.70009 339.17383,100.57638 C 339.79231,100.44618 340.39453,100.38108 340.98047,100.38107 C 342.56249,100.38108 343.74413,100.79123 344.52539,101.61154 C 345.30663,102.43186 345.69726,103.67535 345.69727,105.342 M 356.41992,100.967 L 356.41992,102.66622 C 355.9121,102.40582 355.38476,102.2105 354.83789,102.08029 C 354.29101,101.95009 353.7246,101.88498 353.13867,101.88497 C 352.24674,101.88498 351.57617,102.0217 351.12695,102.29513 C 350.68424,102.56858 350.46289,102.97873 350.46289,103.5256 C 350.46289,103.94227 350.62239,104.27105 350.94141,104.51193 C 351.26041,104.74631 351.90169,104.97092 352.86523,105.18575 L 353.48047,105.32247 C 354.7565,105.59592 355.66145,105.98329 356.19531,106.48458 C 356.73567,106.97938 357.00585,107.67274 357.00586,108.56466 C 357.00585,109.58029 356.6022,110.38432 355.79492,110.97677 C 354.99413,111.56922 353.89062,111.86544 352.48438,111.86544 C 351.89843,111.86544 351.28645,111.80685 350.64844,111.68966 C 350.01692,111.57898 349.34961,111.40971 348.64648,111.18185 L 348.64648,109.32638 C 349.31055,109.67143 349.96484,109.93185 350.60938,110.10763 C 351.2539,110.2769 351.89192,110.36154 352.52344,110.36154 C 353.36979,110.36154 354.02083,110.21831 354.47656,109.93185 C 354.93228,109.63888 355.16015,109.22873 355.16016,108.70138 C 355.16015,108.2131 354.99413,107.83875 354.66211,107.57833 C 354.33658,107.31792 353.61718,107.06727 352.50391,106.82638 L 351.87891,106.6799 C 350.76562,106.44553 349.96159,106.08745 349.4668,105.60568 C 348.972,105.1174 348.72461,104.45008 348.72461,103.60372 C 348.72461,102.57509 349.08919,101.78082 349.81836,101.22091 C 350.54752,100.66103 351.58268,100.38108 352.92383,100.38107 C 353.58788,100.38108 354.21288,100.42991 354.79883,100.52755 C 355.38476,100.62522 355.92512,100.7717 356.41992,100.967 M 359.76953,96.386927 L 361.57617,96.386927 L 361.57617,105.36154 L 366.9375,100.64474 L 369.23242,100.64474 L 363.43164,105.76193 L 369.47656,111.58224 L 367.13281,111.58224 L 361.57617,106.24044 L 361.57617,111.58224 L 359.76953,111.58224 L 359.76953,96.386927 M 377.8457,97.002161 L 379.81836,97.002161 L 379.81836,111.58224 L 377.8457,111.58224 L 377.8457,97.002161 M 383.74414,97.002161 L 385.7168,97.002161 L 385.7168,111.58224 L 383.74414,111.58224 L 383.74414,97.002161"
     id="flowRoot3382" />
  <path
     transform="translate(503.61709,101.57088)"
     style=""
     d="M 251.0293,98.623255 L 251.0293,104.10177 L 253.50977,104.10177 C 254.42773,104.10178 255.13736,103.86415 255.63867,103.38888 C 256.13996,102.91363 256.39062,102.23655 256.39062,101.35763 C 256.39062,100.48525 256.13996,99.811418 255.63867,99.336145 C 255.13736,98.860898 254.42773,98.623268 253.50977,98.623255 L 251.0293,98.623255 M 249.05664,97.002161 L 253.50977,97.002161 C 255.14387,97.002176 256.37759,97.373269 257.21094,98.115442 C 258.05077,98.851132 258.47069,99.93186 258.4707,101.35763 C 258.47069,102.79644 258.05077,103.88368 257.21094,104.61935 C 256.37759,105.35503 255.14387,105.72287 253.50977,105.72286 L 251.0293,105.72286 L 251.0293,111.58224 L 249.05664,111.58224 L 249.05664,97.002161 M 265.12109,106.08419 C 263.66927,106.0842 262.66341,106.25021 262.10352,106.58224 C 261.54362,106.91428 261.26367,107.48068 261.26367,108.28146 C 261.26367,108.91948 261.472,109.42729 261.88867,109.8049 C 262.31184,110.17599 262.88476,110.36154 263.60742,110.36154 C 264.60351,110.36154 265.40103,110.00998 266,109.30685 C 266.60546,108.59722 266.90819,107.65646 266.9082,106.48458 L 266.9082,106.08419 L 265.12109,106.08419 M 268.70508,105.342 L 268.70508,111.58224 L 266.9082,111.58224 L 266.9082,109.92208 C 266.49804,110.58615 265.98697,111.07768 265.375,111.39669 C 264.76301,111.70919 264.01432,111.86544 263.12891,111.86544 C 262.00911,111.86544 261.11718,111.55294 260.45312,110.92794 C 259.79557,110.29643 259.4668,109.45334 259.4668,108.39865 C 259.4668,107.16818 259.87695,106.24045 260.69727,105.61544 C 261.52409,104.99045 262.75455,104.67795 264.38867,104.67794 L 266.9082,104.67794 L 266.9082,104.50216 C 266.90819,103.67535 266.63476,103.03733 266.08789,102.5881 C 265.54752,102.13238 264.7858,101.90451 263.80273,101.9045 C 263.17773,101.90451 262.56901,101.97938 261.97656,102.12911 C 261.38411,102.27886 260.81445,102.50347 260.26758,102.80294 L 260.26758,101.14279 C 260.92513,100.88889 261.56315,100.70009 262.18164,100.57638 C 262.80013,100.44618 263.40234,100.38108 263.98828,100.38107 C 265.57031,100.38108 266.75194,100.79123 267.5332,101.61154 C 268.31444,102.43186 268.70507,103.67535 268.70508,105.342 M 278.79297,102.32443 C 278.59114,102.20725 278.36978,102.12261 278.12891,102.07052 C 277.89452,102.01194 277.63411,101.98264 277.34766,101.98263 C 276.33203,101.98264 275.55078,102.31467 275.00391,102.97872 C 274.46354,103.63628 274.19336,104.58355 274.19336,105.82052 L 274.19336,111.58224 L 272.38672,111.58224 L 272.38672,100.64474 L 274.19336,100.64474 L 274.19336,102.34396 C 274.57096,101.67991 275.0625,101.18837 275.66797,100.86935 C 276.27343,100.54384 277.00911,100.38108 277.875,100.38107 C 277.99869,100.38108 278.13541,100.39084 278.28516,100.41036 C 278.43489,100.4234 278.6009,100.44618 278.7832,100.47872 L 278.79297,102.32443 M 285.62891,106.08419 C 284.17708,106.0842 283.17122,106.25021 282.61133,106.58224 C 282.05143,106.91428 281.77148,107.48068 281.77148,108.28146 C 281.77148,108.91948 281.97981,109.42729 282.39648,109.8049 C 282.81966,110.17599 283.39257,110.36154 284.11523,110.36154 C 285.11132,110.36154 285.90885,110.00998 286.50781,109.30685 C 287.11327,108.59722 287.41601,107.65646 287.41602,106.48458 L 287.41602,106.08419 L 285.62891,106.08419 M 289.21289,105.342 L 289.21289,111.58224 L 287.41602,111.58224 L 287.41602,109.92208 C 287.00585,110.58615 286.49478,111.07768 285.88281,111.39669 C 285.27083,111.70919 284.52213,111.86544 283.63672,111.86544 C 282.51692,111.86544 281.625,111.55294 280.96094,110.92794 C 280.30338,110.29643 279.97461,109.45334 279.97461,108.39865 C 279.97461,107.16818 280.38476,106.24045 281.20508,105.61544 C 282.0319,104.99045 283.26237,104.67795 284.89648,104.67794 L 287.41602,104.67794 L 287.41602,104.50216 C 287.41601,103.67535 287.14257,103.03733 286.5957,102.5881 C 286.05533,102.13238 285.29361,101.90451 284.31055,101.9045 C 283.68554,101.90451 283.07682,101.97938 282.48438,102.12911 C 281.89192,102.27886 281.32226,102.50347 280.77539,102.80294 L 280.77539,101.14279 C 281.43294,100.88889 282.07096,100.70009 282.68945,100.57638 C 283.30794,100.44618 283.91015,100.38108 284.49609,100.38107 C 286.07812,100.38108 287.25976,100.79123 288.04102,101.61154 C 288.82226,102.43186 289.21288,103.67535 289.21289,105.342 M 292.96289,96.386927 L 294.75977,96.386927 L 294.75977,111.58224 L 292.96289,111.58224 L 292.96289,96.386927 M 298.50977,96.386927 L 300.30664,96.386927 L 300.30664,111.58224 L 298.50977,111.58224 L 298.50977,96.386927 M 313.41211,105.66427 L 313.41211,106.54318 L 305.15039,106.54318 C 305.22851,107.78016 305.59961,108.72417 306.26367,109.37521 C 306.93424,110.01974 307.86523,110.34201 309.05664,110.342 C 309.74674,110.34201 310.41405,110.25737 311.05859,110.0881 C 311.70963,109.91883 312.35416,109.66492 312.99219,109.32638 L 312.99219,111.0256 C 312.34765,111.29904 311.68684,111.50737 311.00977,111.6506 C 310.33267,111.79383 309.64583,111.86544 308.94922,111.86544 C 307.20442,111.86544 305.82096,111.35763 304.79883,110.342 C 303.7832,109.32638 303.27539,107.95269 303.27539,106.22091 C 303.27539,104.43055 303.75716,103.01128 304.7207,101.9631 C 305.69075,100.90842 306.99609,100.38108 308.63672,100.38107 C 310.10806,100.38108 311.27017,100.85634 312.12305,101.80685 C 312.98241,102.75087 313.4121,104.03667 313.41211,105.66427 M 311.61523,105.13693 C 311.6022,104.15386 311.32551,103.36936 310.78516,102.78341 C 310.25129,102.19748 309.54166,101.90451 308.65625,101.9045 C 307.65364,101.90451 306.8496,102.18772 306.24414,102.75411 C 305.64518,103.32053 305.30013,104.11805 305.20898,105.14669 L 311.61523,105.13693 M 316.32227,96.386927 L 318.11914,96.386927 L 318.11914,111.58224 L 316.32227,111.58224 L 316.32227,96.386927 M 326.29297,97.002161 L 338.62695,97.002161 L 338.62695,98.662317 L 333.45117,98.662317 L 333.45117,111.58224 L 331.46875,111.58224 L 331.46875,98.662317 L 326.29297,98.662317 L 326.29297,97.002161 M 342.11328,106.08419 C 340.66145,106.0842 339.65559,106.25021 339.0957,106.58224 C 338.5358,106.91428 338.25586,107.48068 338.25586,108.28146 C 338.25586,108.91948 338.46419,109.42729 338.88086,109.8049 C 339.30403,110.17599 339.87695,110.36154 340.59961,110.36154 C 341.5957,110.36154 342.39322,110.00998 342.99219,109.30685 C 343.59765,108.59722 343.90038,107.65646 343.90039,106.48458 L 343.90039,106.08419 L 342.11328,106.08419 M 345.69727,105.342 L 345.69727,111.58224 L 343.90039,111.58224 L 343.90039,109.92208 C 343.49023,110.58615 342.97916,111.07768 342.36719,111.39669 C 341.7552,111.70919 341.0065,111.86544 340.12109,111.86544 C 339.0013,111.86544 338.10937,111.55294 337.44531,110.92794 C 336.78776,110.29643 336.45898,109.45334 336.45898,108.39865 C 336.45898,107.16818 336.86914,106.24045 337.68945,105.61544 C 338.51627,104.99045 339.74674,104.67795 341.38086,104.67794 L 343.90039,104.67794 L 343.90039,104.50216 C 343.90038,103.67535 343.62694,103.03733 343.08008,102.5881 C 342.53971,102.13238 341.77799,101.90451 340.79492,101.9045 C 340.16992,101.90451 339.56119,101.97938 338.96875,102.12911 C 338.3763,102.27886 337.80664,102.50347 337.25977,102.80294 L 337.25977,101.14279 C 337.91732,100.88889 338.55534,100.70009 339.17383,100.57638 C 339.79231,100.44618 340.39453,100.38108 340.98047,100.38107 C 342.56249,100.38108 343.74413,100.79123 344.52539,101.61154 C 345.30663,102.43186 345.69726,103.67535 345.69727,105.342 M 356.41992,100.967 L 356.41992,102.66622 C 355.9121,102.40582 355.38476,102.2105 354.83789,102.08029 C 354.29101,101.95009 353.7246,101.88498 353.13867,101.88497 C 352.24674,101.88498 351.57617,102.0217 351.12695,102.29513 C 350.68424,102.56858 350.46289,102.97873 350.46289,103.5256 C 350.46289,103.94227 350.62239,104.27105 350.94141,104.51193 C 351.26041,104.74631 351.90169,104.97092 352.86523,105.18575 L 353.48047,105.32247 C 354.7565,105.59592 355.66145,105.98329 356.19531,106.48458 C 356.73567,106.97938 357.00585,107.67274 357.00586,108.56466 C 357.00585,109.58029 356.6022,110.38432 355.79492,110.97677 C 354.99413,111.56922 353.89062,111.86544 352.48438,111.86544 C 351.89843,111.86544 351.28645,111.80685 350.64844,111.68966 C 350.01692,111.57898 349.34961,111.40971 348.64648,111.18185 L 348.64648,109.32638 C 349.31055,109.67143 349.96484,109.93185 350.60938,110.10763 C 351.2539,110.2769 351.89192,110.36154 352.52344,110.36154 C 353.36979,110.36154 354.02083,110.21831 354.47656,109.93185 C 354.93228,109.63888 355.16015,109.22873 355.16016,108.70138 C 355.16015,108.2131 354.99413,107.83875 354.66211,107.57833 C 354.33658,107.31792 353.61718,107.06727 352.50391,106.82638 L 351.87891,106.6799 C 350.76562,106.44553 349.96159,106.08745 349.4668,105.60568 C 348.972,105.1174 348.72461,104.45008 348.72461,103.60372 C 348.72461,102.57509 349.08919,101.78082 349.81836,101.22091 C 350.54752,100.66103 351.58268,100.38108 352.92383,100.38107 C 353.58788,100.38108 354.21288,100.42991 354.79883,100.52755 C 355.38476,100.62522 355.92512,100.7717 356.41992,100.967 M 359.76953,96.386927 L 361.57617,96.386927 L 361.57617,105.36154 L 366.9375,100.64474 L 369.23242,100.64474 L 363.43164,105.76193 L 369.47656,111.58224 L 367.13281,111.58224 L 361.57617,106.24044 L 361.57617,111.58224 L 359.76953,111.58224 L 359.76953,96.386927 M 377.8457,97.002161 L 379.81836,97.002161 L 379.81836,111.58224 L 377.8457,111.58224 L 377.8457,97.002161 M 383.74414,97.002161 L 385.7168,97.002161 L 385.7168,111.58224 L 383.74414,111.58224 L 383.74414,97.002161 M 389.64258,97.002161 L 391.61523,97.002161 L 391.61523,111.58224 L 389.64258,111.58224 L 389.64258,97.002161"
     id="flowRoot3390" />
  <path
     style="font-size:20px;font-style:normal;font-weight:normal;fill:#000000;fill-opacity:1;stroke:none;stroke-width:1px;stroke-linecap:butt;stroke-linejoin:miter;stroke-opacity:1;font-family:Bitstream Vera Sans"
     d="M 16,251.34625 L 18.939453,251.34625 L 22.660156,261.26813 L 26.400391,251.34625 L 29.339844,251.34625 L 29.339844,265.92633 L 27.416016,265.92633 L 27.416016,253.1236 L 23.65625,263.1236 L 21.673828,263.1236 L 17.914062,253.1236 L 17.914062,265.92633 L 16,265.92633 L 16,251.34625 M 38.119141,260.42828 C 36.667312,260.42829 35.661454,260.5943 35.101562,260.92633 C 34.541663,261.25837 34.261716,261.82477 34.261719,262.62555 C 34.261716,263.26357 34.470049,263.77138 34.886719,264.14899 C 35.309892,264.52008 35.882808,264.70563 36.605469,264.70563 C 37.601556,264.70563 38.399081,264.35407 38.998047,263.65094 C 39.603507,262.94131 39.906241,262.00055 39.90625,260.82867 L 39.90625,260.42828 L 38.119141,260.42828 M 41.703125,259.6861 L 41.703125,265.92633 L 39.90625,265.92633 L 39.90625,264.26617 C 39.496086,264.93024 38.985018,265.42177 38.373047,265.74078 C 37.761061,266.05328 37.012364,266.20953 36.126953,266.20953 C 35.007158,266.20953 34.115232,265.89703 33.451172,265.27203 C 32.793618,264.64052 32.464843,263.79743 32.464844,262.74274 C 32.464843,261.51227 32.874998,260.58454 33.695312,259.95953 C 34.522132,259.33454 35.7526,259.02204 37.386719,259.02203 L 39.90625,259.02203 L 39.90625,258.84625 C 39.906241,258.01944 39.632804,257.38142 39.085938,256.93219 C 38.545566,256.47647 37.783848,256.24861 36.800781,256.2486 C 36.175776,256.24861 35.567053,256.32348 34.974609,256.47321 C 34.382158,256.62295 33.812497,256.84756 33.265625,257.14703 L 33.265625,255.48688 C 33.923174,255.23298 34.561195,255.04418 35.179688,254.92047 C 35.798173,254.79027 36.400385,254.72517 36.986328,254.72516 C 38.568352,254.72517 39.749992,255.13533 40.53125,255.95563 C 41.31249,256.77595 41.703115,258.01944 41.703125,259.6861 M 52.425781,255.3111 L 52.425781,257.01031 C 51.91796,256.74991 51.390617,256.5546 50.84375,256.42438 C 50.296868,256.29418 49.730463,256.22907 49.144531,256.22906 C 48.252599,256.22907 47.582027,256.36579 47.132812,256.63922 C 46.690101,256.91267 46.468747,257.32282 46.46875,257.86969 C 46.468747,258.28636 46.628252,258.61514 46.947266,258.85602 C 47.266272,259.0904 47.907548,259.31501 48.871094,259.52985 L 49.486328,259.66656 C 50.762363,259.94001 51.66731,260.32738 52.201172,260.82867 C 52.741527,261.32347 53.011709,262.01683 53.011719,262.90875 C 53.011709,263.92438 52.608064,264.72842 51.800781,265.32086 C 50.999993,265.91331 49.896478,266.20953 48.490234,266.20953 C 47.904293,266.20953 47.292314,266.15094 46.654297,266.03375 C 46.022784,265.92308 45.355467,265.7538 44.652344,265.52594 L 44.652344,263.67047 C 45.316405,264.01553 45.970701,264.27594 46.615234,264.45172 C 47.259762,264.62099 47.897782,264.70563 48.529297,264.70563 C 49.375645,264.70563 50.026686,264.5624 50.482422,264.27594 C 50.938144,263.98297 51.166008,263.57282 51.166016,263.04547 C 51.166008,262.55719 50.999993,262.18284 50.667969,261.92242 C 50.342441,261.66201 49.623041,261.41136 48.509766,261.17047 L 47.884766,261.02399 C 46.771481,260.78962 45.967446,260.43154 45.472656,259.94977 C 44.977863,259.46149 44.730468,258.79418 44.730469,257.94781 C 44.730468,256.91918 45.095051,256.12491 45.824219,255.565 C 46.553382,255.00512 47.588538,254.72517 48.929688,254.72516 C 49.593744,254.72517 50.218743,254.774 50.804688,254.87164 C 51.390617,254.96931 51.930981,255.11579 52.425781,255.3111 M 57.621094,251.88336 L 57.621094,254.98883 L 61.322266,254.98883 L 61.322266,256.38531 L 57.621094,256.38531 L 57.621094,262.32281 C 57.62109,263.21474 57.741533,263.78766 57.982422,264.04156 C 58.229813,264.29547 58.72786,264.42243 59.476562,264.42242 L 61.322266,264.42242 L 61.322266,265.92633 L 59.476562,265.92633 C 58.08984,265.92633 57.132809,265.66917 56.605469,265.15485 C 56.078123,264.63401 55.814451,263.69 55.814453,262.32281 L 55.814453,256.38531 L 54.496094,256.38531 L 54.496094,254.98883 L 55.814453,254.98883 L 55.814453,251.88336 L 57.621094,251.88336 M 73.050781,260.00836 L 73.050781,260.88727 L 64.789062,260.88727 C 64.867184,262.12425 65.238278,263.06826 65.902344,263.7193 C 66.572912,264.36383 67.503901,264.6861 68.695312,264.6861 C 69.385409,264.6861 70.052726,264.60146 70.697266,264.43219 C 71.348298,264.26292 71.992828,264.00901 72.630859,263.67047 L 72.630859,265.36969 C 71.986318,265.64313 71.325511,265.85146 70.648438,265.99469 C 69.971346,266.13792 69.284498,266.20953 68.587891,266.20953 C 66.843094,266.20953 65.459632,265.70172 64.4375,264.6861 C 63.421873,263.67047 62.914061,262.29678 62.914062,260.565 C 62.914061,258.77465 63.395832,257.35538 64.359375,256.30719 C 65.329424,255.25251 66.634761,254.72517 68.275391,254.72516 C 69.746737,254.72517 70.908845,255.20043 71.761719,256.15094 C 72.621083,257.09496 73.05077,258.38077 73.050781,260.00836 M 71.253906,259.48102 C 71.240876,258.49795 70.964184,257.71345 70.423828,257.1275 C 69.889966,256.54157 69.180331,256.24861 68.294922,256.2486 C 67.292312,256.24861 66.488277,256.53181 65.882812,257.09821 C 65.283851,257.66462 64.938799,258.46215 64.847656,259.49078 L 71.253906,259.48102 M 82.298828,256.66852 C 82.096997,256.55134 81.875643,256.4667 81.634766,256.41461 C 81.400383,256.35603 81.139967,256.32673 80.853516,256.32672 C 79.837885,256.32673 79.056636,256.65876 78.509766,257.32281 C 77.969397,257.98037 77.699215,258.92764 77.699219,260.16461 L 77.699219,265.92633 L 75.892578,265.92633 L 75.892578,254.98883 L 77.699219,254.98883 L 77.699219,256.68805 C 78.076819,256.024 78.568355,255.53246 79.173828,255.21344 C 79.779291,254.88793 80.514968,254.72517 81.380859,254.72516 C 81.50455,254.72517 81.641268,254.73494 81.791016,254.75446 C 81.940747,254.76749 82.106763,254.79027 82.289062,254.82281 L 82.298828,256.66852 M 88.587891,251.34625 L 100.92188,251.34625 L 100.92188,253.00641 L 95.746094,253.00641 L 95.746094,265.92633 L 93.763672,265.92633 L 93.763672,253.00641 L 88.587891,253.00641 L 88.587891,251.34625 M 111.84961,259.32477 L 111.84961,265.92633 L 110.05273,265.92633 L 110.05273,259.38336 C 110.05273,258.34821 109.8509,257.57347 109.44727,257.05914 C 109.04361,256.54483 108.43814,256.28767 107.63086,256.28766 C 106.6608,256.28767 105.89583,256.59691 105.33594,257.21539 C 104.77604,257.83389 104.49609,258.67699 104.49609,259.74469 L 104.49609,265.92633 L 102.68945,265.92633 L 102.68945,250.73102 L 104.49609,250.73102 L 104.49609,256.68805 C 104.92578,256.03051 105.43033,255.53897 106.00977,255.21344 C 106.5957,254.88793 107.26952,254.72517 108.03125,254.72516 C 109.28775,254.72517 110.23827,255.11579 110.88281,255.89703 C 111.52733,256.67178 111.8496,257.81436 111.84961,259.32477 M 121.79102,256.66852 C 121.58918,256.55134 121.36783,256.4667 121.12695,256.41461 C 120.89257,256.35603 120.63215,256.32673 120.3457,256.32672 C 119.33007,256.32673 118.54882,256.65876 118.00195,257.32281 C 117.46158,257.98037 117.1914,258.92764 117.19141,260.16461 L 117.19141,265.92633 L 115.38477,265.92633 L 115.38477,254.98883 L 117.19141,254.98883 L 117.19141,256.68805 C 117.56901,256.024 118.06054,255.53246 118.66602,255.21344 C 119.27148,254.88793 120.00716,254.72517 120.87305,254.72516 C 120.99674,254.72517 121.13346,254.73494 121.2832,254.75446 C 121.43293,254.76749 121.59895,254.79027 121.78125,254.82281 L 121.79102,256.66852 M 132.58203,260.00836 L 132.58203,260.88727 L 124.32031,260.88727 C 124.39843,262.12425 124.76953,263.06826 125.43359,263.7193 C 126.10416,264.36383 127.03515,264.6861 128.22656,264.6861 C 128.91666,264.6861 129.58398,264.60146 130.22852,264.43219 C 130.87955,264.26292 131.52408,264.00901 132.16211,263.67047 L 132.16211,265.36969 C 131.51757,265.64313 130.85676,265.85146 130.17969,265.99469 C 129.5026,266.13792 128.81575,266.20953 128.11914,266.20953 C 126.37434,266.20953 124.99088,265.70172 123.96875,264.6861 C 122.95312,263.67047 122.44531,262.29678 122.44531,260.565 C 122.44531,258.77465 122.92708,257.35538 123.89062,256.30719 C 124.86067,255.25251 126.16601,254.72517 127.80664,254.72516 C 129.27799,254.72517 130.4401,255.20043 131.29297,256.15094 C 132.15233,257.09496 132.58202,258.38077 132.58203,260.00836 M 130.78516,259.48102 C 130.77213,258.49795 130.49543,257.71345 129.95508,257.1275 C 129.42122,256.54157 128.71158,256.24861 127.82617,256.2486 C 126.82356,256.24861 126.01953,256.53181 125.41406,257.09821 C 124.8151,257.66462 124.47005,258.46215 124.37891,259.49078 L 130.78516,259.48102 M 140.46289,260.42828 C 139.01106,260.42829 138.0052,260.5943 137.44531,260.92633 C 136.88541,261.25837 136.60547,261.82477 136.60547,262.62555 C 136.60547,263.26357 136.8138,263.77138 137.23047,264.14899 C 137.65364,264.52008 138.22656,264.70563 138.94922,264.70563 C 139.94531,264.70563 140.74283,264.35407 141.3418,263.65094 C 141.94726,262.94131 142.24999,262.00055 142.25,260.82867 L 142.25,260.42828 L 140.46289,260.42828 M 144.04688,259.6861 L 144.04688,265.92633 L 142.25,265.92633 L 142.25,264.26617 C 141.83984,264.93024 141.32877,265.42177 140.7168,265.74078 C 140.10481,266.05328 139.35611,266.20953 138.4707,266.20953 C 137.35091,266.20953 136.45898,265.89703 135.79492,265.27203 C 135.13737,264.64052 134.80859,263.79743 134.80859,262.74274 C 134.80859,261.51227 135.21875,260.58454 136.03906,259.95953 C 136.86588,259.33454 138.09635,259.02204 139.73047,259.02203 L 142.25,259.02203 L 142.25,258.84625 C 142.24999,258.01944 141.97655,257.38142 141.42969,256.93219 C 140.88932,256.47647 140.1276,256.24861 139.14453,256.2486 C 138.51953,256.24861 137.9108,256.32348 137.31836,256.47321 C 136.72591,256.62295 136.15625,256.84756 135.60938,257.14703 L 135.60938,255.48688 C 136.26692,255.23298 136.90494,255.04418 137.52344,254.92047 C 138.14192,254.79027 138.74414,254.72517 139.33008,254.72516 C 140.9121,254.72517 142.09374,255.13533 142.875,255.95563 C 143.65624,256.77595 144.04686,258.01944 144.04688,259.6861 M 154.99414,256.64899 L 154.99414,250.73102 L 156.79102,250.73102 L 156.79102,265.92633 L 154.99414,265.92633 L 154.99414,264.28571 C 154.61653,264.93675 154.13801,265.42177 153.55859,265.74078 C 152.98567,266.05328 152.29557,266.20953 151.48828,266.20953 C 150.16666,266.20953 149.08919,265.68219 148.25586,264.6275 C 147.42903,263.57282 147.01562,262.1861 147.01562,260.46735 C 147.01562,258.7486 147.42903,257.36189 148.25586,256.30719 C 149.08919,255.25251 150.16666,254.72517 151.48828,254.72516 C 152.29557,254.72517 152.98567,254.88467 153.55859,255.20367 C 154.13801,255.51618 154.61653,255.99796 154.99414,256.64899 M 148.87109,260.46735 C 148.87109,261.78896 149.14127,262.82738 149.68164,263.58258 C 150.22851,264.33128 150.97721,264.70563 151.92773,264.70563 C 152.87825,264.70563 153.62695,264.33128 154.17383,263.58258 C 154.72069,262.82738 154.99413,261.78896 154.99414,260.46735 C 154.99413,259.14574 154.72069,258.11058 154.17383,257.36188 C 153.62695,256.60668 152.87825,256.22907 151.92773,256.22906 C 150.97721,256.22907 150.22851,256.60668 149.68164,257.36188 C 149.14127,258.11058 148.87109,259.14574 148.87109,260.46735"
     id="text3398" />
  <path
     id="path3406"
     d="M 236.95803,243.07807 L 235.35256,247.43158 L 238.56936,247.43158 L 236.95803,243.07807 M 236.29006,241.91205 L 237.63186,241.91205 L 240.96585,250.6601 L 239.73538,250.6601 L 238.9385,248.41596 L 234.99514,248.41596 L 234.19827,250.6601 L 232.95022,250.6601 L 236.29006,241.91205" />
  <path
     id="path3408"
     d="M 235.03909,324.30516 L 235.03909,327.51023 L 236.93753,327.51023 C 237.57424,327.51023 238.04494,327.37938 238.34964,327.11766 C 238.65822,326.85203 238.81252,326.44774 238.81253,325.90476 C 238.81252,325.35789 238.65822,324.95555 238.34964,324.69773 C 238.04494,324.43602 237.57424,324.30516 236.93753,324.30516 L 235.03909,324.30516 M 235.03909,320.7075 L 235.03909,323.34422 L 236.79104,323.34422 C 237.36916,323.34422 237.79885,323.2368 238.0801,323.02195 C 238.36525,322.80321 238.50783,322.47118 238.50784,322.02586 C 238.50783,321.58446 238.36525,321.25438 238.0801,321.03562 C 237.79885,320.81688 237.36916,320.70751 236.79104,320.7075 L 235.03909,320.7075 M 233.85549,319.73484 L 236.87893,319.73484 C 237.78127,319.73485 238.47658,319.92235 238.96487,320.29734 C 239.45314,320.67235 239.69728,321.20555 239.69729,321.89695 C 239.69728,322.43211 239.57228,322.8579 239.32229,323.1743 C 239.07228,323.49071 238.7051,323.68797 238.22073,323.76609 C 238.80275,323.8911 239.25393,324.15282 239.57424,324.55125 C 239.89846,324.94578 240.06057,325.43992 240.06057,326.03367 C 240.06057,326.81492 239.79494,327.41844 239.2637,327.84422 C 238.73244,328.27 237.97658,328.48289 236.99612,328.48289 L 233.85549,328.48289 L 233.85549,319.73484" />
  <path
     id="path3410"
     d="M 240.48538,396.91761 L 240.48538,398.16566 C 240.08693,397.79457 239.66115,397.51723 239.20803,397.33363 C 238.75881,397.15004 238.28029,397.05824 237.77248,397.05824 C 236.77248,397.05824 236.00686,397.36488 235.47561,397.97816 C 234.94436,398.58754 234.67873,399.47035 234.67874,400.6266 C 234.67873,401.77894 234.94436,402.66175 235.47561,403.27503 C 236.00686,403.88441 236.77248,404.1891 237.77248,404.1891 C 238.28029,404.1891 238.75881,404.0973 239.20803,403.9137 C 239.66115,403.73011 240.08693,403.45277 240.48538,403.08167 L 240.48538,404.318 C 240.07131,404.59925 239.63185,404.81019 239.16702,404.95081 C 238.70607,405.09144 238.21779,405.16175 237.70217,405.16175 C 236.37795,405.16175 235.33498,404.75746 234.57327,403.94886 C 233.81155,403.13636 233.43069,402.02894 233.43069,400.6266 C 233.43069,399.22035 233.81155,398.11293 234.57327,397.30433 C 235.33498,396.49184 236.37795,396.08559 237.70217,396.08558 C 238.2256,396.08559 238.71779,396.1559 239.17874,396.29652 C 239.64357,396.43324 240.07912,396.64028 240.48538,396.91761" />
  <path
     id="path3414"
     style="font-size:12px;font-style:normal;font-weight:normal;fill:#000000;fill-opacity:1;stroke:none;stroke-width:1px;stroke-linecap:butt;stroke-linejoin:miter;stroke-opacity:1;font-family:Bitstream Vera Sans"
     d="M 526.88027,397.37703 L 526.88027,404.17977 L 528.30995,404.17977 C 529.51698,404.17977 530.39979,403.90633 530.95839,403.35944 C 531.52089,402.81257 531.80213,401.9493 531.80214,400.76961 C 531.80213,399.59774 531.52089,398.74032 530.95839,398.19734 C 530.39979,397.65048 529.51698,397.37704 528.30995,397.37703 L 526.88027,397.37703 M 525.69667,396.40436 L 528.12832,396.40436 C 529.82362,396.40437 531.06777,396.7579 531.86073,397.46491 C 532.65369,398.16805 533.05018,399.26961 533.0502,400.76961 C 533.05018,402.27742 532.65174,403.38484 531.85487,404.09187 C 531.058,404.79891 529.81581,405.15242 528.12832,405.15242 L 525.69667,405.15242 L 525.69667,396.40436" />
  <path
     id="path3416"
     d="M 529.37343,243.23274 L 527.76796,247.58625 L 530.98476,247.58625 L 529.37343,243.23274 M 528.70546,242.06672 L 530.04726,242.06672 L 533.38125,250.81477 L 532.15078,250.81477 L 531.3539,248.57063 L 527.41054,248.57063 L 526.61367,250.81477 L 525.36562,250.81477 L 528.70546,242.06672" />
  <path
     id="path3418"
     d="M 528.03156,298.08293 L 528.03156,301.288 L 529.93,301.288 C 530.56671,301.288 531.03741,301.15715 531.34211,300.89543 C 531.65069,300.6298 531.80499,300.22551 531.805,299.68253 C 531.80499,299.13566 531.65069,298.73332 531.34211,298.4755 C 531.03741,298.21379 530.56671,298.08293 529.93,298.08293 L 528.03156,298.08293 M 528.03156,294.48527 L 528.03156,297.12199 L 529.78351,297.12199 C 530.36163,297.12199 530.79132,297.01457 531.07257,296.79972 C 531.35772,296.58098 531.5003,296.24895 531.50031,295.80363 C 531.5003,295.36223 531.35772,295.03215 531.07257,294.81339 C 530.79132,294.59465 530.36163,294.48528 529.78351,294.48527 L 528.03156,294.48527 M 526.84796,293.51261 L 529.8714,293.51261 C 530.77374,293.51262 531.46905,293.70012 531.95734,294.07511 C 532.44561,294.45012 532.68975,294.98332 532.68976,295.67472 C 532.68975,296.20988 532.56475,296.63567 532.31476,296.95207 C 532.06475,297.26848 531.69757,297.46574 531.2132,297.54386 C 531.79522,297.66887 532.2464,297.93059 532.56671,298.32902 C 532.89093,298.72355 533.05304,299.21769 533.05304,299.81144 C 533.05304,300.59269 532.78741,301.19621 532.25617,301.62199 C 531.72491,302.04777 530.96905,302.26066 529.98859,302.26066 L 526.84796,302.26066 L 526.84796,293.51261" />
  <path
     id="path3420"
     d="M 532.90078,345.62644 L 532.90078,346.87449 C 532.50233,346.5034 532.07655,346.22606 531.62343,346.04246 C 531.17421,345.85887 530.69569,345.76707 530.18788,345.76707 C 529.18788,345.76707 528.42226,346.07371 527.89101,346.68699 C 527.35976,347.29637 527.09413,348.17918 527.09414,349.33543 C 527.09413,350.48777 527.35976,351.37058 527.89101,351.98386 C 528.42226,352.59324 529.18788,352.89793 530.18788,352.89793 C 530.69569,352.89793 531.17421,352.80613 531.62343,352.62253 C 532.07655,352.43894 532.50233,352.1616 532.90078,351.7905 L 532.90078,353.02683 C 532.48671,353.30808 532.04725,353.51902 531.58242,353.65964 C 531.12147,353.80027 530.63319,353.87058 530.11757,353.87058 C 528.79335,353.87058 527.75038,353.46629 526.98867,352.65769 C 526.22695,351.84519 525.84609,350.73777 525.84609,349.33543 C 525.84609,347.92918 526.22695,346.82176 526.98867,346.01316 C 527.75038,345.20067 528.79335,344.79442 530.11757,344.79441 C 530.641,344.79442 531.13319,344.86473 531.59414,345.00535 C 532.05897,345.14207 532.49452,345.34911 532.90078,345.62644" />
  <path
     id="path3422"
     d="M 823.95302,277.20125 L 822.34755,281.55475 L 825.56435,281.55475 L 823.95302,277.20125 M 823.28505,276.03522 L 824.62685,276.03522 L 827.96084,284.78328 L 826.73037,284.78328 L 825.93349,282.53914 L 821.99013,282.53914 L 821.19326,284.78328 L 819.94521,284.78328 L 823.28505,276.03522" />
  <path
     id="path3424"
     d="M 822.03409,351.38233 L 822.03409,354.5874 L 823.93253,354.5874 C 824.56923,354.5874 825.03993,354.45655 825.34464,354.19483 C 825.65322,353.9292 825.80751,353.52491 825.80752,352.98193 C 825.80751,352.43506 825.65322,352.03272 825.34464,351.7749 C 825.03993,351.51319 824.56923,351.38233 823.93253,351.38233 L 822.03409,351.38233 M 822.03409,347.78467 L 822.03409,350.42139 L 823.78603,350.42139 C 824.36415,350.42139 824.79385,350.31397 825.07509,350.09912 C 825.36025,349.88038 825.50282,349.54835 825.50283,349.10303 C 825.50282,348.66163 825.36025,348.33155 825.07509,348.11279 C 824.79385,347.89405 824.36415,347.78468 823.78603,347.78467 L 822.03409,347.78467 M 820.85049,346.81201 L 823.87392,346.81201 C 824.77626,346.81202 825.47157,346.99952 825.95986,347.37451 C 826.44813,347.74952 826.69227,348.28272 826.69229,348.97412 C 826.69227,349.50928 826.56727,349.93507 826.31729,350.25147 C 826.06727,350.56788 825.70009,350.76514 825.21572,350.84326 C 825.79775,350.96827 826.24892,351.22999 826.56923,351.62842 C 826.89346,352.02295 827.05556,352.51709 827.05556,353.11084 C 827.05556,353.89209 826.78993,354.49561 826.2587,354.92139 C 825.72743,355.34717 824.97157,355.56006 823.99111,355.56006 L 820.85049,355.56006 L 820.85049,346.81201" />
  <path
     id="path7892"
     style="fill:none;fill-opacity:1;fill-rule:evenodd;stroke:#7664bb;stroke-width:13.5;stroke-linecap:round;stroke-linejoin:round;stroke-miterlimit:4;stroke-opacity:0.19459456"
     d="M 42.728801,323.92689 L 126.32507,323.92689 C 133.28565,323.92689 137.74922,318.97357 139.47279,314.50996 L 175.37064,252.33308 C 177.5841,248.49925 183.22098,246.14079 186.09598,246.14079 L 287.47614,246.14079 C 291.63251,246.14079 295.69105,247.5474 297.99435,251.53683 L 335.42613,315.97254 C 339.50118,323.03074 345.56969,324.2116 345.56969,324.2116 L 416.43474,324.2116 C 424.94943,324.2116 427.17777,323.13462 431.61659,315.44636 L 468.14773,252.17257 C 470.66467,247.81309 471.64031,246.54064 477.90253,246.54064 L 581.01487,246.54064 C 584.0788,246.54064 588.23679,247.72674 589.99243,250.7676 L 629.08417,318.47647 C 631.99965,323.52622 632.96559,323.6945 638.12207,323.6945 L 710.02112,323.6945 C 722.52682,323.6945 725.01273,319.74891 730.3694,314.39224 L 761.36078,284.68559 C 764.14642,281.89995 771.29072,280.45087 771.29072,280.45087 L 875.52382,280.35143 C 881.00389,280.35143 883.18242,281.24833 886.43977,284.50568 L 921.76468,317.73711 C 924.86237,320.8348 927.08651,323.67461 932.48343,323.67461 L 1021.7959,323.67461"
     sodipodi:nodetypes="cccccccccccccccccccccccccc" />
</svg>
