<?xml version="1.0" encoding="UTF-8" standalone="no"?>
<!-- Created with Inkscape (http://www.inkscape.org/) -->

<svg
   xmlns:dc="http://purl.org/dc/elements/1.1/"
   xmlns:cc="http://creativecommons.org/ns#"
   xmlns:rdf="http://www.w3.org/1999/02/22-rdf-syntax-ns#"
   xmlns:svg="http://www.w3.org/2000/svg"
   xmlns="http://www.w3.org/2000/svg"
   xmlns:sodipodi="http://sodipodi.sourceforge.net/DTD/sodipodi-0.dtd"
   xmlns:inkscape="http://www.inkscape.org/namespaces/inkscape"
   width="744.09448819"
   height="1052.3622047"
   id="svg2"
   version="1.1"
   inkscape:version="0.48.3.1 r9886"
   sodipodi:docname="New document 1">
  <sodipodi:namedview
     id="base"
     pagecolor="#ffffff"
     bordercolor="#666666"
     borderopacity="1.0"
     inkscape:pageopacity="0.0"
     inkscape:pageshadow="2"
     inkscape:zoom="1.4"
     inkscape:cx="424.23492"
     inkscape:cy="841.26806"
     inkscape:document-units="px"
     inkscape:current-layer="layer1"
     showgrid="false"
     inkscape:window-width="1918"
     inkscape:window-height="1042"
     inkscape:window-x="0"
     inkscape:window-y="0"
     inkscape:window-maximized="0" />
  <defs
     id="defs4" />
  <metadata
     id="metadata7">
    <rdf:RDF>
      <cc:Work
         rdf:about="">
        <dc:format>image/svg+xml</dc:format>
        <dc:type
           rdf:resource="http://purl.org/dc/dcmitype/StillImage" />
        <dc:title></dc:title>
      </cc:Work>
    </rdf:RDF>
  </metadata>
  <g
     inkscape:label="Layer 1"
     inkscape:groupmode="layer"
     id="layer1">
    <rect
       style="fill:none;stroke:#000000;stroke-width:0.98263222;stroke-miterlimit:4;stroke-opacity:1;stroke-dasharray:none;stroke-dashoffset:0"
       id="rect2985"
       width="199.01736"
       height="199.01736"
       x="150.49132"
       y="52.8535" />
    <text
       xml:space="preserve"
       style="font-size:40px;font-style:normal;font-weight:normal;line-height:125%;letter-spacing:0px;word-spacing:0px;fill:#000000;fill-opacity:1;stroke:none;font-family:Sans"
       x="105.56094"
       y="159.89241"
       id="text2987"
       sodipodi:linespacing="125%"><tspan
         sodipodi:role="line"
         id="tspan2989"
         x="105.56094"
         y="159.89241">=</tspan></text>
    <rect
       style="fill:none;stroke:#000000;stroke-width:0.49071002;stroke-miterlimit:4;stroke-opacity:1;stroke-dasharray:none;stroke-dashoffset:0"
       id="rect2985-3"
       width="49.509289"
       height="199.50929"
       x="375.24533"
       y="52.60754" />
    <rect
       style="fill:none;stroke:#000000;stroke-width:0.49071002;stroke-miterlimit:4;stroke-opacity:1;stroke-dasharray:none;stroke-dashoffset:0"
       id="rect2985-3-9"
       width="49.509289"
       height="199.50929"
       x="40.245354"
       y="52.607536" />
    <text
       xml:space="preserve"
       style="font-size:40px;font-style:normal;font-weight:normal;line-height:125%;letter-spacing:0px;word-spacing:0px;fill:#000000;fill-opacity:1;stroke:none;font-family:Sans"
       x="46.467018"
       y="281.92004"
       id="text3027"
       sodipodi:linespacing="125%"><tspan
         sodipodi:role="line"
         id="tspan3029"
         x="46.467018"
         y="281.92004">y</tspan></text>
    <text
       xml:space="preserve"
       style="font-size:40px;font-style:normal;font-weight:normal;line-height:125%;letter-spacing:0px;word-spacing:0px;fill:#000000;fill-opacity:1;stroke:none;font-family:Sans"
       x="239.40614"
       y="290.24036"
       id="text3031"
       sodipodi:linespacing="125%"><tspan
         sodipodi:role="line"
         id="tspan3033"
         x="239.40614"
         y="290.24036">A</tspan></text>
    <text
       xml:space="preserve"
       style="font-size:40px;font-style:normal;font-weight:normal;line-height:125%;letter-spacing:0px;word-spacing:0px;fill:#000000;fill-opacity:1;stroke:none;font-family:Sans"
       x="388.84766"
       y="290.24036"
       id="text3035"
       sodipodi:linespacing="125%"><tspan
         sodipodi:role="line"
         id="tspan3037"
         x="388.84766"
         y="290.24036">x</tspan></text>
    <g
       transform="matrix(0.18118247,0,0,0.21537155,322.78252,90.911938)"
       id="g3055">
      <g
         style="font-style:normal;font-variant:normal;font-weight:normal;font-stretch:normal;letter-spacing:normal;word-spacing:normal;text-anchor:start;fill:none;stroke:#000000;stroke-linecap:butt;stroke-linejoin:miter;stroke-miterlimit:10.43299961;stroke-opacity:1;stroke-dasharray:none;stroke-dashoffset:0"
         id="content"
         transform="matrix(1.0629921,0,0,-1.0629921,-186.02362,789.27165)"
         xml:space="preserve"
         stroke-miterlimit="10.433"
         font-style="normal"
         font-variant="normal"
         font-weight="normal"
         font-stretch="normal"
         font-size-adjust="none"
         letter-spacing="normal"
         word-spacing="normal"><path
           style="fill:#000000;stroke-width:0"
           inkscape:connector-curvature="0"
           d="m 469.82,417.26 5.68,7.38 h 1.99 c 0.7,0 2.05,0 2.05,1.48 0,1.55 -1.3,1.55 -2.05,1.55 h -5.83 c -0.75,0 -1.98,0 -1.98,-1.49 0,-1.54 1.09,-1.54 2.43,-1.54 l -3.68,-5.03 -3.79,5.03 c 1.29,0 2.4,0 2.4,1.54 0,1.49 -1.25,1.49 -2,1.49 h -5.83 c -0.75,0 -2.05,0 -2.05,-1.55 0,-1.48 1.34,-1.48 2.05,-1.48 h 1.98 l 5.89,-7.38 -6.19,-8.01 h -1.98 c -0.75,0 -2.05,0 -2.05,-1.55 0,-1.5 1.35,-1.5 2.05,-1.5 h 5.83 c 0.75,0 1.98,0 1.98,1.5 0,1.55 -1.04,1.55 -2.58,1.55 l 4.29,6.12 4.43,-6.12 c -1.4,0 -2.5,0 -2.5,-1.55 0,-1.5 1.25,-1.5 2,-1.5 h 5.83 c 0.69,0 2.05,0 2.05,1.5 0,1.55 -1.3,1.55 -2.05,1.55 h -2 z"
           id="path3058" /><path
           style="fill:#000000;stroke-width:0"
           inkscape:connector-curvature="0"
           d="m 493.35,446.36 0,0.04 0,0.04 0,0.04 0,0.04 0,0.04 0,0.04 0,0.04 0,0.03 0,0.04 -0.01,0.03 0,0.03 0,0.03 0,0.03 -0.01,0.03 0,0.03 0,0.02 -0.01,0.03 0,0.02 -0.01,0.02 0,0.03 -0.02,0.04 -0.01,0.04 -0.02,0.03 -0.02,0.03 -0.02,0.03 -0.02,0.03 -0.03,0.02 -0.03,0.02 -0.03,0.01 -0.04,0.02 -0.04,0.01 -0.05,0.01 -0.04,0.01 -0.03,0.01 -0.03,0 -0.02,0 -0.03,0.01 -0.03,0 -0.03,0 -0.03,0 -0.04,0 -0.03,0.01 -0.04,0 -0.03,0 -0.04,0 -0.04,0 -0.04,0 -0.04,0 -0.05,0 -0.04,0 -0.05,0 c -2.23,-2.2 -5.39,-2.23 -6.82,-2.23 v -1.25 c 0.84,0 3.14,0 5.04,0.96 v -17.76 c 0,-1.16 0,-1.61 -3.48,-1.61 h -1.31 v -1.25 c 0.62,0.03 4.9,0.14 6.2,0.14 1.08,0 5.47,-0.11 6.23,-0.14 v 1.25 h -1.32 c -3.49,0 -3.49,0.45 -3.49,1.61 z"
           id="path3060" /><path
           style="fill:#000000;stroke-width:0"
           inkscape:connector-curvature="0"
           d="m 496.98,415.02 0,0.06 -0.01,0.05 -0.01,0.06 0,0.06 -0.02,0.06 -0.01,0.05 -0.02,0.06 -0.02,0.06 -0.02,0.05 -0.03,0.06 -0.03,0.06 -0.03,0.05 -0.03,0.05 -0.04,0.06 -0.04,0.05 -0.04,0.05 -0.04,0.04 -0.05,0.05 -0.05,0.04 -0.05,0.04 -0.06,0.04 -0.06,0.04 -0.06,0.03 -0.06,0.03 -0.07,0.03 -0.07,0.03 -0.07,0.02 -0.08,0.02 -0.07,0.01 -0.08,0.01 -0.09,0.01 -0.08,0 c -1.02,0 -1.96,-0.99 -1.96,-1.92 0,-0.57 0.42,-1.33 1.39,-1.33 0.94,0 1.96,0.9 1.96,1.92 z"
           id="path3062" /><path
           style="fill:#000000;stroke-width:0"
           inkscape:connector-curvature="0"
           d="m 489.59,391.54 -0.06,-0.23 -0.07,-0.22 -0.07,-0.22 -0.08,-0.22 -0.09,-0.21 -0.09,-0.21 -0.1,-0.2 -0.11,-0.2 -0.11,-0.2 -0.12,-0.19 -0.12,-0.18 -0.12,-0.18 -0.14,-0.18 -0.13,-0.16 -0.15,-0.16 -0.14,-0.16 -0.15,-0.15 -0.16,-0.14 -0.15,-0.13 -0.17,-0.12 -0.16,-0.12 -0.17,-0.11 -0.17,-0.09 -0.18,-0.09 -0.18,-0.08 -0.18,-0.08 -0.18,-0.06 -0.18,-0.05 -0.19,-0.04 -0.19,-0.02 -0.19,-0.02 -0.19,-0.01 c -0.45,0 -0.87,0.07 -1.26,0.21 0.9,0.42 1.18,1.25 1.18,1.78 0,0.83 -0.65,1.28 -1.36,1.28 -1.07,0 -1.98,-0.94 -1.98,-2.05 0,-1.33 1.36,-2.2 3.45,-2.2 2.1,0 6.16,1.25 7.25,5.5 l 3.13,12.48 c 0.11,0.38 0.17,0.69 0.17,1.22 0,1.91 -1.63,3.27 -3.72,3.27 -3.87,0 -6.09,-4.85 -6.09,-5.33 0,-0.45 0.48,-0.45 0.59,-0.45 0.41,0 0.45,0.11 0.69,0.62 0.87,2.03 2.69,4.19 4.7,4.19 0.88,0 1.19,-0.59 1.19,-1.7 0,-0.39 -0.06,-0.88 -0.11,-1.05 z"
           id="path3064" /><path
           style="fill:#000000;stroke-width:0"
           inkscape:connector-curvature="0"
           d="m 534.98,417.26 5.68,7.38 h 1.99 c 0.7,0 2.05,0 2.05,1.48 0,1.55 -1.3,1.55 -2.05,1.55 h -5.83 c -0.75,0 -1.98,0 -1.98,-1.49 0,-1.54 1.09,-1.54 2.43,-1.54 l -3.68,-5.03 -3.79,5.03 c 1.29,0 2.4,0 2.4,1.54 0,1.49 -1.25,1.49 -2,1.49 h -5.83 c -0.75,0 -2.05,0 -2.05,-1.55 0,-1.48 1.34,-1.48 2.05,-1.48 h 1.98 l 5.89,-7.38 -6.19,-8.01 h -1.98 c -0.75,0 -2.05,0 -2.05,-1.55 0,-1.5 1.35,-1.5 2.05,-1.5 h 5.83 c 0.75,0 1.98,0 1.98,1.5 0,1.55 -1.04,1.55 -2.58,1.55 l 4.29,6.12 4.43,-6.12 c -1.4,0 -2.5,0 -2.5,-1.55 0,-1.5 1.25,-1.5 2,-1.5 h 5.83 c 0.69,0 2.05,0 2.05,1.5 0,1.55 -1.3,1.55 -2.05,1.55 h -2 z"
           id="path3066" /><path
           style="fill:#000000;stroke-width:0"
           inkscape:connector-curvature="0"
           d="m 564.43,430.54 h -1.18 c -0.1,-0.76 -0.46,-2.83 -0.91,-3.17 -0.27,-0.2 -2.95,-0.2 -3.44,-0.2 h -6.42 c 3.66,3.23 4.87,4.2 6.97,5.84 2.58,2.06 4.98,4.22 4.98,7.53 0,4.22 -3.68,6.8 -8.15,6.8 -4.31,0 -7.25,-3.03 -7.25,-6.23 0,-1.79 1.5,-1.96 1.86,-1.96 0.83,0 1.84,0.6 1.84,1.85 0,0.62 -0.25,1.84 -2.06,1.84 1.08,2.47 3.45,3.23 5.09,3.23 3.49,0 5.3,-2.7 5.3,-5.53 0,-3.03 -2.16,-5.43 -3.28,-6.68 l -8.39,-8.3 c -0.36,-0.31 -0.36,-0.39 -0.36,-1.36 h 14.36 z"
           id="path3068" /><path
           style="fill:#000000;stroke-width:0"
           inkscape:connector-curvature="0"
           d="m 562.14,415.02 0,0.06 -0.01,0.05 0,0.06 -0.01,0.06 -0.02,0.06 -0.01,0.05 -0.02,0.06 -0.02,0.06 -0.02,0.05 -0.03,0.06 -0.02,0.06 -0.04,0.05 -0.03,0.05 -0.04,0.06 -0.03,0.05 -0.05,0.05 -0.04,0.04 -0.05,0.05 -0.05,0.04 -0.05,0.04 -0.06,0.04 -0.06,0.04 -0.06,0.03 -0.06,0.03 -0.07,0.03 -0.07,0.03 -0.07,0.02 -0.07,0.02 -0.08,0.01 -0.08,0.01 -0.09,0.01 -0.08,0 c -1.02,0 -1.96,-0.99 -1.96,-1.92 0,-0.57 0.43,-1.33 1.39,-1.33 0.94,0 1.96,0.9 1.96,1.92 z"
           id="path3070" /><path
           style="fill:#000000;stroke-width:0"
           inkscape:connector-curvature="0"
           d="m 554.75,391.54 -0.06,-0.23 -0.07,-0.22 -0.07,-0.22 -0.08,-0.22 -0.09,-0.21 -0.09,-0.21 -0.1,-0.2 -0.11,-0.2 -0.11,-0.2 -0.11,-0.19 -0.13,-0.18 -0.12,-0.18 -0.14,-0.18 -0.13,-0.16 -0.14,-0.16 -0.15,-0.16 -0.15,-0.15 -0.16,-0.14 -0.15,-0.13 -0.17,-0.12 -0.16,-0.12 -0.17,-0.11 -0.17,-0.09 -0.18,-0.09 -0.17,-0.08 -0.18,-0.08 -0.19,-0.06 -0.18,-0.05 -0.19,-0.04 -0.19,-0.02 -0.19,-0.02 -0.19,-0.01 c -0.45,0 -0.87,0.07 -1.26,0.21 0.9,0.42 1.18,1.25 1.18,1.78 0,0.83 -0.65,1.28 -1.36,1.28 -1.07,0 -1.98,-0.94 -1.98,-2.05 0,-1.33 1.36,-2.2 3.45,-2.2 2.1,0 6.16,1.25 7.25,5.5 l 3.13,12.48 c 0.11,0.38 0.17,0.69 0.17,1.22 0,1.91 -1.62,3.27 -3.72,3.27 -3.87,0 -6.09,-4.85 -6.09,-5.33 0,-0.45 0.48,-0.45 0.59,-0.45 0.41,0 0.45,0.11 0.69,0.62 0.87,2.03 2.69,4.19 4.7,4.19 0.88,0 1.19,-0.59 1.19,-1.7 0,-0.39 -0.06,-0.88 -0.11,-1.05 z"
           id="path3072" /><path
           style="fill:#000000;stroke-width:0"
           inkscape:connector-curvature="0"
           d="m 600.02,417.26 5.68,7.38 h 1.99 c 0.7,0 2.04,0 2.04,1.48 0,1.55 -1.29,1.55 -2.04,1.55 h -5.83 c -0.75,0 -1.98,0 -1.98,-1.49 0,-1.54 1.09,-1.54 2.43,-1.54 l -3.69,-5.03 -3.78,5.03 c 1.28,0 2.39,0 2.39,1.54 0,1.49 -1.25,1.49 -2,1.49 h -5.82 c -0.75,0 -2.05,0 -2.05,-1.55 0,-1.48 1.34,-1.48 2.05,-1.48 h 1.98 l 5.89,-7.38 -6.19,-8.01 h -1.98 c -0.75,0 -2.05,0 -2.05,-1.55 0,-1.5 1.35,-1.5 2.05,-1.5 h 5.83 c 0.75,0 1.98,0 1.98,1.5 0,1.55 -1.04,1.55 -2.58,1.55 l 4.28,6.12 4.44,-6.12 c -1.4,0 -2.5,0 -2.5,-1.55 0,-1.5 1.25,-1.5 2,-1.5 h 5.83 c 0.69,0 2.05,0 2.05,1.5 0,1.55 -1.3,1.55 -2.05,1.55 h -2 z"
           id="path3074" /><path
           style="fill:#000000;stroke-width:0"
           inkscape:connector-curvature="0"
           d="m 621.4,435.84 0.25,-0.01 0.25,-0.01 0.24,-0.03 0.24,-0.04 0.23,-0.05 0.23,-0.06 0.22,-0.07 0.21,-0.08 0.21,-0.1 0.2,-0.1 0.2,-0.12 0.19,-0.12 0.18,-0.14 0.17,-0.15 0.17,-0.16 0.16,-0.17 0.15,-0.18 0.14,-0.19 0.14,-0.21 0.12,-0.21 0.12,-0.23 0.11,-0.23 0.1,-0.25 0.09,-0.25 0.08,-0.27 0.07,-0.28 0.06,-0.29 0.05,-0.3 0.04,-0.31 0.02,-0.32 0.02,-0.34 0.01,-0.34 c 0,-4.33 -2.52,-5.61 -4.54,-5.61 -1.38,0 -4.46,0.38 -5.92,2.44 1.63,0.06 2.02,1.22 2.02,1.95 0,1.11 -0.85,1.91 -1.92,1.91 -0.97,0 -1.96,-0.6 -1.96,-2.02 0,-3.28 3.63,-5.4 7.85,-5.4 4.84,0 8.18,3.25 8.18,6.73 0,2.72 -2.21,5.44 -6.06,6.23 3.66,1.33 4.99,3.94 4.99,6.07 0,2.75 -3.18,4.81 -7.03,4.81 -3.88,0 -6.83,-1.89 -6.83,-4.67 0,-1.19 0.76,-1.85 1.81,-1.85 1.08,0 1.77,0.8 1.77,1.77 0,1.02 -0.69,1.75 -1.77,1.81 1.22,1.55 3.61,1.92 4.91,1.92 1.56,0 3.76,-0.76 3.76,-3.79 0,-1.47 -0.48,-3.07 -1.39,-4.14 -1.16,-1.33 -2.12,-1.41 -3.87,-1.5 -0.88,-0.08 -0.94,-0.08 -1.11,-0.11 -0.08,0 -0.36,-0.07 -0.36,-0.46 0,-0.48 0.31,-0.48 0.9,-0.48 z"
           id="path3076" /><path
           style="fill:#000000;stroke-width:0"
           inkscape:connector-curvature="0"
           d="m 627.18,415.02 -0.01,0.06 0,0.05 -0.01,0.06 -0.01,0.06 -0.01,0.06 -0.01,0.05 -0.02,0.06 -0.02,0.06 -0.02,0.05 -0.03,0.06 -0.03,0.06 -0.03,0.05 -0.03,0.05 -0.04,0.06 -0.04,0.05 -0.04,0.05 -0.04,0.04 -0.05,0.05 -0.05,0.04 -0.05,0.04 -0.06,0.04 -0.06,0.04 -0.06,0.03 -0.06,0.03 -0.07,0.03 -0.07,0.03 -0.07,0.02 -0.08,0.02 -0.07,0.01 -0.08,0.01 -0.09,0.01 -0.09,0 c -1.01,0 -1.95,-0.99 -1.95,-1.92 0,-0.57 0.42,-1.33 1.39,-1.33 0.94,0 1.96,0.9 1.96,1.92 z"
           id="path3078" /><path
           style="fill:#000000;stroke-width:0"
           inkscape:connector-curvature="0"
           d="m 619.78,391.54 -0.05,-0.23 -0.07,-0.22 -0.07,-0.22 -0.08,-0.22 -0.09,-0.21 -0.09,-0.21 -0.1,-0.2 -0.11,-0.2 -0.11,-0.2 -0.12,-0.19 -0.12,-0.18 -0.13,-0.18 -0.13,-0.18 -0.13,-0.16 -0.15,-0.16 -0.14,-0.16 -0.15,-0.15 -0.16,-0.14 -0.16,-0.13 -0.16,-0.12 -0.16,-0.12 -0.17,-0.11 -0.17,-0.09 -0.18,-0.09 -0.18,-0.08 -0.18,-0.08 -0.18,-0.06 -0.18,-0.05 -0.19,-0.04 -0.19,-0.02 -0.19,-0.02 -0.19,-0.01 c -0.45,0 -0.87,0.07 -1.27,0.21 0.91,0.42 1.19,1.25 1.19,1.78 0,0.83 -0.65,1.28 -1.36,1.28 -1.08,0 -1.98,-0.94 -1.98,-2.05 0,-1.33 1.36,-2.2 3.45,-2.2 2.1,0 6.16,1.25 7.25,5.5 l 3.13,12.48 c 0.11,0.38 0.17,0.69 0.17,1.22 0,1.91 -1.63,3.27 -3.72,3.27 -3.88,0 -6.09,-4.85 -6.09,-5.33 0,-0.45 0.48,-0.45 0.59,-0.45 0.41,0 0.45,0.11 0.69,0.62 0.87,2.03 2.68,4.19 4.7,4.19 0.88,0 1.19,-0.59 1.19,-1.7 0,-0.39 -0.06,-0.88 -0.11,-1.05 z"
           id="path3080" /><path
           style="fill:#000000;stroke-width:0"
           inkscape:connector-curvature="0"
           d="m 665.18,417.26 5.68,7.38 h 1.99 c 0.7,0 2.05,0 2.05,1.48 0,1.55 -1.3,1.55 -2.05,1.55 h -5.83 c -0.75,0 -1.99,0 -1.99,-1.49 0,-1.54 1.1,-1.54 2.44,-1.54 l -3.69,-5.03 -3.78,5.03 c 1.28,0 2.4,0 2.4,1.54 0,1.49 -1.25,1.49 -2,1.49 h -5.83 c -0.75,0 -2.05,0 -2.05,-1.55 0,-1.48 1.34,-1.48 2.05,-1.48 h 1.98 l 5.89,-7.38 -6.19,-8.01 h -1.98 c -0.75,0 -2.05,0 -2.05,-1.55 0,-1.5 1.35,-1.5 2.05,-1.5 h 5.83 c 0.75,0 1.98,0 1.98,1.5 0,1.55 -1.05,1.55 -2.58,1.55 l 4.28,6.12 4.44,-6.12 c -1.4,0 -2.5,0 -2.5,-1.55 0,-1.5 1.25,-1.5 2,-1.5 h 5.83 c 0.69,0 2.05,0 2.05,1.5 0,1.55 -1.3,1.55 -2.05,1.55 h -2 z"
           id="path3082" /><path
           style="fill:#000000;stroke-width:0"
           inkscape:connector-curvature="0"
           d="m 695.48,429.92 v 1.25 h -3.88 v 15.54 c 0,0.72 0,0.97 -0.76,0.97 -0.43,0 -0.57,0 -0.91,-0.48 L 678.4,431.17 v -1.25 h 10.25 l 0.23,1.25 h -9.2 l 9.2,12.75 v -12.75 l -0.23,-1.25 v -2.86 c 0,-1.19 0,-1.61 -2.83,-1.61 h -0.94 v -1.25 c 1.74,0.06 3.97,0.14 5.22,0.14 1.3,0 3.52,-0.08 5.27,-0.14 v 1.25 h -0.94 c -2.83,0 -2.83,0.42 -2.83,1.61 v 2.86 z"
           id="path3084" /><path
           style="fill:#000000;stroke-width:0"
           inkscape:connector-curvature="0"
           d="m 692.34,415.02 -0.01,0.06 0,0.05 -0.01,0.06 -0.01,0.06 -0.01,0.06 -0.01,0.05 -0.02,0.06 -0.02,0.06 -0.02,0.05 -0.03,0.06 -0.03,0.06 -0.03,0.05 -0.03,0.05 -0.04,0.06 -0.04,0.05 -0.04,0.05 -0.04,0.04 -0.05,0.05 -0.05,0.04 -0.05,0.04 -0.06,0.04 -0.06,0.04 -0.06,0.03 -0.06,0.03 -0.07,0.03 -0.07,0.03 -0.07,0.02 -0.08,0.02 -0.07,0.01 -0.08,0.01 -0.09,0.01 -0.08,0 c -1.02,0 -1.96,-0.99 -1.96,-1.92 0,-0.57 0.42,-1.33 1.39,-1.33 0.94,0 1.96,0.9 1.96,1.92 z"
           id="path3086" /><path
           style="fill:#000000;stroke-width:0"
           inkscape:connector-curvature="0"
           d="m 684.95,391.54 -0.06,-0.23 -0.07,-0.22 -0.07,-0.22 -0.08,-0.22 -0.09,-0.21 -0.09,-0.21 -0.1,-0.2 -0.11,-0.2 -0.11,-0.2 -0.12,-0.19 -0.12,-0.18 -0.12,-0.18 -0.14,-0.18 -0.13,-0.16 -0.15,-0.16 -0.14,-0.16 -0.15,-0.15 -0.16,-0.14 -0.15,-0.13 -0.17,-0.12 -0.16,-0.12 -0.17,-0.11 -0.17,-0.09 -0.18,-0.09 -0.18,-0.08 -0.18,-0.08 -0.18,-0.06 -0.18,-0.05 -0.19,-0.04 -0.19,-0.02 -0.19,-0.02 -0.19,-0.01 c -0.45,0 -0.87,0.07 -1.26,0.21 0.9,0.42 1.18,1.25 1.18,1.78 0,0.83 -0.65,1.28 -1.36,1.28 -1.07,0 -1.98,-0.94 -1.98,-2.05 0,-1.33 1.36,-2.2 3.45,-2.2 2.1,0 6.16,1.25 7.25,5.5 l 3.13,12.48 c 0.11,0.38 0.17,0.69 0.17,1.22 0,1.91 -1.63,3.27 -3.72,3.27 -3.87,0 -6.09,-4.85 -6.09,-5.33 0,-0.45 0.48,-0.45 0.59,-0.45 0.41,0 0.45,0.11 0.69,0.62 0.87,2.03 2.69,4.19 4.7,4.19 0.88,0 1.19,-0.59 1.19,-1.7 0,-0.39 -0.06,-0.88 -0.11,-1.05 z"
           id="path3088" /></g>    </g>
    <g
       transform="matrix(0.13972957,0,0,0.13972957,-1.1448505,45.282793)"
       id="g3156">
      <g
         style="font-style:normal;font-variant:normal;font-weight:normal;font-stretch:normal;letter-spacing:normal;word-spacing:normal;text-anchor:start;fill:none;stroke:#000000;stroke-linecap:butt;stroke-linejoin:miter;stroke-miterlimit:10.43299961;stroke-opacity:1;stroke-dasharray:none;stroke-dashoffset:0"
         word-spacing="normal"
         letter-spacing="normal"
         font-size-adjust="none"
         font-stretch="normal"
         font-weight="normal"
         font-variant="normal"
         font-style="normal"
         stroke-miterlimit="10.433"
         xml:space="preserve"
         transform="matrix(1.0629921,0,0,-1.0629921,-186.02362,789.27165)"
         id="g3158"><path
           style="fill:#000000;stroke-width:0"
           inkscape:connector-curvature="0"
           id="path3160"
           d="m 476.94,424.64 h 1.5 c 0.75,0 1.99,0 1.99,1.48 0,1.55 -1.19,1.55 -1.99,1.55 h -5.83 c -0.75,0 -2,0 -2,-1.49 0,-1.54 1.21,-1.54 2,-1.54 H 474 l -3.59,-10.61 c -0.64,-1.85 -0.94,-2.75 -1.3,-4.3 h -0.04 c -0.25,0.95 -0.69,2 -1.05,2.95 l -4.63,11.96 h 1.25 c 0.74,0 1.99,0 1.99,1.48 0,1.55 -1.19,1.55 -1.99,1.55 h -5.84 c -0.8,0 -1.98,0 -1.98,-1.55 0,-1.48 1.25,-1.48 1.98,-1.48 h 1.55 l 7.08,-17.8 c 0.2,-0.48 0.2,-0.59 0.2,-0.64 0,-0.09 -1.25,-4.19 -1.89,-5.44 -1.45,-2.73 -3.25,-2.83 -3.99,-2.87 0,0.04 0.25,0.43 0.25,1.09 0,1.23 -0.9,2.14 -2.15,2.14 -1.35,0 -2.19,-0.91 -2.19,-2.2 0,-2.08 1.7,-4.08 4.14,-4.08 4.99,0 7.22,6.58 7.42,7.12 z" /><path
           style="fill:#000000;stroke-width:0"
           inkscape:connector-curvature="0"
           id="path3162"
           d="m 493.35,446.36 0,0.04 0,0.04 0,0.04 0,0.04 0,0.04 0,0.04 0,0.04 0,0.03 0,0.04 -0.01,0.03 0,0.03 0,0.03 0,0.03 -0.01,0.03 0,0.03 0,0.02 -0.01,0.03 0,0.02 -0.01,0.02 0,0.03 -0.02,0.04 -0.01,0.04 -0.02,0.03 -0.02,0.03 -0.02,0.03 -0.02,0.03 -0.03,0.02 -0.03,0.02 -0.03,0.01 -0.04,0.02 -0.04,0.01 -0.05,0.01 -0.04,0.01 -0.03,0.01 -0.03,0 -0.02,0 -0.03,0.01 -0.03,0 -0.03,0 -0.03,0 -0.04,0 -0.03,0.01 -0.04,0 -0.03,0 -0.04,0 -0.04,0 -0.04,0 -0.04,0 -0.05,0 -0.04,0 -0.05,0 c -2.23,-2.2 -5.39,-2.23 -6.82,-2.23 v -1.25 c 0.84,0 3.14,0 5.04,0.96 v -17.76 c 0,-1.16 0,-1.61 -3.48,-1.61 h -1.31 v -1.25 c 0.62,0.03 4.9,0.14 6.2,0.14 1.08,0 5.47,-0.11 6.23,-0.14 v 1.25 h -1.32 c -3.49,0 -3.49,0.45 -3.49,1.61 z" /><path
           style="fill:#000000;stroke-width:0"
           inkscape:connector-curvature="0"
           id="path3164"
           d="m 513.15,446.36 0,0.04 0,0.04 0,0.04 0,0.04 0,0.04 0,0.04 -0.01,0.04 0,0.03 0,0.04 0,0.03 0,0.03 0,0.03 -0.01,0.03 0,0.03 0,0.03 -0.01,0.02 0,0.03 -0.01,0.02 0,0.02 -0.01,0.03 -0.01,0.04 -0.01,0.04 -0.02,0.03 -0.02,0.03 -0.02,0.03 -0.03,0.03 -0.02,0.02 -0.03,0.02 -0.04,0.01 -0.03,0.02 -0.05,0.01 -0.04,0.01 -0.02,0.01 -0.03,0 -0.02,0.01 -0.03,0 -0.03,0 -0.03,0.01 -0.03,0 -0.03,0 -0.03,0 -0.03,0 -0.04,0.01 -0.03,0 -0.04,0 -0.03,0 -0.04,0 -0.04,0 -0.05,0 -0.04,0 -0.04,0 -0.05,0 c -2.23,-2.2 -5.39,-2.23 -6.83,-2.23 v -1.25 c 0.85,0 3.14,0 5.05,0.96 v -17.76 c 0,-1.16 0,-1.61 -3.48,-1.61 h -1.32 v -1.25 c 0.63,0.03 4.91,0.14 6.21,0.14 1.07,0 5.47,-0.11 6.23,-0.14 v 1.25 h -1.33 c -3.48,0 -3.48,0.45 -3.48,1.61 z" /><path
           style="fill:#000000;stroke-width:0"
           inkscape:connector-curvature="0"
           id="path3166"
           d="m 492.98,415.02 0,0.05 -0.01,0.05 0,0.06 -0.01,0.05 -0.01,0.06 -0.02,0.06 -0.02,0.05 -0.01,0.06 -0.03,0.05 -0.02,0.06 -0.03,0.06 -0.03,0.05 -0.03,0.05 -0.04,0.06 -0.04,0.05 -0.04,0.05 -0.04,0.05 -0.05,0.04 -0.05,0.05 -0.05,0.04 -0.06,0.04 -0.06,0.04 -0.06,0.04 -0.06,0.03 -0.07,0.03 -0.07,0.02 -0.08,0.02 -0.08,0.02 -0.08,0.02 -0.08,0.01 -0.09,0.01 -0.09,0 c -0.94,0 -1.95,-0.91 -1.95,-1.92 0,-0.6 0.45,-1.33 1.4,-1.33 1,0 1.96,0.98 1.96,1.92 z" /><path
           style="fill:#000000;stroke-width:0"
           inkscape:connector-curvature="0"
           id="path3168"
           d="m 485.87,397.32 -0.06,-0.17 -0.05,-0.17 -0.03,-0.09 -0.02,-0.08 -0.03,-0.09 -0.02,-0.09 -0.02,-0.08 -0.02,-0.1 -0.02,-0.09 -0.02,-0.1 -0.01,-0.1 0,-0.05 -0.01,-0.05 0,-0.05 0,-0.05 0,-0.06 -0.01,-0.05 c 0,-1.64 1.4,-2.96 3.3,-2.96 3.49,0 5.03,4.8 5.03,5.33 0,0.46 -0.45,0.46 -0.56,0.46 -0.48,0 -0.53,-0.21 -0.67,-0.6 -0.8,-2.78 -2.33,-4.22 -3.69,-4.22 -0.7,0 -0.87,0.46 -0.87,1.22 0,0.8 0.25,1.47 0.56,2.24 0.34,0.93 0.73,1.87 1.11,2.78 0.31,0.84 1.58,4.01 1.72,4.44 0.09,0.34 0.2,0.76 0.2,1.1 0,1.65 -1.39,2.96 -3.31,2.96 -3.46,0 -5.05,-4.74 -5.05,-5.33 0,-0.45 0.48,-0.45 0.59,-0.45 0.49,0 0.52,0.17 0.63,0.56 0.91,3 2.44,4.25 3.72,4.25 0.56,0 0.87,-0.28 0.87,-1.22 0,-0.8 -0.2,-1.33 -1.08,-3.48 z" /><path
           style="fill:#000000;stroke-width:0"
           inkscape:connector-curvature="0"
           id="path3170"
           d="m 561.9,424.64 h 1.5 c 0.75,0 1.99,0 1.99,1.48 0,1.55 -1.19,1.55 -1.99,1.55 h -5.83 c -0.75,0 -2,0 -2,-1.49 0,-1.54 1.21,-1.54 2,-1.54 h 1.4 l -3.6,-10.61 c -0.64,-1.85 -0.94,-2.75 -1.3,-4.3 h -0.04 c -0.25,0.95 -0.69,2 -1.05,2.95 l -4.63,11.96 h 1.25 c 0.74,0 1.99,0 1.99,1.48 0,1.55 -1.19,1.55 -1.99,1.55 h -5.84 c -0.79,0 -1.98,0 -1.98,-1.55 0,-1.48 1.25,-1.48 1.98,-1.48 h 1.55 l 7.08,-17.8 c 0.2,-0.48 0.2,-0.59 0.2,-0.64 0,-0.09 -1.25,-4.19 -1.89,-5.44 -1.45,-2.73 -3.25,-2.83 -3.98,-2.87 0,0.04 0.25,0.43 0.25,1.09 0,1.23 -0.91,2.14 -2.16,2.14 -1.34,0 -2.19,-0.91 -2.19,-2.2 0,-2.08 1.7,-4.08 4.14,-4.08 4.99,0 7.22,6.58 7.42,7.12 z" /><path
           style="fill:#000000;stroke-width:0"
           inkscape:connector-curvature="0"
           id="path3172"
           d="m 578.31,446.36 0,0.04 0,0.04 0,0.04 0,0.04 0,0.04 0,0.04 0,0.04 0,0.03 0,0.04 -0.01,0.03 0,0.03 0,0.03 0,0.03 -0.01,0.03 0,0.03 0,0.02 -0.01,0.03 0,0.02 -0.01,0.02 0,0.03 -0.01,0.04 -0.02,0.04 -0.02,0.03 -0.02,0.03 -0.02,0.03 -0.02,0.03 -0.03,0.02 -0.03,0.02 -0.03,0.01 -0.04,0.02 -0.04,0.01 -0.05,0.01 -0.02,0.01 -0.02,0 -0.03,0.01 -0.03,0 -0.02,0 -0.03,0.01 -0.03,0 -0.03,0 -0.03,0 -0.04,0 -0.03,0.01 -0.04,0 -0.03,0 -0.04,0 -0.04,0 -0.04,0 -0.04,0 -0.04,0 -0.05,0 -0.04,0 c -2.24,-2.2 -5.39,-2.23 -6.83,-2.23 v -1.25 c 0.84,0 3.14,0 5.04,0.96 v -17.76 c 0,-1.16 0,-1.61 -3.48,-1.61 h -1.31 v -1.25 c 0.62,0.03 4.9,0.14 6.2,0.14 1.08,0 5.47,-0.11 6.23,-0.14 v 1.25 h -1.32 c -3.49,0 -3.49,0.45 -3.49,1.61 z" /><path
           style="fill:#000000;stroke-width:0"
           inkscape:connector-curvature="0"
           id="path3174"
           d="m 604.03,430.54 h -1.19 c -0.09,-0.76 -0.45,-2.83 -0.9,-3.17 -0.27,-0.2 -2.96,-0.2 -3.44,-0.2 h -6.42 c 3.65,3.23 4.87,4.2 6.97,5.84 2.57,2.06 4.98,4.22 4.98,7.53 0,4.22 -3.69,6.8 -8.15,6.8 -4.32,0 -7.26,-3.03 -7.26,-6.23 0,-1.79 1.5,-1.96 1.86,-1.96 0.83,0 1.85,0.6 1.85,1.85 0,0.62 -0.25,1.84 -2.06,1.84 1.07,2.47 3.45,3.23 5.09,3.23 3.48,0 5.3,-2.7 5.3,-5.53 0,-3.03 -2.16,-5.43 -3.28,-6.68 l -8.4,-8.3 c -0.36,-0.31 -0.36,-0.39 -0.36,-1.36 h 14.36 z" /><path
           style="fill:#000000;stroke-width:0"
           inkscape:connector-curvature="0"
           id="path3176"
           d="m 577.94,415.02 0,0.05 -0.01,0.05 0,0.06 -0.01,0.05 -0.01,0.06 -0.02,0.06 -0.01,0.05 -0.02,0.06 -0.03,0.05 -0.02,0.06 -0.03,0.06 -0.03,0.05 -0.03,0.05 -0.04,0.06 -0.03,0.05 -0.05,0.05 -0.04,0.05 -0.05,0.04 -0.05,0.05 -0.05,0.04 -0.06,0.04 -0.06,0.04 -0.06,0.04 -0.06,0.03 -0.07,0.03 -0.07,0.02 -0.08,0.02 -0.08,0.02 -0.08,0.02 -0.08,0.01 -0.09,0.01 -0.09,0 c -0.94,0 -1.95,-0.91 -1.95,-1.92 0,-0.6 0.45,-1.33 1.4,-1.33 1,0 1.96,0.98 1.96,1.92 z" /><path
           style="fill:#000000;stroke-width:0"
           inkscape:connector-curvature="0"
           id="path3178"
           d="m 570.83,397.32 -0.06,-0.17 -0.05,-0.17 -0.03,-0.09 -0.02,-0.08 -0.03,-0.09 -0.02,-0.09 -0.02,-0.08 -0.02,-0.1 -0.02,-0.09 -0.01,-0.1 -0.02,-0.1 0,-0.05 -0.01,-0.05 0,-0.05 0,-0.05 0,-0.06 0,-0.05 c 0,-1.64 1.39,-2.96 3.29,-2.96 3.49,0 5.03,4.8 5.03,5.33 0,0.46 -0.45,0.46 -0.56,0.46 -0.48,0 -0.53,-0.21 -0.67,-0.6 -0.8,-2.78 -2.33,-4.22 -3.69,-4.22 -0.7,0 -0.87,0.46 -0.87,1.22 0,0.8 0.25,1.47 0.56,2.24 0.34,0.93 0.73,1.87 1.11,2.78 0.31,0.84 1.58,4.01 1.72,4.44 0.09,0.34 0.2,0.76 0.2,1.1 0,1.65 -1.39,2.96 -3.31,2.96 -3.45,0 -5.05,-4.74 -5.05,-5.33 0,-0.45 0.49,-0.45 0.6,-0.45 0.48,0 0.51,0.17 0.62,0.56 0.91,3 2.44,4.25 3.72,4.25 0.56,0 0.87,-0.28 0.87,-1.22 0,-0.8 -0.2,-1.33 -1.07,-3.48 z" /><path
           style="fill:#000000;stroke-width:0"
           inkscape:connector-curvature="0"
           id="path3180"
           d="m 646.86,424.64 h 1.5 c 0.75,0 1.99,0 1.99,1.48 0,1.55 -1.19,1.55 -1.99,1.55 h -5.83 c -0.75,0 -2,0 -2,-1.49 0,-1.54 1.21,-1.54 2,-1.54 h 1.4 l -3.6,-10.61 c -0.64,-1.85 -0.93,-2.75 -1.3,-4.3 h -0.04 c -0.25,0.95 -0.69,2 -1.05,2.95 l -4.62,11.96 h 1.25 c 0.73,0 1.98,0 1.98,1.48 0,1.55 -1.19,1.55 -1.98,1.55 h -5.85 c -0.79,0 -1.98,0 -1.98,-1.55 0,-1.48 1.25,-1.48 1.98,-1.48 h 1.55 l 7.08,-17.8 c 0.2,-0.48 0.2,-0.59 0.2,-0.64 0,-0.09 -1.25,-4.19 -1.89,-5.44 -1.45,-2.73 -3.25,-2.83 -3.98,-2.87 0,0.04 0.25,0.43 0.25,1.09 0,1.23 -0.91,2.14 -2.16,2.14 -1.34,0 -2.19,-0.91 -2.19,-2.2 0,-2.08 1.7,-4.08 4.14,-4.08 4.99,0 7.22,6.58 7.43,7.12 z" /><path
           style="fill:#000000;stroke-width:0"
           inkscape:connector-curvature="0"
           id="path3182"
           d="m 663.27,446.36 0,0.04 0,0.04 0,0.04 0,0.04 0,0.04 0,0.04 0,0.04 0,0.03 0,0.04 0,0.03 -0.01,0.03 0,0.03 0,0.03 0,0.03 -0.01,0.03 0,0.02 -0.01,0.03 0,0.02 -0.01,0.02 0,0.03 -0.01,0.04 -0.02,0.04 -0.02,0.03 -0.01,0.03 -0.03,0.03 -0.02,0.03 -0.03,0.02 -0.03,0.02 -0.03,0.01 -0.04,0.02 -0.04,0.01 -0.04,0.01 -0.03,0.01 -0.02,0 -0.03,0.01 -0.02,0 -0.03,0 -0.03,0.01 -0.03,0 -0.03,0 -0.03,0 -0.04,0 -0.03,0.01 -0.04,0 -0.03,0 -0.04,0 -0.04,0 -0.04,0 -0.04,0 -0.04,0 -0.05,0 -0.04,0 c -2.24,-2.2 -5.39,-2.23 -6.83,-2.23 v -1.25 c 0.84,0 3.14,0 5.05,0.96 v -17.76 c 0,-1.16 0,-1.61 -3.49,-1.61 h -1.31 v -1.25 c 0.62,0.03 4.9,0.14 6.2,0.14 1.08,0 5.47,-0.11 6.24,-0.14 v 1.25 h -1.33 c -3.49,0 -3.49,0.45 -3.49,1.61 z" /><path
           style="fill:#000000;stroke-width:0"
           inkscape:connector-curvature="0"
           id="path3184"
           d="m 680.91,435.84 0.26,-0.01 0.24,-0.01 0.25,-0.03 0.24,-0.04 0.23,-0.05 0.22,-0.06 0.23,-0.07 0.21,-0.08 0.21,-0.1 0.2,-0.1 0.2,-0.12 0.19,-0.12 0.18,-0.14 0.17,-0.15 0.17,-0.16 0.16,-0.17 0.15,-0.18 0.14,-0.19 0.14,-0.21 0.12,-0.21 0.12,-0.23 0.11,-0.23 0.1,-0.25 0.09,-0.25 0.08,-0.27 0.07,-0.28 0.06,-0.29 0.05,-0.3 0.04,-0.31 0.02,-0.32 0.02,-0.34 0.01,-0.34 c 0,-4.33 -2.52,-5.61 -4.54,-5.61 -1.39,0 -4.46,0.38 -5.92,2.44 1.63,0.06 2.02,1.22 2.02,1.95 0,1.11 -0.85,1.91 -1.92,1.91 -0.97,0 -1.96,-0.6 -1.96,-2.02 0,-3.28 3.63,-5.4 7.85,-5.4 4.84,0 8.18,3.25 8.18,6.73 0,2.72 -2.21,5.44 -6.06,6.23 3.66,1.33 4.99,3.94 4.99,6.07 0,2.75 -3.18,4.81 -7.03,4.81 -3.88,0 -6.83,-1.89 -6.83,-4.67 0,-1.19 0.76,-1.85 1.81,-1.85 1.08,0 1.77,0.8 1.77,1.77 0,1.02 -0.69,1.75 -1.77,1.81 1.22,1.55 3.61,1.92 4.91,1.92 1.56,0 3.76,-0.76 3.76,-3.79 0,-1.47 -0.48,-3.07 -1.39,-4.14 -1.16,-1.33 -2.12,-1.41 -3.87,-1.5 -0.88,-0.08 -0.94,-0.08 -1.11,-0.11 -0.08,0 -0.36,-0.07 -0.36,-0.46 0,-0.48 0.31,-0.48 0.9,-0.48 z" /><path
           style="fill:#000000;stroke-width:0"
           inkscape:connector-curvature="0"
           id="path3186"
           d="m 662.9,415.02 0,0.05 -0.01,0.05 0,0.06 -0.01,0.05 -0.01,0.06 -0.02,0.06 -0.01,0.05 -0.02,0.06 -0.03,0.05 -0.02,0.06 -0.03,0.06 -0.03,0.05 -0.03,0.05 -0.04,0.06 -0.03,0.05 -0.05,0.05 -0.04,0.05 -0.05,0.04 -0.05,0.05 -0.05,0.04 -0.06,0.04 -0.06,0.04 -0.06,0.04 -0.06,0.03 -0.07,0.03 -0.07,0.02 -0.08,0.02 -0.07,0.02 -0.09,0.02 -0.08,0.01 -0.09,0.01 -0.09,0 c -0.94,0 -1.95,-0.91 -1.95,-1.92 0,-0.6 0.45,-1.33 1.41,-1.33 1,0 1.95,0.98 1.95,1.92 z" /><path
           style="fill:#000000;stroke-width:0"
           inkscape:connector-curvature="0"
           id="path3188"
           d="m 655.79,397.32 -0.05,-0.17 -0.06,-0.17 -0.03,-0.09 -0.02,-0.08 -0.03,-0.09 -0.02,-0.09 -0.02,-0.08 -0.02,-0.1 -0.02,-0.09 -0.01,-0.1 -0.02,-0.1 0,-0.05 -0.01,-0.05 0,-0.05 0,-0.05 0,-0.06 0,-0.05 c 0,-1.64 1.39,-2.96 3.29,-2.96 3.49,0 5.03,4.8 5.03,5.33 0,0.46 -0.45,0.46 -0.56,0.46 -0.48,0 -0.53,-0.21 -0.67,-0.6 -0.8,-2.78 -2.33,-4.22 -3.69,-4.22 -0.7,0 -0.87,0.46 -0.87,1.22 0,0.8 0.25,1.47 0.56,2.24 0.34,0.93 0.73,1.87 1.11,2.78 0.31,0.84 1.58,4.01 1.72,4.44 0.09,0.34 0.2,0.76 0.2,1.1 0,1.65 -1.39,2.96 -3.31,2.96 -3.45,0 -5.05,-4.74 -5.05,-5.33 0,-0.45 0.49,-0.45 0.6,-0.45 0.48,0 0.51,0.17 0.62,0.56 0.91,3 2.44,4.25 3.72,4.25 0.56,0 0.87,-0.28 0.87,-1.22 0,-0.8 -0.2,-1.33 -1.07,-3.48 z" /><path
           style="fill:#000000;stroke-width:0"
           inkscape:connector-curvature="0"
           id="path3190"
           d="m 731.82,424.64 h 1.5 c 0.75,0 1.98,0 1.98,1.48 0,1.55 -1.18,1.55 -1.98,1.55 h -5.83 c -0.75,0 -2,0 -2,-1.49 0,-1.54 1.21,-1.54 2,-1.54 h 1.39 l -3.59,-10.61 c -0.64,-1.85 -0.94,-2.75 -1.3,-4.3 h -0.04 c -0.25,0.95 -0.69,2 -1.05,2.95 l -4.63,11.96 h 1.25 c 0.74,0 1.99,0 1.99,1.48 0,1.55 -1.19,1.55 -1.99,1.55 h -5.84 c -0.8,0 -1.98,0 -1.98,-1.55 0,-1.48 1.25,-1.48 1.98,-1.48 h 1.55 l 7.07,-17.8 c 0.21,-0.48 0.21,-0.59 0.21,-0.64 0,-0.09 -1.25,-4.19 -1.89,-5.44 -1.46,-2.73 -3.25,-2.83 -3.99,-2.87 0,0.04 0.25,0.43 0.25,1.09 0,1.23 -0.9,2.14 -2.15,2.14 -1.35,0 -2.19,-0.91 -2.19,-2.2 0,-2.08 1.7,-4.08 4.14,-4.08 4.98,0 7.22,6.58 7.42,7.12 z" /><path
           style="fill:#000000;stroke-width:0"
           inkscape:connector-curvature="0"
           id="path3192"
           d="m 748.23,446.36 0,0.04 0,0.04 0,0.04 0,0.04 0,0.04 0,0.04 0,0.04 0,0.03 -0.01,0.04 0,0.03 0,0.03 0,0.03 0,0.03 -0.01,0.03 0,0.03 -0.01,0.02 0,0.03 0,0.02 -0.01,0.02 0,0.03 -0.02,0.04 -0.01,0.04 -0.02,0.03 -0.02,0.03 -0.02,0.03 -0.02,0.03 -0.03,0.02 -0.03,0.02 -0.04,0.01 -0.03,0.02 -0.04,0.01 -0.05,0.01 -0.02,0.01 -0.03,0 -0.02,0.01 -0.03,0 -0.02,0 -0.03,0.01 -0.03,0 -0.03,0 -0.04,0 -0.03,0 -0.03,0.01 -0.04,0 -0.04,0 -0.03,0 -0.04,0 -0.04,0 -0.04,0 -0.05,0 -0.04,0 -0.05,0 c -2.23,-2.2 -5.39,-2.23 -6.83,-2.23 v -1.25 c 0.85,0 3.15,0 5.05,0.96 v -17.76 c 0,-1.16 0,-1.61 -3.48,-1.61 h -1.32 v -1.25 c 0.63,0.03 4.91,0.14 6.21,0.14 1.08,0 5.47,-0.11 6.23,-0.14 v 1.25 h -1.32 c -3.49,0 -3.49,0.45 -3.49,1.61 z" /><path
           style="fill:#000000;stroke-width:0"
           inkscape:connector-curvature="0"
           id="path3194"
           d="m 774.79,429.92 v 1.25 h -3.87 v 15.54 c 0,0.72 0,0.97 -0.77,0.97 -0.42,0 -0.56,0 -0.9,-0.48 l -11.53,-16.03 v -1.25 h 10.25 l 0.23,1.25 H 759 l 9.2,12.75 v -12.75 l -0.23,-1.25 v -2.86 c 0,-1.19 0,-1.61 -2.83,-1.61 h -0.94 v -1.25 c 1.73,0.06 3.97,0.14 5.22,0.14 1.3,0 3.51,-0.08 5.26,-0.14 v 1.25 h -0.93 c -2.83,0 -2.83,0.42 -2.83,1.61 v 2.86 z" /><path
           style="fill:#000000;stroke-width:0"
           inkscape:connector-curvature="0"
           id="path3196"
           d="m 747.85,415.02 0,0.05 0,0.05 -0.01,0.06 -0.01,0.05 -0.01,0.06 -0.01,0.06 -0.02,0.05 -0.02,0.06 -0.02,0.05 -0.02,0.06 -0.03,0.06 -0.03,0.05 -0.03,0.05 -0.04,0.06 -0.04,0.05 -0.04,0.05 -0.04,0.05 -0.05,0.04 -0.05,0.05 -0.05,0.04 -0.06,0.04 -0.06,0.04 -0.06,0.04 -0.07,0.03 -0.06,0.03 -0.08,0.02 -0.07,0.02 -0.08,0.02 -0.08,0.02 -0.08,0.01 -0.09,0.01 -0.09,0 c -0.94,0 -1.95,-0.91 -1.95,-1.92 0,-0.6 0.45,-1.33 1.4,-1.33 1,0 1.95,0.98 1.95,1.92 z" /><path
           style="fill:#000000;stroke-width:0"
           inkscape:connector-curvature="0"
           id="path3198"
           d="m 740.75,397.32 -0.06,-0.17 -0.05,-0.17 -0.03,-0.09 -0.02,-0.08 -0.03,-0.09 -0.02,-0.09 -0.02,-0.08 -0.02,-0.1 -0.02,-0.09 -0.02,-0.1 -0.01,-0.1 0,-0.05 -0.01,-0.05 0,-0.05 0,-0.05 -0.01,-0.06 0,-0.05 c 0,-1.64 1.39,-2.96 3.3,-2.96 3.49,0 5.03,4.8 5.03,5.33 0,0.46 -0.45,0.46 -0.56,0.46 -0.48,0 -0.53,-0.21 -0.67,-0.6 -0.8,-2.78 -2.33,-4.22 -3.69,-4.22 -0.7,0 -0.87,0.46 -0.87,1.22 0,0.8 0.25,1.47 0.56,2.24 0.34,0.93 0.73,1.87 1.11,2.78 0.31,0.84 1.58,4.01 1.71,4.44 0.1,0.34 0.21,0.76 0.21,1.1 0,1.65 -1.39,2.96 -3.31,2.96 -3.46,0 -5.05,-4.74 -5.05,-5.33 0,-0.45 0.48,-0.45 0.59,-0.45 0.49,0 0.52,0.17 0.63,0.56 0.9,3 2.43,4.25 3.72,4.25 0.56,0 0.87,-0.28 0.87,-1.22 0,-0.8 -0.2,-1.33 -1.08,-3.48 z" /></g>    </g>
    <g
       transform="matrix(0.13972957,0,0,0.13972957,-1.1448505,53.666573)"
       id="g3310">
      <g
         style="font-style:normal;font-variant:normal;font-weight:normal;font-stretch:normal;letter-spacing:normal;word-spacing:normal;text-anchor:start;fill:none;stroke:#000000;stroke-linecap:butt;stroke-linejoin:miter;stroke-miterlimit:10.43299961;stroke-opacity:1;stroke-dasharray:none;stroke-dashoffset:0"
         id="g3312"
         transform="matrix(1.0629921,0,0,-1.0629921,-186.02362,789.27165)"
         xml:space="preserve"
         stroke-miterlimit="10.433"
         font-style="normal"
         font-variant="normal"
         font-weight="normal"
         font-stretch="normal"
         font-size-adjust="none"
         letter-spacing="normal"
         word-spacing="normal"><path
           style="fill:#000000;stroke-width:0"
           inkscape:connector-curvature="0"
           d="m 476.94,424.64 h 1.5 c 0.75,0 1.99,0 1.99,1.48 0,1.55 -1.19,1.55 -1.99,1.55 h -5.83 c -0.75,0 -2,0 -2,-1.49 0,-1.54 1.21,-1.54 2,-1.54 H 474 l -3.59,-10.61 c -0.64,-1.85 -0.94,-2.75 -1.3,-4.3 h -0.04 c -0.25,0.95 -0.69,2 -1.05,2.95 l -4.63,11.96 h 1.25 c 0.74,0 1.99,0 1.99,1.48 0,1.55 -1.19,1.55 -1.99,1.55 h -5.84 c -0.8,0 -1.98,0 -1.98,-1.55 0,-1.48 1.25,-1.48 1.98,-1.48 h 1.55 l 7.08,-17.8 c 0.2,-0.48 0.2,-0.59 0.2,-0.64 0,-0.09 -1.25,-4.19 -1.89,-5.44 -1.45,-2.73 -3.25,-2.83 -3.99,-2.87 0,0.04 0.25,0.43 0.25,1.09 0,1.23 -0.9,2.14 -2.15,2.14 -1.35,0 -2.19,-0.91 -2.19,-2.2 0,-2.08 1.7,-4.08 4.14,-4.08 4.99,0 7.22,6.58 7.42,7.12 z"
           id="path3314" /><path
           style="fill:#000000;stroke-width:0"
           inkscape:connector-curvature="0"
           d="m 499.27,430.54 h -1.18 c -0.1,-0.76 -0.46,-2.83 -0.91,-3.17 -0.27,-0.2 -2.95,-0.2 -3.44,-0.2 h -6.42 c 3.66,3.23 4.88,4.2 6.97,5.84 2.58,2.06 4.98,4.22 4.98,7.53 0,4.22 -3.68,6.8 -8.15,6.8 -4.32,0 -7.25,-3.03 -7.25,-6.23 0,-1.79 1.5,-1.96 1.86,-1.96 0.82,0 1.84,0.6 1.84,1.85 0,0.62 -0.25,1.84 -2.06,1.84 1.08,2.47 3.45,3.23 5.09,3.23 3.49,0 5.3,-2.7 5.3,-5.53 0,-3.03 -2.16,-5.43 -3.28,-6.68 l -8.39,-8.3 c -0.36,-0.31 -0.36,-0.39 -0.36,-1.36 h 14.36 z"
           id="path3316" /><path
           style="fill:#000000;stroke-width:0"
           inkscape:connector-curvature="0"
           d="m 513.15,446.36 0,0.04 0,0.04 0,0.04 0,0.04 0,0.04 0,0.04 -0.01,0.04 0,0.03 0,0.04 0,0.03 0,0.03 0,0.03 -0.01,0.03 0,0.03 0,0.03 -0.01,0.02 0,0.03 -0.01,0.02 0,0.02 -0.01,0.03 -0.01,0.04 -0.01,0.04 -0.02,0.03 -0.02,0.03 -0.02,0.03 -0.03,0.03 -0.02,0.02 -0.03,0.02 -0.04,0.01 -0.03,0.02 -0.05,0.01 -0.04,0.01 -0.02,0.01 -0.03,0 -0.02,0.01 -0.03,0 -0.03,0 -0.03,0.01 -0.03,0 -0.03,0 -0.03,0 -0.03,0 -0.04,0.01 -0.03,0 -0.04,0 -0.03,0 -0.04,0 -0.04,0 -0.05,0 -0.04,0 -0.04,0 -0.05,0 c -2.23,-2.2 -5.39,-2.23 -6.83,-2.23 v -1.25 c 0.85,0 3.14,0 5.05,0.96 v -17.76 c 0,-1.16 0,-1.61 -3.48,-1.61 h -1.32 v -1.25 c 0.63,0.03 4.91,0.14 6.21,0.14 1.07,0 5.47,-0.11 6.23,-0.14 v 1.25 h -1.33 c -3.48,0 -3.48,0.45 -3.48,1.61 z"
           id="path3318" /><path
           style="fill:#000000;stroke-width:0"
           inkscape:connector-curvature="0"
           d="m 492.98,415.02 0,0.05 -0.01,0.05 0,0.06 -0.01,0.05 -0.01,0.06 -0.02,0.06 -0.02,0.05 -0.01,0.06 -0.03,0.05 -0.02,0.06 -0.03,0.06 -0.03,0.05 -0.03,0.05 -0.04,0.06 -0.04,0.05 -0.04,0.05 -0.04,0.05 -0.05,0.04 -0.05,0.05 -0.05,0.04 -0.06,0.04 -0.06,0.04 -0.06,0.04 -0.06,0.03 -0.07,0.03 -0.07,0.02 -0.08,0.02 -0.08,0.02 -0.08,0.02 -0.08,0.01 -0.09,0.01 -0.09,0 c -0.94,0 -1.95,-0.91 -1.95,-1.92 0,-0.6 0.45,-1.33 1.4,-1.33 1,0 1.96,0.98 1.96,1.92 z"
           id="path3320" /><path
           style="fill:#000000;stroke-width:0"
           inkscape:connector-curvature="0"
           d="m 485.87,397.32 -0.06,-0.17 -0.05,-0.17 -0.03,-0.09 -0.02,-0.08 -0.03,-0.09 -0.02,-0.09 -0.02,-0.08 -0.02,-0.1 -0.02,-0.09 -0.02,-0.1 -0.01,-0.1 0,-0.05 -0.01,-0.05 0,-0.05 0,-0.05 0,-0.06 -0.01,-0.05 c 0,-1.64 1.4,-2.96 3.3,-2.96 3.49,0 5.03,4.8 5.03,5.33 0,0.46 -0.45,0.46 -0.56,0.46 -0.48,0 -0.53,-0.21 -0.67,-0.6 -0.8,-2.78 -2.33,-4.22 -3.69,-4.22 -0.7,0 -0.87,0.46 -0.87,1.22 0,0.8 0.25,1.47 0.56,2.24 0.34,0.93 0.73,1.87 1.11,2.78 0.31,0.84 1.58,4.01 1.72,4.44 0.09,0.34 0.2,0.76 0.2,1.1 0,1.65 -1.39,2.96 -3.31,2.96 -3.46,0 -5.05,-4.74 -5.05,-5.33 0,-0.45 0.48,-0.45 0.59,-0.45 0.49,0 0.52,0.17 0.63,0.56 0.91,3 2.44,4.25 3.72,4.25 0.56,0 0.87,-0.28 0.87,-1.22 0,-0.8 -0.2,-1.33 -1.08,-3.48 z"
           id="path3322" /><path
           style="fill:#000000;stroke-width:0"
           inkscape:connector-curvature="0"
           d="m 561.9,424.64 h 1.5 c 0.75,0 1.99,0 1.99,1.48 0,1.55 -1.19,1.55 -1.99,1.55 h -5.83 c -0.75,0 -2,0 -2,-1.49 0,-1.54 1.21,-1.54 2,-1.54 h 1.4 l -3.6,-10.61 c -0.64,-1.85 -0.94,-2.75 -1.3,-4.3 h -0.04 c -0.25,0.95 -0.69,2 -1.05,2.95 l -4.63,11.96 h 1.25 c 0.74,0 1.99,0 1.99,1.48 0,1.55 -1.19,1.55 -1.99,1.55 h -5.84 c -0.79,0 -1.98,0 -1.98,-1.55 0,-1.48 1.25,-1.48 1.98,-1.48 h 1.55 l 7.08,-17.8 c 0.2,-0.48 0.2,-0.59 0.2,-0.64 0,-0.09 -1.25,-4.19 -1.89,-5.44 -1.45,-2.73 -3.25,-2.83 -3.98,-2.87 0,0.04 0.25,0.43 0.25,1.09 0,1.23 -0.91,2.14 -2.16,2.14 -1.34,0 -2.19,-0.91 -2.19,-2.2 0,-2.08 1.7,-4.08 4.14,-4.08 4.99,0 7.22,6.58 7.42,7.12 z"
           id="path3324" /><path
           style="fill:#000000;stroke-width:0"
           inkscape:connector-curvature="0"
           d="m 584.23,430.54 h -1.18 c -0.1,-0.76 -0.46,-2.83 -0.91,-3.17 -0.26,-0.2 -2.95,-0.2 -3.44,-0.2 h -6.42 c 3.66,3.23 4.88,4.2 6.97,5.84 2.58,2.06 4.98,4.22 4.98,7.53 0,4.22 -3.68,6.8 -8.15,6.8 -4.31,0 -7.25,-3.03 -7.25,-6.23 0,-1.79 1.5,-1.96 1.86,-1.96 0.83,0 1.84,0.6 1.84,1.85 0,0.62 -0.25,1.84 -2.06,1.84 1.08,2.47 3.45,3.23 5.09,3.23 3.49,0 5.3,-2.7 5.3,-5.53 0,-3.03 -2.16,-5.43 -3.28,-6.68 l -8.39,-8.3 c -0.36,-0.31 -0.36,-0.39 -0.36,-1.36 h 14.36 z"
           id="path3326" /><path
           style="fill:#000000;stroke-width:0"
           inkscape:connector-curvature="0"
           d="m 604.03,430.54 h -1.19 c -0.09,-0.76 -0.45,-2.83 -0.9,-3.17 -0.27,-0.2 -2.96,-0.2 -3.44,-0.2 h -6.42 c 3.65,3.23 4.87,4.2 6.97,5.84 2.57,2.06 4.98,4.22 4.98,7.53 0,4.22 -3.69,6.8 -8.15,6.8 -4.32,0 -7.26,-3.03 -7.26,-6.23 0,-1.79 1.5,-1.96 1.86,-1.96 0.83,0 1.85,0.6 1.85,1.85 0,0.62 -0.25,1.84 -2.06,1.84 1.07,2.47 3.45,3.23 5.09,3.23 3.48,0 5.3,-2.7 5.3,-5.53 0,-3.03 -2.16,-5.43 -3.28,-6.68 l -8.4,-8.3 c -0.36,-0.31 -0.36,-0.39 -0.36,-1.36 h 14.36 z"
           id="path3328" /><path
           style="fill:#000000;stroke-width:0"
           inkscape:connector-curvature="0"
           d="m 577.94,415.02 0,0.05 -0.01,0.05 0,0.06 -0.01,0.05 -0.01,0.06 -0.02,0.06 -0.01,0.05 -0.02,0.06 -0.03,0.05 -0.02,0.06 -0.03,0.06 -0.03,0.05 -0.03,0.05 -0.04,0.06 -0.03,0.05 -0.05,0.05 -0.04,0.05 -0.05,0.04 -0.05,0.05 -0.05,0.04 -0.06,0.04 -0.06,0.04 -0.06,0.04 -0.06,0.03 -0.07,0.03 -0.07,0.02 -0.08,0.02 -0.08,0.02 -0.08,0.02 -0.08,0.01 -0.09,0.01 -0.09,0 c -0.94,0 -1.95,-0.91 -1.95,-1.92 0,-0.6 0.45,-1.33 1.4,-1.33 1,0 1.96,0.98 1.96,1.92 z"
           id="path3330" /><path
           style="fill:#000000;stroke-width:0"
           inkscape:connector-curvature="0"
           d="m 570.83,397.32 -0.06,-0.17 -0.05,-0.17 -0.03,-0.09 -0.02,-0.08 -0.03,-0.09 -0.02,-0.09 -0.02,-0.08 -0.02,-0.1 -0.02,-0.09 -0.01,-0.1 -0.02,-0.1 0,-0.05 -0.01,-0.05 0,-0.05 0,-0.05 0,-0.06 0,-0.05 c 0,-1.64 1.39,-2.96 3.29,-2.96 3.49,0 5.03,4.8 5.03,5.33 0,0.46 -0.45,0.46 -0.56,0.46 -0.48,0 -0.53,-0.21 -0.67,-0.6 -0.8,-2.78 -2.33,-4.22 -3.69,-4.22 -0.7,0 -0.87,0.46 -0.87,1.22 0,0.8 0.25,1.47 0.56,2.24 0.34,0.93 0.73,1.87 1.11,2.78 0.31,0.84 1.58,4.01 1.72,4.44 0.09,0.34 0.2,0.76 0.2,1.1 0,1.65 -1.39,2.96 -3.31,2.96 -3.45,0 -5.05,-4.74 -5.05,-5.33 0,-0.45 0.49,-0.45 0.6,-0.45 0.48,0 0.51,0.17 0.62,0.56 0.91,3 2.44,4.25 3.72,4.25 0.56,0 0.87,-0.28 0.87,-1.22 0,-0.8 -0.2,-1.33 -1.07,-3.48 z"
           id="path3332" /><path
           style="fill:#000000;stroke-width:0"
           inkscape:connector-curvature="0"
           d="m 646.86,424.64 h 1.5 c 0.75,0 1.99,0 1.99,1.48 0,1.55 -1.19,1.55 -1.99,1.55 h -5.83 c -0.75,0 -2,0 -2,-1.49 0,-1.54 1.21,-1.54 2,-1.54 h 1.4 l -3.6,-10.61 c -0.64,-1.85 -0.93,-2.75 -1.3,-4.3 h -0.04 c -0.25,0.95 -0.69,2 -1.05,2.95 l -4.62,11.96 h 1.25 c 0.73,0 1.98,0 1.98,1.48 0,1.55 -1.19,1.55 -1.98,1.55 h -5.85 c -0.79,0 -1.98,0 -1.98,-1.55 0,-1.48 1.25,-1.48 1.98,-1.48 h 1.55 l 7.08,-17.8 c 0.2,-0.48 0.2,-0.59 0.2,-0.64 0,-0.09 -1.25,-4.19 -1.89,-5.44 -1.45,-2.73 -3.25,-2.83 -3.98,-2.87 0,0.04 0.25,0.43 0.25,1.09 0,1.23 -0.91,2.14 -2.16,2.14 -1.34,0 -2.19,-0.91 -2.19,-2.2 0,-2.08 1.7,-4.08 4.14,-4.08 4.99,0 7.22,6.58 7.43,7.12 z"
           id="path3334" /><path
           style="fill:#000000;stroke-width:0"
           inkscape:connector-curvature="0"
           d="m 669.2,430.54 h -1.19 c -0.1,-0.76 -0.46,-2.83 -0.91,-3.17 -0.26,-0.2 -2.95,-0.2 -3.44,-0.2 h -6.42 c 3.66,3.23 4.88,4.2 6.97,5.84 2.58,2.06 4.99,4.22 4.99,7.53 0,4.22 -3.69,6.8 -8.16,6.8 -4.31,0 -7.25,-3.03 -7.25,-6.23 0,-1.79 1.5,-1.96 1.86,-1.96 0.83,0 1.84,0.6 1.84,1.85 0,0.62 -0.25,1.84 -2.06,1.84 1.08,2.47 3.45,3.23 5.09,3.23 3.49,0 5.3,-2.7 5.3,-5.53 0,-3.03 -2.16,-5.43 -3.28,-6.68 l -8.39,-8.3 c -0.36,-0.31 -0.36,-0.39 -0.36,-1.36 h 14.36 z"
           id="path3336" /><path
           style="fill:#000000;stroke-width:0"
           inkscape:connector-curvature="0"
           d="m 680.91,435.84 0.26,-0.01 0.24,-0.01 0.25,-0.03 0.24,-0.04 0.23,-0.05 0.22,-0.06 0.23,-0.07 0.21,-0.08 0.21,-0.1 0.2,-0.1 0.2,-0.12 0.19,-0.12 0.18,-0.14 0.17,-0.15 0.17,-0.16 0.16,-0.17 0.15,-0.18 0.14,-0.19 0.14,-0.21 0.12,-0.21 0.12,-0.23 0.11,-0.23 0.1,-0.25 0.09,-0.25 0.08,-0.27 0.07,-0.28 0.06,-0.29 0.05,-0.3 0.04,-0.31 0.02,-0.32 0.02,-0.34 0.01,-0.34 c 0,-4.33 -2.52,-5.61 -4.54,-5.61 -1.39,0 -4.46,0.38 -5.92,2.44 1.63,0.06 2.02,1.22 2.02,1.95 0,1.11 -0.85,1.91 -1.92,1.91 -0.97,0 -1.96,-0.6 -1.96,-2.02 0,-3.28 3.63,-5.4 7.85,-5.4 4.84,0 8.18,3.25 8.18,6.73 0,2.72 -2.21,5.44 -6.06,6.23 3.66,1.33 4.99,3.94 4.99,6.07 0,2.75 -3.18,4.81 -7.03,4.81 -3.88,0 -6.83,-1.89 -6.83,-4.67 0,-1.19 0.76,-1.85 1.81,-1.85 1.08,0 1.77,0.8 1.77,1.77 0,1.02 -0.69,1.75 -1.77,1.81 1.22,1.55 3.61,1.92 4.91,1.92 1.56,0 3.76,-0.76 3.76,-3.79 0,-1.47 -0.48,-3.07 -1.39,-4.14 -1.16,-1.33 -2.12,-1.41 -3.87,-1.5 -0.88,-0.08 -0.94,-0.08 -1.11,-0.11 -0.08,0 -0.36,-0.07 -0.36,-0.46 0,-0.48 0.31,-0.48 0.9,-0.48 z"
           id="path3338" /><path
           style="fill:#000000;stroke-width:0"
           inkscape:connector-curvature="0"
           d="m 662.9,415.02 0,0.05 -0.01,0.05 0,0.06 -0.01,0.05 -0.01,0.06 -0.02,0.06 -0.01,0.05 -0.02,0.06 -0.03,0.05 -0.02,0.06 -0.03,0.06 -0.03,0.05 -0.03,0.05 -0.04,0.06 -0.03,0.05 -0.05,0.05 -0.04,0.05 -0.05,0.04 -0.05,0.05 -0.05,0.04 -0.06,0.04 -0.06,0.04 -0.06,0.04 -0.06,0.03 -0.07,0.03 -0.07,0.02 -0.08,0.02 -0.07,0.02 -0.09,0.02 -0.08,0.01 -0.09,0.01 -0.09,0 c -0.94,0 -1.95,-0.91 -1.95,-1.92 0,-0.6 0.45,-1.33 1.41,-1.33 1,0 1.95,0.98 1.95,1.92 z"
           id="path3340" /><path
           style="fill:#000000;stroke-width:0"
           inkscape:connector-curvature="0"
           d="m 655.79,397.32 -0.05,-0.17 -0.06,-0.17 -0.03,-0.09 -0.02,-0.08 -0.03,-0.09 -0.02,-0.09 -0.02,-0.08 -0.02,-0.1 -0.02,-0.09 -0.01,-0.1 -0.02,-0.1 0,-0.05 -0.01,-0.05 0,-0.05 0,-0.05 0,-0.06 0,-0.05 c 0,-1.64 1.39,-2.96 3.29,-2.96 3.49,0 5.03,4.8 5.03,5.33 0,0.46 -0.45,0.46 -0.56,0.46 -0.48,0 -0.53,-0.21 -0.67,-0.6 -0.8,-2.78 -2.33,-4.22 -3.69,-4.22 -0.7,0 -0.87,0.46 -0.87,1.22 0,0.8 0.25,1.47 0.56,2.24 0.34,0.93 0.73,1.87 1.11,2.78 0.31,0.84 1.58,4.01 1.72,4.44 0.09,0.34 0.2,0.76 0.2,1.1 0,1.65 -1.39,2.96 -3.31,2.96 -3.45,0 -5.05,-4.74 -5.05,-5.33 0,-0.45 0.49,-0.45 0.6,-0.45 0.48,0 0.51,0.17 0.62,0.56 0.91,3 2.44,4.25 3.72,4.25 0.56,0 0.87,-0.28 0.87,-1.22 0,-0.8 -0.2,-1.33 -1.07,-3.48 z"
           id="path3342" /><path
           style="fill:#000000;stroke-width:0"
           inkscape:connector-curvature="0"
           d="m 731.82,424.64 h 1.5 c 0.75,0 1.98,0 1.98,1.48 0,1.55 -1.18,1.55 -1.98,1.55 h -5.83 c -0.75,0 -2,0 -2,-1.49 0,-1.54 1.21,-1.54 2,-1.54 h 1.39 l -3.59,-10.61 c -0.64,-1.85 -0.94,-2.75 -1.3,-4.3 h -0.04 c -0.25,0.95 -0.69,2 -1.05,2.95 l -4.63,11.96 h 1.25 c 0.74,0 1.99,0 1.99,1.48 0,1.55 -1.19,1.55 -1.99,1.55 h -5.84 c -0.8,0 -1.98,0 -1.98,-1.55 0,-1.48 1.25,-1.48 1.98,-1.48 h 1.55 l 7.07,-17.8 c 0.21,-0.48 0.21,-0.59 0.21,-0.64 0,-0.09 -1.25,-4.19 -1.89,-5.44 -1.46,-2.73 -3.25,-2.83 -3.99,-2.87 0,0.04 0.25,0.43 0.25,1.09 0,1.23 -0.9,2.14 -2.15,2.14 -1.35,0 -2.19,-0.91 -2.19,-2.2 0,-2.08 1.7,-4.08 4.14,-4.08 4.98,0 7.22,6.58 7.42,7.12 z"
           id="path3344" /><path
           style="fill:#000000;stroke-width:0"
           inkscape:connector-curvature="0"
           d="m 754.15,430.54 h -1.18 c -0.1,-0.76 -0.46,-2.83 -0.91,-3.17 -0.27,-0.2 -2.96,-0.2 -3.44,-0.2 h -6.42 c 3.65,3.23 4.87,4.2 6.97,5.84 2.58,2.06 4.98,4.22 4.98,7.53 0,4.22 -3.68,6.8 -8.15,6.8 -4.32,0 -7.25,-3.03 -7.25,-6.23 0,-1.79 1.5,-1.96 1.85,-1.96 0.83,0 1.85,0.6 1.85,1.85 0,0.62 -0.25,1.84 -2.06,1.84 1.08,2.47 3.45,3.23 5.09,3.23 3.49,0 5.3,-2.7 5.3,-5.53 0,-3.03 -2.16,-5.43 -3.28,-6.68 l -8.4,-8.3 c -0.35,-0.31 -0.35,-0.39 -0.35,-1.36 h 14.35 z"
           id="path3346" /><path
           style="fill:#000000;stroke-width:0"
           inkscape:connector-curvature="0"
           d="m 774.79,429.92 v 1.25 h -3.87 v 15.54 c 0,0.72 0,0.97 -0.77,0.97 -0.42,0 -0.56,0 -0.9,-0.48 l -11.53,-16.03 v -1.25 h 10.25 l 0.23,1.25 H 759 l 9.2,12.75 v -12.75 l -0.23,-1.25 v -2.86 c 0,-1.19 0,-1.61 -2.83,-1.61 h -0.94 v -1.25 c 1.73,0.06 3.97,0.14 5.22,0.14 1.3,0 3.51,-0.08 5.26,-0.14 v 1.25 h -0.93 c -2.83,0 -2.83,0.42 -2.83,1.61 v 2.86 z"
           id="path3348" /><path
           style="fill:#000000;stroke-width:0"
           inkscape:connector-curvature="0"
           d="m 747.85,415.02 0,0.05 0,0.05 -0.01,0.06 -0.01,0.05 -0.01,0.06 -0.01,0.06 -0.02,0.05 -0.02,0.06 -0.02,0.05 -0.02,0.06 -0.03,0.06 -0.03,0.05 -0.03,0.05 -0.04,0.06 -0.04,0.05 -0.04,0.05 -0.04,0.05 -0.05,0.04 -0.05,0.05 -0.05,0.04 -0.06,0.04 -0.06,0.04 -0.06,0.04 -0.07,0.03 -0.06,0.03 -0.08,0.02 -0.07,0.02 -0.08,0.02 -0.08,0.02 -0.08,0.01 -0.09,0.01 -0.09,0 c -0.94,0 -1.95,-0.91 -1.95,-1.92 0,-0.6 0.45,-1.33 1.4,-1.33 1,0 1.95,0.98 1.95,1.92 z"
           id="path3350" /><path
           style="fill:#000000;stroke-width:0"
           inkscape:connector-curvature="0"
           d="m 740.75,397.32 -0.06,-0.17 -0.05,-0.17 -0.03,-0.09 -0.02,-0.08 -0.03,-0.09 -0.02,-0.09 -0.02,-0.08 -0.02,-0.1 -0.02,-0.09 -0.02,-0.1 -0.01,-0.1 0,-0.05 -0.01,-0.05 0,-0.05 0,-0.05 -0.01,-0.06 0,-0.05 c 0,-1.64 1.39,-2.96 3.3,-2.96 3.49,0 5.03,4.8 5.03,5.33 0,0.46 -0.45,0.46 -0.56,0.46 -0.48,0 -0.53,-0.21 -0.67,-0.6 -0.8,-2.78 -2.33,-4.22 -3.69,-4.22 -0.7,0 -0.87,0.46 -0.87,1.22 0,0.8 0.25,1.47 0.56,2.24 0.34,0.93 0.73,1.87 1.11,2.78 0.31,0.84 1.58,4.01 1.71,4.44 0.1,0.34 0.21,0.76 0.21,1.1 0,1.65 -1.39,2.96 -3.31,2.96 -3.46,0 -5.05,-4.74 -5.05,-5.33 0,-0.45 0.48,-0.45 0.59,-0.45 0.49,0 0.52,0.17 0.63,0.56 0.9,3 2.43,4.25 3.72,4.25 0.56,0 0.87,-0.28 0.87,-1.22 0,-0.8 -0.2,-1.33 -1.08,-3.48 z"
           id="path3352" /></g>    </g>
    <g
       transform="matrix(0.13972957,0,0,0.13972957,-1.1448505,62.050343)"
       id="g3508">
      <g
         style="font-style:normal;font-variant:normal;font-weight:normal;font-stretch:normal;letter-spacing:normal;word-spacing:normal;text-anchor:start;fill:none;stroke:#000000;stroke-linecap:butt;stroke-linejoin:miter;stroke-miterlimit:10.43299961;stroke-opacity:1;stroke-dasharray:none;stroke-dashoffset:0"
         word-spacing="normal"
         letter-spacing="normal"
         font-size-adjust="none"
         font-stretch="normal"
         font-weight="normal"
         font-variant="normal"
         font-style="normal"
         stroke-miterlimit="10.433"
         xml:space="preserve"
         transform="matrix(1.0629921,0,0,-1.0629921,-186.02362,789.27165)"
         id="g3510"><path
           style="fill:#000000;stroke-width:0"
           inkscape:connector-curvature="0"
           id="path3512"
           d="m 476.94,424.64 h 1.5 c 0.75,0 1.99,0 1.99,1.48 0,1.55 -1.19,1.55 -1.99,1.55 h -5.83 c -0.75,0 -2,0 -2,-1.49 0,-1.54 1.21,-1.54 2,-1.54 H 474 l -3.59,-10.61 c -0.64,-1.85 -0.94,-2.75 -1.3,-4.3 h -0.04 c -0.25,0.95 -0.69,2 -1.05,2.95 l -4.63,11.96 h 1.25 c 0.74,0 1.99,0 1.99,1.48 0,1.55 -1.19,1.55 -1.99,1.55 h -5.84 c -0.8,0 -1.98,0 -1.98,-1.55 0,-1.48 1.25,-1.48 1.98,-1.48 h 1.55 l 7.08,-17.8 c 0.2,-0.48 0.2,-0.59 0.2,-0.64 0,-0.09 -1.25,-4.19 -1.89,-5.44 -1.45,-2.73 -3.25,-2.83 -3.99,-2.87 0,0.04 0.25,0.43 0.25,1.09 0,1.23 -0.9,2.14 -2.15,2.14 -1.35,0 -2.19,-0.91 -2.19,-2.2 0,-2.08 1.7,-4.08 4.14,-4.08 4.99,0 7.22,6.58 7.42,7.12 z" /><path
           style="fill:#000000;stroke-width:0"
           inkscape:connector-curvature="0"
           id="path3514"
           d="m 491.2,435.84 0.25,-0.01 0.25,-0.01 0.24,-0.03 0.24,-0.04 0.23,-0.05 0.23,-0.06 0.22,-0.07 0.21,-0.08 0.21,-0.1 0.2,-0.1 0.2,-0.12 0.19,-0.12 0.18,-0.14 0.17,-0.15 0.17,-0.16 0.16,-0.17 0.15,-0.18 0.14,-0.19 0.14,-0.21 0.13,-0.21 0.11,-0.23 0.11,-0.23 0.1,-0.25 0.09,-0.25 0.08,-0.27 0.07,-0.28 0.06,-0.29 0.05,-0.3 0.04,-0.31 0.02,-0.32 0.02,-0.34 0.01,-0.34 c 0,-4.33 -2.52,-5.61 -4.53,-5.61 -1.39,0 -4.47,0.38 -5.93,2.44 1.63,0.06 2.02,1.22 2.02,1.95 0,1.11 -0.84,1.91 -1.92,1.91 -0.97,0 -1.96,-0.6 -1.96,-2.02 0,-3.28 3.63,-5.4 7.85,-5.4 4.84,0 8.19,3.25 8.19,6.73 0,2.72 -2.22,5.44 -6.07,6.23 3.66,1.33 4.99,3.94 4.99,6.07 0,2.75 -3.17,4.81 -7.03,4.81 -3.88,0 -6.83,-1.89 -6.83,-4.67 0,-1.19 0.76,-1.85 1.81,-1.85 1.08,0 1.77,0.8 1.77,1.77 0,1.02 -0.69,1.75 -1.77,1.81 1.22,1.55 3.61,1.92 4.91,1.92 1.56,0 3.76,-0.76 3.76,-3.79 0,-1.47 -0.48,-3.07 -1.39,-4.14 -1.15,-1.33 -2.12,-1.41 -3.87,-1.5 -0.88,-0.08 -0.94,-0.08 -1.11,-0.11 -0.08,0 -0.36,-0.07 -0.36,-0.46 0,-0.48 0.31,-0.48 0.9,-0.48 z" /><path
           style="fill:#000000;stroke-width:0"
           inkscape:connector-curvature="0"
           id="path3516"
           d="m 513.15,446.36 0,0.04 0,0.04 0,0.04 0,0.04 0,0.04 0,0.04 -0.01,0.04 0,0.03 0,0.04 0,0.03 0,0.03 0,0.03 -0.01,0.03 0,0.03 0,0.03 -0.01,0.02 0,0.03 -0.01,0.02 0,0.02 -0.01,0.03 -0.01,0.04 -0.01,0.04 -0.02,0.03 -0.02,0.03 -0.02,0.03 -0.03,0.03 -0.02,0.02 -0.03,0.02 -0.04,0.01 -0.03,0.02 -0.05,0.01 -0.04,0.01 -0.02,0.01 -0.03,0 -0.02,0.01 -0.03,0 -0.03,0 -0.03,0.01 -0.03,0 -0.03,0 -0.03,0 -0.03,0 -0.04,0.01 -0.03,0 -0.04,0 -0.03,0 -0.04,0 -0.04,0 -0.05,0 -0.04,0 -0.04,0 -0.05,0 c -2.23,-2.2 -5.39,-2.23 -6.83,-2.23 v -1.25 c 0.85,0 3.14,0 5.05,0.96 v -17.76 c 0,-1.16 0,-1.61 -3.48,-1.61 h -1.32 v -1.25 c 0.63,0.03 4.91,0.14 6.21,0.14 1.07,0 5.47,-0.11 6.23,-0.14 v 1.25 h -1.33 c -3.48,0 -3.48,0.45 -3.48,1.61 z" /><path
           style="fill:#000000;stroke-width:0"
           inkscape:connector-curvature="0"
           id="path3518"
           d="m 492.98,415.02 0,0.05 -0.01,0.05 0,0.06 -0.01,0.05 -0.01,0.06 -0.02,0.06 -0.02,0.05 -0.01,0.06 -0.03,0.05 -0.02,0.06 -0.03,0.06 -0.03,0.05 -0.03,0.05 -0.04,0.06 -0.04,0.05 -0.04,0.05 -0.04,0.05 -0.05,0.04 -0.05,0.05 -0.05,0.04 -0.06,0.04 -0.06,0.04 -0.06,0.04 -0.06,0.03 -0.07,0.03 -0.07,0.02 -0.08,0.02 -0.08,0.02 -0.08,0.02 -0.08,0.01 -0.09,0.01 -0.09,0 c -0.94,0 -1.95,-0.91 -1.95,-1.92 0,-0.6 0.45,-1.33 1.4,-1.33 1,0 1.96,0.98 1.96,1.92 z" /><path
           style="fill:#000000;stroke-width:0"
           inkscape:connector-curvature="0"
           id="path3520"
           d="m 485.87,397.32 -0.06,-0.17 -0.05,-0.17 -0.03,-0.09 -0.02,-0.08 -0.03,-0.09 -0.02,-0.09 -0.02,-0.08 -0.02,-0.1 -0.02,-0.09 -0.02,-0.1 -0.01,-0.1 0,-0.05 -0.01,-0.05 0,-0.05 0,-0.05 0,-0.06 -0.01,-0.05 c 0,-1.64 1.4,-2.96 3.3,-2.96 3.49,0 5.03,4.8 5.03,5.33 0,0.46 -0.45,0.46 -0.56,0.46 -0.48,0 -0.53,-0.21 -0.67,-0.6 -0.8,-2.78 -2.33,-4.22 -3.69,-4.22 -0.7,0 -0.87,0.46 -0.87,1.22 0,0.8 0.25,1.47 0.56,2.24 0.34,0.93 0.73,1.87 1.11,2.78 0.31,0.84 1.58,4.01 1.72,4.44 0.09,0.34 0.2,0.76 0.2,1.1 0,1.65 -1.39,2.96 -3.31,2.96 -3.46,0 -5.05,-4.74 -5.05,-5.33 0,-0.45 0.48,-0.45 0.59,-0.45 0.49,0 0.52,0.17 0.63,0.56 0.91,3 2.44,4.25 3.72,4.25 0.56,0 0.87,-0.28 0.87,-1.22 0,-0.8 -0.2,-1.33 -1.08,-3.48 z" /><path
           style="fill:#000000;stroke-width:0"
           inkscape:connector-curvature="0"
           id="path3522"
           d="m 561.9,424.64 h 1.5 c 0.75,0 1.99,0 1.99,1.48 0,1.55 -1.19,1.55 -1.99,1.55 h -5.83 c -0.75,0 -2,0 -2,-1.49 0,-1.54 1.21,-1.54 2,-1.54 h 1.4 l -3.6,-10.61 c -0.64,-1.85 -0.94,-2.75 -1.3,-4.3 h -0.04 c -0.25,0.95 -0.69,2 -1.05,2.95 l -4.63,11.96 h 1.25 c 0.74,0 1.99,0 1.99,1.48 0,1.55 -1.19,1.55 -1.99,1.55 h -5.84 c -0.79,0 -1.98,0 -1.98,-1.55 0,-1.48 1.25,-1.48 1.98,-1.48 h 1.55 l 7.08,-17.8 c 0.2,-0.48 0.2,-0.59 0.2,-0.64 0,-0.09 -1.25,-4.19 -1.89,-5.44 -1.45,-2.73 -3.25,-2.83 -3.98,-2.87 0,0.04 0.25,0.43 0.25,1.09 0,1.23 -0.91,2.14 -2.16,2.14 -1.34,0 -2.19,-0.91 -2.19,-2.2 0,-2.08 1.7,-4.08 4.14,-4.08 4.99,0 7.22,6.58 7.42,7.12 z" /><path
           style="fill:#000000;stroke-width:0"
           inkscape:connector-curvature="0"
           id="path3524"
           d="m 576.16,435.84 0.25,-0.01 0.25,-0.01 0.24,-0.03 0.24,-0.04 0.23,-0.05 0.23,-0.06 0.22,-0.07 0.21,-0.08 0.21,-0.1 0.2,-0.1 0.2,-0.12 0.19,-0.12 0.18,-0.14 0.18,-0.15 0.16,-0.16 0.16,-0.17 0.15,-0.18 0.15,-0.19 0.13,-0.21 0.13,-0.21 0.11,-0.23 0.11,-0.23 0.1,-0.25 0.09,-0.25 0.08,-0.27 0.07,-0.28 0.06,-0.29 0.05,-0.3 0.04,-0.31 0.03,-0.32 0.01,-0.34 0.01,-0.34 c 0,-4.33 -2.52,-5.61 -4.53,-5.61 -1.39,0 -4.47,0.38 -5.92,2.44 1.62,0.06 2.01,1.22 2.01,1.95 0,1.11 -0.84,1.91 -1.92,1.91 -0.97,0 -1.95,-0.6 -1.95,-2.02 0,-3.28 3.62,-5.4 7.84,-5.4 4.84,0 8.19,3.25 8.19,6.73 0,2.72 -2.22,5.44 -6.07,6.23 3.66,1.33 4.99,3.94 4.99,6.07 0,2.75 -3.17,4.81 -7.03,4.81 -3.88,0 -6.83,-1.89 -6.83,-4.67 0,-1.19 0.77,-1.85 1.81,-1.85 1.08,0 1.77,0.8 1.77,1.77 0,1.02 -0.69,1.75 -1.77,1.81 1.22,1.55 3.61,1.92 4.91,1.92 1.56,0 3.76,-0.76 3.76,-3.79 0,-1.47 -0.48,-3.07 -1.39,-4.14 -1.15,-1.33 -2.12,-1.41 -3.87,-1.5 -0.88,-0.08 -0.94,-0.08 -1.11,-0.11 -0.08,0 -0.36,-0.07 -0.36,-0.46 0,-0.48 0.31,-0.48 0.91,-0.48 z" /><path
           style="fill:#000000;stroke-width:0"
           inkscape:connector-curvature="0"
           id="path3526"
           d="m 604.03,430.54 h -1.19 c -0.09,-0.76 -0.45,-2.83 -0.9,-3.17 -0.27,-0.2 -2.96,-0.2 -3.44,-0.2 h -6.42 c 3.65,3.23 4.87,4.2 6.97,5.84 2.57,2.06 4.98,4.22 4.98,7.53 0,4.22 -3.69,6.8 -8.15,6.8 -4.32,0 -7.26,-3.03 -7.26,-6.23 0,-1.79 1.5,-1.96 1.86,-1.96 0.83,0 1.85,0.6 1.85,1.85 0,0.62 -0.25,1.84 -2.06,1.84 1.07,2.47 3.45,3.23 5.09,3.23 3.48,0 5.3,-2.7 5.3,-5.53 0,-3.03 -2.16,-5.43 -3.28,-6.68 l -8.4,-8.3 c -0.36,-0.31 -0.36,-0.39 -0.36,-1.36 h 14.36 z" /><path
           style="fill:#000000;stroke-width:0"
           inkscape:connector-curvature="0"
           id="path3528"
           d="m 577.94,415.02 0,0.05 -0.01,0.05 0,0.06 -0.01,0.05 -0.01,0.06 -0.02,0.06 -0.01,0.05 -0.02,0.06 -0.03,0.05 -0.02,0.06 -0.03,0.06 -0.03,0.05 -0.03,0.05 -0.04,0.06 -0.03,0.05 -0.05,0.05 -0.04,0.05 -0.05,0.04 -0.05,0.05 -0.05,0.04 -0.06,0.04 -0.06,0.04 -0.06,0.04 -0.06,0.03 -0.07,0.03 -0.07,0.02 -0.08,0.02 -0.08,0.02 -0.08,0.02 -0.08,0.01 -0.09,0.01 -0.09,0 c -0.94,0 -1.95,-0.91 -1.95,-1.92 0,-0.6 0.45,-1.33 1.4,-1.33 1,0 1.96,0.98 1.96,1.92 z" /><path
           style="fill:#000000;stroke-width:0"
           inkscape:connector-curvature="0"
           id="path3530"
           d="m 570.83,397.32 -0.06,-0.17 -0.05,-0.17 -0.03,-0.09 -0.02,-0.08 -0.03,-0.09 -0.02,-0.09 -0.02,-0.08 -0.02,-0.1 -0.02,-0.09 -0.01,-0.1 -0.02,-0.1 0,-0.05 -0.01,-0.05 0,-0.05 0,-0.05 0,-0.06 0,-0.05 c 0,-1.64 1.39,-2.96 3.29,-2.96 3.49,0 5.03,4.8 5.03,5.33 0,0.46 -0.45,0.46 -0.56,0.46 -0.48,0 -0.53,-0.21 -0.67,-0.6 -0.8,-2.78 -2.33,-4.22 -3.69,-4.22 -0.7,0 -0.87,0.46 -0.87,1.22 0,0.8 0.25,1.47 0.56,2.24 0.34,0.93 0.73,1.87 1.11,2.78 0.31,0.84 1.58,4.01 1.72,4.44 0.09,0.34 0.2,0.76 0.2,1.1 0,1.65 -1.39,2.96 -3.31,2.96 -3.45,0 -5.05,-4.74 -5.05,-5.33 0,-0.45 0.49,-0.45 0.6,-0.45 0.48,0 0.51,0.17 0.62,0.56 0.91,3 2.44,4.25 3.72,4.25 0.56,0 0.87,-0.28 0.87,-1.22 0,-0.8 -0.2,-1.33 -1.07,-3.48 z" /><path
           style="fill:#000000;stroke-width:0"
           inkscape:connector-curvature="0"
           id="path3532"
           d="m 646.86,424.64 h 1.5 c 0.75,0 1.99,0 1.99,1.48 0,1.55 -1.19,1.55 -1.99,1.55 h -5.83 c -0.75,0 -2,0 -2,-1.49 0,-1.54 1.21,-1.54 2,-1.54 h 1.4 l -3.6,-10.61 c -0.64,-1.85 -0.93,-2.75 -1.3,-4.3 h -0.04 c -0.25,0.95 -0.69,2 -1.05,2.95 l -4.62,11.96 h 1.25 c 0.73,0 1.98,0 1.98,1.48 0,1.55 -1.19,1.55 -1.98,1.55 h -5.85 c -0.79,0 -1.98,0 -1.98,-1.55 0,-1.48 1.25,-1.48 1.98,-1.48 h 1.55 l 7.08,-17.8 c 0.2,-0.48 0.2,-0.59 0.2,-0.64 0,-0.09 -1.25,-4.19 -1.89,-5.44 -1.45,-2.73 -3.25,-2.83 -3.98,-2.87 0,0.04 0.25,0.43 0.25,1.09 0,1.23 -0.91,2.14 -2.16,2.14 -1.34,0 -2.19,-0.91 -2.19,-2.2 0,-2.08 1.7,-4.08 4.14,-4.08 4.99,0 7.22,6.58 7.43,7.12 z" /><path
           style="fill:#000000;stroke-width:0"
           inkscape:connector-curvature="0"
           id="path3534"
           d="m 661.12,435.84 0.25,-0.01 0.25,-0.01 0.24,-0.03 0.24,-0.04 0.23,-0.05 0.23,-0.06 0.22,-0.07 0.21,-0.08 0.21,-0.1 0.21,-0.1 0.19,-0.12 0.19,-0.12 0.18,-0.14 0.18,-0.15 0.16,-0.16 0.16,-0.17 0.15,-0.18 0.15,-0.19 0.13,-0.21 0.13,-0.21 0.11,-0.23 0.11,-0.23 0.1,-0.25 0.09,-0.25 0.08,-0.27 0.07,-0.28 0.06,-0.29 0.05,-0.3 0.04,-0.31 0.03,-0.32 0.01,-0.34 0.01,-0.34 c 0,-4.33 -2.52,-5.61 -4.53,-5.61 -1.39,0 -4.47,0.38 -5.92,2.44 1.62,0.06 2.01,1.22 2.01,1.95 0,1.11 -0.84,1.91 -1.92,1.91 -0.97,0 -1.95,-0.6 -1.95,-2.02 0,-3.28 3.62,-5.4 7.84,-5.4 4.84,0 8.19,3.25 8.19,6.73 0,2.72 -2.22,5.44 -6.06,6.23 3.65,1.33 4.98,3.94 4.98,6.07 0,2.75 -3.17,4.81 -7.03,4.81 -3.88,0 -6.83,-1.89 -6.83,-4.67 0,-1.19 0.77,-1.85 1.81,-1.85 1.08,0 1.77,0.8 1.77,1.77 0,1.02 -0.69,1.75 -1.77,1.81 1.22,1.55 3.61,1.92 4.91,1.92 1.56,0 3.76,-0.76 3.76,-3.79 0,-1.47 -0.48,-3.07 -1.39,-4.14 -1.15,-1.33 -2.12,-1.41 -3.87,-1.5 -0.88,-0.08 -0.94,-0.08 -1.11,-0.11 -0.08,0 -0.36,-0.07 -0.36,-0.46 0,-0.48 0.31,-0.48 0.91,-0.48 z" /><path
           style="fill:#000000;stroke-width:0"
           inkscape:connector-curvature="0"
           id="path3536"
           d="m 680.91,435.84 0.26,-0.01 0.24,-0.01 0.25,-0.03 0.24,-0.04 0.23,-0.05 0.22,-0.06 0.23,-0.07 0.21,-0.08 0.21,-0.1 0.2,-0.1 0.2,-0.12 0.19,-0.12 0.18,-0.14 0.17,-0.15 0.17,-0.16 0.16,-0.17 0.15,-0.18 0.14,-0.19 0.14,-0.21 0.12,-0.21 0.12,-0.23 0.11,-0.23 0.1,-0.25 0.09,-0.25 0.08,-0.27 0.07,-0.28 0.06,-0.29 0.05,-0.3 0.04,-0.31 0.02,-0.32 0.02,-0.34 0.01,-0.34 c 0,-4.33 -2.52,-5.61 -4.54,-5.61 -1.39,0 -4.46,0.38 -5.92,2.44 1.63,0.06 2.02,1.22 2.02,1.95 0,1.11 -0.85,1.91 -1.92,1.91 -0.97,0 -1.96,-0.6 -1.96,-2.02 0,-3.28 3.63,-5.4 7.85,-5.4 4.84,0 8.18,3.25 8.18,6.73 0,2.72 -2.21,5.44 -6.06,6.23 3.66,1.33 4.99,3.94 4.99,6.07 0,2.75 -3.18,4.81 -7.03,4.81 -3.88,0 -6.83,-1.89 -6.83,-4.67 0,-1.19 0.76,-1.85 1.81,-1.85 1.08,0 1.77,0.8 1.77,1.77 0,1.02 -0.69,1.75 -1.77,1.81 1.22,1.55 3.61,1.92 4.91,1.92 1.56,0 3.76,-0.76 3.76,-3.79 0,-1.47 -0.48,-3.07 -1.39,-4.14 -1.16,-1.33 -2.12,-1.41 -3.87,-1.5 -0.88,-0.08 -0.94,-0.08 -1.11,-0.11 -0.08,0 -0.36,-0.07 -0.36,-0.46 0,-0.48 0.31,-0.48 0.9,-0.48 z" /><path
           style="fill:#000000;stroke-width:0"
           inkscape:connector-curvature="0"
           id="path3538"
           d="m 662.9,415.02 0,0.05 -0.01,0.05 0,0.06 -0.01,0.05 -0.01,0.06 -0.02,0.06 -0.01,0.05 -0.02,0.06 -0.03,0.05 -0.02,0.06 -0.03,0.06 -0.03,0.05 -0.03,0.05 -0.04,0.06 -0.03,0.05 -0.05,0.05 -0.04,0.05 -0.05,0.04 -0.05,0.05 -0.05,0.04 -0.06,0.04 -0.06,0.04 -0.06,0.04 -0.06,0.03 -0.07,0.03 -0.07,0.02 -0.08,0.02 -0.07,0.02 -0.09,0.02 -0.08,0.01 -0.09,0.01 -0.09,0 c -0.94,0 -1.95,-0.91 -1.95,-1.92 0,-0.6 0.45,-1.33 1.41,-1.33 1,0 1.95,0.98 1.95,1.92 z" /><path
           style="fill:#000000;stroke-width:0"
           inkscape:connector-curvature="0"
           id="path3540"
           d="m 655.79,397.32 -0.05,-0.17 -0.06,-0.17 -0.03,-0.09 -0.02,-0.08 -0.03,-0.09 -0.02,-0.09 -0.02,-0.08 -0.02,-0.1 -0.02,-0.09 -0.01,-0.1 -0.02,-0.1 0,-0.05 -0.01,-0.05 0,-0.05 0,-0.05 0,-0.06 0,-0.05 c 0,-1.64 1.39,-2.96 3.29,-2.96 3.49,0 5.03,4.8 5.03,5.33 0,0.46 -0.45,0.46 -0.56,0.46 -0.48,0 -0.53,-0.21 -0.67,-0.6 -0.8,-2.78 -2.33,-4.22 -3.69,-4.22 -0.7,0 -0.87,0.46 -0.87,1.22 0,0.8 0.25,1.47 0.56,2.24 0.34,0.93 0.73,1.87 1.11,2.78 0.31,0.84 1.58,4.01 1.72,4.44 0.09,0.34 0.2,0.76 0.2,1.1 0,1.65 -1.39,2.96 -3.31,2.96 -3.45,0 -5.05,-4.74 -5.05,-5.33 0,-0.45 0.49,-0.45 0.6,-0.45 0.48,0 0.51,0.17 0.62,0.56 0.91,3 2.44,4.25 3.72,4.25 0.56,0 0.87,-0.28 0.87,-1.22 0,-0.8 -0.2,-1.33 -1.07,-3.48 z" /><path
           style="fill:#000000;stroke-width:0"
           inkscape:connector-curvature="0"
           id="path3542"
           d="m 731.82,424.64 h 1.5 c 0.75,0 1.98,0 1.98,1.48 0,1.55 -1.18,1.55 -1.98,1.55 h -5.83 c -0.75,0 -2,0 -2,-1.49 0,-1.54 1.21,-1.54 2,-1.54 h 1.39 l -3.59,-10.61 c -0.64,-1.85 -0.94,-2.75 -1.3,-4.3 h -0.04 c -0.25,0.95 -0.69,2 -1.05,2.95 l -4.63,11.96 h 1.25 c 0.74,0 1.99,0 1.99,1.48 0,1.55 -1.19,1.55 -1.99,1.55 h -5.84 c -0.8,0 -1.98,0 -1.98,-1.55 0,-1.48 1.25,-1.48 1.98,-1.48 h 1.55 l 7.07,-17.8 c 0.21,-0.48 0.21,-0.59 0.21,-0.64 0,-0.09 -1.25,-4.19 -1.89,-5.44 -1.46,-2.73 -3.25,-2.83 -3.99,-2.87 0,0.04 0.25,0.43 0.25,1.09 0,1.23 -0.9,2.14 -2.15,2.14 -1.35,0 -2.19,-0.91 -2.19,-2.2 0,-2.08 1.7,-4.08 4.14,-4.08 4.98,0 7.22,6.58 7.42,7.12 z" /><path
           style="fill:#000000;stroke-width:0"
           inkscape:connector-curvature="0"
           id="path3544"
           d="m 746.07,435.84 0.26,-0.01 0.24,-0.01 0.25,-0.03 0.24,-0.04 0.23,-0.05 0.22,-0.06 0.23,-0.07 0.21,-0.08 0.21,-0.1 0.2,-0.1 0.2,-0.12 0.19,-0.12 0.18,-0.14 0.17,-0.15 0.17,-0.16 0.16,-0.17 0.15,-0.18 0.14,-0.19 0.14,-0.21 0.12,-0.21 0.12,-0.23 0.11,-0.23 0.1,-0.25 0.09,-0.25 0.08,-0.27 0.07,-0.28 0.06,-0.29 0.05,-0.3 0.04,-0.31 0.02,-0.32 0.02,-0.34 0.01,-0.34 c 0,-4.33 -2.52,-5.61 -4.53,-5.61 -1.4,0 -4.47,0.38 -5.93,2.44 1.63,0.06 2.02,1.22 2.02,1.95 0,1.11 -0.84,1.91 -1.92,1.91 -0.97,0 -1.96,-0.6 -1.96,-2.02 0,-3.28 3.63,-5.4 7.85,-5.4 4.84,0 8.19,3.25 8.19,6.73 0,2.72 -2.22,5.44 -6.07,6.23 3.66,1.33 4.99,3.94 4.99,6.07 0,2.75 -3.17,4.81 -7.04,4.81 -3.87,0 -6.82,-1.89 -6.82,-4.67 0,-1.19 0.76,-1.85 1.81,-1.85 1.08,0 1.76,0.8 1.76,1.77 0,1.02 -0.68,1.75 -1.76,1.81 1.22,1.55 3.61,1.92 4.91,1.92 1.56,0 3.76,-0.76 3.76,-3.79 0,-1.47 -0.48,-3.07 -1.39,-4.14 -1.15,-1.33 -2.12,-1.41 -3.87,-1.5 -0.88,-0.08 -0.94,-0.08 -1.11,-0.11 -0.08,0 -0.36,-0.07 -0.36,-0.46 0,-0.48 0.31,-0.48 0.9,-0.48 z" /><path
           style="fill:#000000;stroke-width:0"
           inkscape:connector-curvature="0"
           id="path3546"
           d="m 774.79,429.92 v 1.25 h -3.87 v 15.54 c 0,0.72 0,0.97 -0.77,0.97 -0.42,0 -0.56,0 -0.9,-0.48 l -11.53,-16.03 v -1.25 h 10.25 l 0.23,1.25 H 759 l 9.2,12.75 v -12.75 l -0.23,-1.25 v -2.86 c 0,-1.19 0,-1.61 -2.83,-1.61 h -0.94 v -1.25 c 1.73,0.06 3.97,0.14 5.22,0.14 1.3,0 3.51,-0.08 5.26,-0.14 v 1.25 h -0.93 c -2.83,0 -2.83,0.42 -2.83,1.61 v 2.86 z" /><path
           style="fill:#000000;stroke-width:0"
           inkscape:connector-curvature="0"
           id="path3548"
           d="m 747.85,415.02 0,0.05 0,0.05 -0.01,0.06 -0.01,0.05 -0.01,0.06 -0.01,0.06 -0.02,0.05 -0.02,0.06 -0.02,0.05 -0.02,0.06 -0.03,0.06 -0.03,0.05 -0.03,0.05 -0.04,0.06 -0.04,0.05 -0.04,0.05 -0.04,0.05 -0.05,0.04 -0.05,0.05 -0.05,0.04 -0.06,0.04 -0.06,0.04 -0.06,0.04 -0.07,0.03 -0.06,0.03 -0.08,0.02 -0.07,0.02 -0.08,0.02 -0.08,0.02 -0.08,0.01 -0.09,0.01 -0.09,0 c -0.94,0 -1.95,-0.91 -1.95,-1.92 0,-0.6 0.45,-1.33 1.4,-1.33 1,0 1.95,0.98 1.95,1.92 z" /><path
           style="fill:#000000;stroke-width:0"
           inkscape:connector-curvature="0"
           id="path3550"
           d="m 740.75,397.32 -0.06,-0.17 -0.05,-0.17 -0.03,-0.09 -0.02,-0.08 -0.03,-0.09 -0.02,-0.09 -0.02,-0.08 -0.02,-0.1 -0.02,-0.09 -0.02,-0.1 -0.01,-0.1 0,-0.05 -0.01,-0.05 0,-0.05 0,-0.05 -0.01,-0.06 0,-0.05 c 0,-1.64 1.39,-2.96 3.3,-2.96 3.49,0 5.03,4.8 5.03,5.33 0,0.46 -0.45,0.46 -0.56,0.46 -0.48,0 -0.53,-0.21 -0.67,-0.6 -0.8,-2.78 -2.33,-4.22 -3.69,-4.22 -0.7,0 -0.87,0.46 -0.87,1.22 0,0.8 0.25,1.47 0.56,2.24 0.34,0.93 0.73,1.87 1.11,2.78 0.31,0.84 1.58,4.01 1.71,4.44 0.1,0.34 0.21,0.76 0.21,1.1 0,1.65 -1.39,2.96 -3.31,2.96 -3.46,0 -5.05,-4.74 -5.05,-5.33 0,-0.45 0.48,-0.45 0.59,-0.45 0.49,0 0.52,0.17 0.63,0.56 0.9,3 2.43,4.25 3.72,4.25 0.56,0 0.87,-0.28 0.87,-1.22 0,-0.8 -0.2,-1.33 -1.08,-3.48 z" /></g>    </g>
    <g
       transform="matrix(0.13972957,0,0,0.13972957,-1.1448505,70.434113)"
       id="g3750">
      <g
         style="font-style:normal;font-variant:normal;font-weight:normal;font-stretch:normal;letter-spacing:normal;word-spacing:normal;text-anchor:start;fill:none;stroke:#000000;stroke-linecap:butt;stroke-linejoin:miter;stroke-miterlimit:10.43299961;stroke-opacity:1;stroke-dasharray:none;stroke-dashoffset:0"
         id="g3752"
         transform="matrix(1.0629921,0,0,-1.0629921,-186.02362,789.27165)"
         xml:space="preserve"
         stroke-miterlimit="10.433"
         font-style="normal"
         font-variant="normal"
         font-weight="normal"
         font-stretch="normal"
         font-size-adjust="none"
         letter-spacing="normal"
         word-spacing="normal"><path
           style="fill:#000000;stroke-width:0"
           inkscape:connector-curvature="0"
           d="m 476.94,424.64 h 1.5 c 0.75,0 1.99,0 1.99,1.48 0,1.55 -1.19,1.55 -1.99,1.55 h -5.83 c -0.75,0 -2,0 -2,-1.49 0,-1.54 1.21,-1.54 2,-1.54 H 474 l -3.59,-10.61 c -0.64,-1.85 -0.94,-2.75 -1.3,-4.3 h -0.04 c -0.25,0.95 -0.69,2 -1.05,2.95 l -4.63,11.96 h 1.25 c 0.74,0 1.99,0 1.99,1.48 0,1.55 -1.19,1.55 -1.99,1.55 h -5.84 c -0.8,0 -1.98,0 -1.98,-1.55 0,-1.48 1.25,-1.48 1.98,-1.48 h 1.55 l 7.08,-17.8 c 0.2,-0.48 0.2,-0.59 0.2,-0.64 0,-0.09 -1.25,-4.19 -1.89,-5.44 -1.45,-2.73 -3.25,-2.83 -3.99,-2.87 0,0.04 0.25,0.43 0.25,1.09 0,1.23 -0.9,2.14 -2.15,2.14 -1.35,0 -2.19,-0.91 -2.19,-2.2 0,-2.08 1.7,-4.08 4.14,-4.08 4.99,0 7.22,6.58 7.42,7.12 z"
           id="path3754" /><path
           style="fill:#000000;stroke-width:0"
           inkscape:connector-curvature="0"
           d="m 500.12,429.92 v 1.25 h -3.88 v 15.54 c 0,0.72 0,0.97 -0.76,0.97 -0.43,0 -0.57,0 -0.91,-0.48 l -11.53,-16.03 v -1.25 h 10.25 l 0.23,1.25 h -9.2 l 9.2,12.75 v -12.75 l -0.23,-1.25 v -2.86 c 0,-1.19 0,-1.61 -2.83,-1.61 h -0.94 v -1.25 c 1.74,0.06 3.97,0.14 5.22,0.14 1.3,0 3.52,-0.08 5.27,-0.14 v 1.25 h -0.94 c -2.83,0 -2.83,0.42 -2.83,1.61 v 2.86 z"
           id="path3756" /><path
           style="fill:#000000;stroke-width:0"
           inkscape:connector-curvature="0"
           d="m 513.15,446.36 0,0.04 0,0.04 0,0.04 0,0.04 0,0.04 0,0.04 -0.01,0.04 0,0.03 0,0.04 0,0.03 0,0.03 0,0.03 -0.01,0.03 0,0.03 0,0.03 -0.01,0.02 0,0.03 -0.01,0.02 0,0.02 -0.01,0.03 -0.01,0.04 -0.01,0.04 -0.02,0.03 -0.02,0.03 -0.02,0.03 -0.03,0.03 -0.02,0.02 -0.03,0.02 -0.04,0.01 -0.03,0.02 -0.05,0.01 -0.04,0.01 -0.02,0.01 -0.03,0 -0.02,0.01 -0.03,0 -0.03,0 -0.03,0.01 -0.03,0 -0.03,0 -0.03,0 -0.03,0 -0.04,0.01 -0.03,0 -0.04,0 -0.03,0 -0.04,0 -0.04,0 -0.05,0 -0.04,0 -0.04,0 -0.05,0 c -2.23,-2.2 -5.39,-2.23 -6.83,-2.23 v -1.25 c 0.85,0 3.14,0 5.05,0.96 v -17.76 c 0,-1.16 0,-1.61 -3.48,-1.61 h -1.32 v -1.25 c 0.63,0.03 4.91,0.14 6.21,0.14 1.07,0 5.47,-0.11 6.23,-0.14 v 1.25 h -1.33 c -3.48,0 -3.48,0.45 -3.48,1.61 z"
           id="path3758" /><path
           style="fill:#000000;stroke-width:0"
           inkscape:connector-curvature="0"
           d="m 492.98,415.02 0,0.05 -0.01,0.05 0,0.06 -0.01,0.05 -0.01,0.06 -0.02,0.06 -0.02,0.05 -0.01,0.06 -0.03,0.05 -0.02,0.06 -0.03,0.06 -0.03,0.05 -0.03,0.05 -0.04,0.06 -0.04,0.05 -0.04,0.05 -0.04,0.05 -0.05,0.04 -0.05,0.05 -0.05,0.04 -0.06,0.04 -0.06,0.04 -0.06,0.04 -0.06,0.03 -0.07,0.03 -0.07,0.02 -0.08,0.02 -0.08,0.02 -0.08,0.02 -0.08,0.01 -0.09,0.01 -0.09,0 c -0.94,0 -1.95,-0.91 -1.95,-1.92 0,-0.6 0.45,-1.33 1.4,-1.33 1,0 1.96,0.98 1.96,1.92 z"
           id="path3760" /><path
           style="fill:#000000;stroke-width:0"
           inkscape:connector-curvature="0"
           d="m 485.87,397.32 -0.06,-0.17 -0.05,-0.17 -0.03,-0.09 -0.02,-0.08 -0.03,-0.09 -0.02,-0.09 -0.02,-0.08 -0.02,-0.1 -0.02,-0.09 -0.02,-0.1 -0.01,-0.1 0,-0.05 -0.01,-0.05 0,-0.05 0,-0.05 0,-0.06 -0.01,-0.05 c 0,-1.64 1.4,-2.96 3.3,-2.96 3.49,0 5.03,4.8 5.03,5.33 0,0.46 -0.45,0.46 -0.56,0.46 -0.48,0 -0.53,-0.21 -0.67,-0.6 -0.8,-2.78 -2.33,-4.22 -3.69,-4.22 -0.7,0 -0.87,0.46 -0.87,1.22 0,0.8 0.25,1.47 0.56,2.24 0.34,0.93 0.73,1.87 1.11,2.78 0.31,0.84 1.58,4.01 1.72,4.44 0.09,0.34 0.2,0.76 0.2,1.1 0,1.65 -1.39,2.96 -3.31,2.96 -3.46,0 -5.05,-4.74 -5.05,-5.33 0,-0.45 0.48,-0.45 0.59,-0.45 0.49,0 0.52,0.17 0.63,0.56 0.91,3 2.44,4.25 3.72,4.25 0.56,0 0.87,-0.28 0.87,-1.22 0,-0.8 -0.2,-1.33 -1.08,-3.48 z"
           id="path3762" /><path
           style="fill:#000000;stroke-width:0"
           inkscape:connector-curvature="0"
           d="m 561.9,424.64 h 1.5 c 0.75,0 1.99,0 1.99,1.48 0,1.55 -1.19,1.55 -1.99,1.55 h -5.83 c -0.75,0 -2,0 -2,-1.49 0,-1.54 1.21,-1.54 2,-1.54 h 1.4 l -3.6,-10.61 c -0.64,-1.85 -0.94,-2.75 -1.3,-4.3 h -0.04 c -0.25,0.95 -0.69,2 -1.05,2.95 l -4.63,11.96 h 1.25 c 0.74,0 1.99,0 1.99,1.48 0,1.55 -1.19,1.55 -1.99,1.55 h -5.84 c -0.79,0 -1.98,0 -1.98,-1.55 0,-1.48 1.25,-1.48 1.98,-1.48 h 1.55 l 7.08,-17.8 c 0.2,-0.48 0.2,-0.59 0.2,-0.64 0,-0.09 -1.25,-4.19 -1.89,-5.44 -1.45,-2.73 -3.25,-2.83 -3.98,-2.87 0,0.04 0.25,0.43 0.25,1.09 0,1.23 -0.91,2.14 -2.16,2.14 -1.34,0 -2.19,-0.91 -2.19,-2.2 0,-2.08 1.7,-4.08 4.14,-4.08 4.99,0 7.22,6.58 7.42,7.12 z"
           id="path3764" /><path
           style="fill:#000000;stroke-width:0"
           inkscape:connector-curvature="0"
           d="m 585.08,429.92 v 1.25 h -3.88 v 15.54 c 0,0.72 0,0.97 -0.76,0.97 -0.42,0 -0.56,0 -0.91,-0.48 L 568,431.17 v -1.25 h 10.25 l 0.23,1.25 h -9.2 l 9.2,12.75 v -12.75 l -0.23,-1.25 v -2.86 c 0,-1.19 0,-1.61 -2.83,-1.61 h -0.94 v -1.25 c 1.74,0.06 3.97,0.14 5.22,0.14 1.3,0 3.52,-0.08 5.27,-0.14 v 1.25 h -0.94 c -2.83,0 -2.83,0.42 -2.83,1.61 v 2.86 z"
           id="path3766" /><path
           style="fill:#000000;stroke-width:0"
           inkscape:connector-curvature="0"
           d="m 604.03,430.54 h -1.19 c -0.09,-0.76 -0.45,-2.83 -0.9,-3.17 -0.27,-0.2 -2.96,-0.2 -3.44,-0.2 h -6.42 c 3.65,3.23 4.87,4.2 6.97,5.84 2.57,2.06 4.98,4.22 4.98,7.53 0,4.22 -3.69,6.8 -8.15,6.8 -4.32,0 -7.26,-3.03 -7.26,-6.23 0,-1.79 1.5,-1.96 1.86,-1.96 0.83,0 1.85,0.6 1.85,1.85 0,0.62 -0.25,1.84 -2.06,1.84 1.07,2.47 3.45,3.23 5.09,3.23 3.48,0 5.3,-2.7 5.3,-5.53 0,-3.03 -2.16,-5.43 -3.28,-6.68 l -8.4,-8.3 c -0.36,-0.31 -0.36,-0.39 -0.36,-1.36 h 14.36 z"
           id="path3768" /><path
           style="fill:#000000;stroke-width:0"
           inkscape:connector-curvature="0"
           d="m 577.94,415.02 0,0.05 -0.01,0.05 0,0.06 -0.01,0.05 -0.01,0.06 -0.02,0.06 -0.01,0.05 -0.02,0.06 -0.03,0.05 -0.02,0.06 -0.03,0.06 -0.03,0.05 -0.03,0.05 -0.04,0.06 -0.03,0.05 -0.05,0.05 -0.04,0.05 -0.05,0.04 -0.05,0.05 -0.05,0.04 -0.06,0.04 -0.06,0.04 -0.06,0.04 -0.06,0.03 -0.07,0.03 -0.07,0.02 -0.08,0.02 -0.08,0.02 -0.08,0.02 -0.08,0.01 -0.09,0.01 -0.09,0 c -0.94,0 -1.95,-0.91 -1.95,-1.92 0,-0.6 0.45,-1.33 1.4,-1.33 1,0 1.96,0.98 1.96,1.92 z"
           id="path3770" /><path
           style="fill:#000000;stroke-width:0"
           inkscape:connector-curvature="0"
           d="m 570.83,397.32 -0.06,-0.17 -0.05,-0.17 -0.03,-0.09 -0.02,-0.08 -0.03,-0.09 -0.02,-0.09 -0.02,-0.08 -0.02,-0.1 -0.02,-0.09 -0.01,-0.1 -0.02,-0.1 0,-0.05 -0.01,-0.05 0,-0.05 0,-0.05 0,-0.06 0,-0.05 c 0,-1.64 1.39,-2.96 3.29,-2.96 3.49,0 5.03,4.8 5.03,5.33 0,0.46 -0.45,0.46 -0.56,0.46 -0.48,0 -0.53,-0.21 -0.67,-0.6 -0.8,-2.78 -2.33,-4.22 -3.69,-4.22 -0.7,0 -0.87,0.46 -0.87,1.22 0,0.8 0.25,1.47 0.56,2.24 0.34,0.93 0.73,1.87 1.11,2.78 0.31,0.84 1.58,4.01 1.72,4.44 0.09,0.34 0.2,0.76 0.2,1.1 0,1.65 -1.39,2.96 -3.31,2.96 -3.45,0 -5.05,-4.74 -5.05,-5.33 0,-0.45 0.49,-0.45 0.6,-0.45 0.48,0 0.51,0.17 0.62,0.56 0.91,3 2.44,4.25 3.72,4.25 0.56,0 0.87,-0.28 0.87,-1.22 0,-0.8 -0.2,-1.33 -1.07,-3.48 z"
           id="path3772" /><path
           style="fill:#000000;stroke-width:0"
           inkscape:connector-curvature="0"
           d="m 646.86,424.64 h 1.5 c 0.75,0 1.99,0 1.99,1.48 0,1.55 -1.19,1.55 -1.99,1.55 h -5.83 c -0.75,0 -2,0 -2,-1.49 0,-1.54 1.21,-1.54 2,-1.54 h 1.4 l -3.6,-10.61 c -0.64,-1.85 -0.93,-2.75 -1.3,-4.3 h -0.04 c -0.25,0.95 -0.69,2 -1.05,2.95 l -4.62,11.96 h 1.25 c 0.73,0 1.98,0 1.98,1.48 0,1.55 -1.19,1.55 -1.98,1.55 h -5.85 c -0.79,0 -1.98,0 -1.98,-1.55 0,-1.48 1.25,-1.48 1.98,-1.48 h 1.55 l 7.08,-17.8 c 0.2,-0.48 0.2,-0.59 0.2,-0.64 0,-0.09 -1.25,-4.19 -1.89,-5.44 -1.45,-2.73 -3.25,-2.83 -3.98,-2.87 0,0.04 0.25,0.43 0.25,1.09 0,1.23 -0.91,2.14 -2.16,2.14 -1.34,0 -2.19,-0.91 -2.19,-2.2 0,-2.08 1.7,-4.08 4.14,-4.08 4.99,0 7.22,6.58 7.43,7.12 z"
           id="path3774" /><path
           style="fill:#000000;stroke-width:0"
           inkscape:connector-curvature="0"
           d="m 670.04,429.92 v 1.25 h -3.88 v 15.54 c 0,0.72 0,0.97 -0.76,0.97 -0.42,0 -0.56,0 -0.91,-0.48 l -11.53,-16.03 v -1.25 h 10.25 l 0.24,1.25 h -9.21 l 9.21,12.75 v -12.75 l -0.24,-1.25 v -2.86 c 0,-1.19 0,-1.61 -2.83,-1.61 h -0.93 v -1.25 c 1.73,0.06 3.96,0.14 5.21,0.14 1.3,0 3.52,-0.08 5.27,-0.14 v 1.25 h -0.94 c -2.83,0 -2.83,0.42 -2.83,1.61 v 2.86 z"
           id="path3776" /><path
           style="fill:#000000;stroke-width:0"
           inkscape:connector-curvature="0"
           d="m 680.91,435.84 0.26,-0.01 0.24,-0.01 0.25,-0.03 0.24,-0.04 0.23,-0.05 0.22,-0.06 0.23,-0.07 0.21,-0.08 0.21,-0.1 0.2,-0.1 0.2,-0.12 0.19,-0.12 0.18,-0.14 0.17,-0.15 0.17,-0.16 0.16,-0.17 0.15,-0.18 0.14,-0.19 0.14,-0.21 0.12,-0.21 0.12,-0.23 0.11,-0.23 0.1,-0.25 0.09,-0.25 0.08,-0.27 0.07,-0.28 0.06,-0.29 0.05,-0.3 0.04,-0.31 0.02,-0.32 0.02,-0.34 0.01,-0.34 c 0,-4.33 -2.52,-5.61 -4.54,-5.61 -1.39,0 -4.46,0.38 -5.92,2.44 1.63,0.06 2.02,1.22 2.02,1.95 0,1.11 -0.85,1.91 -1.92,1.91 -0.97,0 -1.96,-0.6 -1.96,-2.02 0,-3.28 3.63,-5.4 7.85,-5.4 4.84,0 8.18,3.25 8.18,6.73 0,2.72 -2.21,5.44 -6.06,6.23 3.66,1.33 4.99,3.94 4.99,6.07 0,2.75 -3.18,4.81 -7.03,4.81 -3.88,0 -6.83,-1.89 -6.83,-4.67 0,-1.19 0.76,-1.85 1.81,-1.85 1.08,0 1.77,0.8 1.77,1.77 0,1.02 -0.69,1.75 -1.77,1.81 1.22,1.55 3.61,1.92 4.91,1.92 1.56,0 3.76,-0.76 3.76,-3.79 0,-1.47 -0.48,-3.07 -1.39,-4.14 -1.16,-1.33 -2.12,-1.41 -3.87,-1.5 -0.88,-0.08 -0.94,-0.08 -1.11,-0.11 -0.08,0 -0.36,-0.07 -0.36,-0.46 0,-0.48 0.31,-0.48 0.9,-0.48 z"
           id="path3778" /><path
           style="fill:#000000;stroke-width:0"
           inkscape:connector-curvature="0"
           d="m 662.9,415.02 0,0.05 -0.01,0.05 0,0.06 -0.01,0.05 -0.01,0.06 -0.02,0.06 -0.01,0.05 -0.02,0.06 -0.03,0.05 -0.02,0.06 -0.03,0.06 -0.03,0.05 -0.03,0.05 -0.04,0.06 -0.03,0.05 -0.05,0.05 -0.04,0.05 -0.05,0.04 -0.05,0.05 -0.05,0.04 -0.06,0.04 -0.06,0.04 -0.06,0.04 -0.06,0.03 -0.07,0.03 -0.07,0.02 -0.08,0.02 -0.07,0.02 -0.09,0.02 -0.08,0.01 -0.09,0.01 -0.09,0 c -0.94,0 -1.95,-0.91 -1.95,-1.92 0,-0.6 0.45,-1.33 1.41,-1.33 1,0 1.95,0.98 1.95,1.92 z"
           id="path3780" /><path
           style="fill:#000000;stroke-width:0"
           inkscape:connector-curvature="0"
           d="m 655.79,397.32 -0.05,-0.17 -0.06,-0.17 -0.03,-0.09 -0.02,-0.08 -0.03,-0.09 -0.02,-0.09 -0.02,-0.08 -0.02,-0.1 -0.02,-0.09 -0.01,-0.1 -0.02,-0.1 0,-0.05 -0.01,-0.05 0,-0.05 0,-0.05 0,-0.06 0,-0.05 c 0,-1.64 1.39,-2.96 3.29,-2.96 3.49,0 5.03,4.8 5.03,5.33 0,0.46 -0.45,0.46 -0.56,0.46 -0.48,0 -0.53,-0.21 -0.67,-0.6 -0.8,-2.78 -2.33,-4.22 -3.69,-4.22 -0.7,0 -0.87,0.46 -0.87,1.22 0,0.8 0.25,1.47 0.56,2.24 0.34,0.93 0.73,1.87 1.11,2.78 0.31,0.84 1.58,4.01 1.72,4.44 0.09,0.34 0.2,0.76 0.2,1.1 0,1.65 -1.39,2.96 -3.31,2.96 -3.45,0 -5.05,-4.74 -5.05,-5.33 0,-0.45 0.49,-0.45 0.6,-0.45 0.48,0 0.51,0.17 0.62,0.56 0.91,3 2.44,4.25 3.72,4.25 0.56,0 0.87,-0.28 0.87,-1.22 0,-0.8 -0.2,-1.33 -1.07,-3.48 z"
           id="path3782" /><path
           style="fill:#000000;stroke-width:0"
           inkscape:connector-curvature="0"
           d="m 731.82,424.64 h 1.5 c 0.75,0 1.98,0 1.98,1.48 0,1.55 -1.18,1.55 -1.98,1.55 h -5.83 c -0.75,0 -2,0 -2,-1.49 0,-1.54 1.21,-1.54 2,-1.54 h 1.39 l -3.59,-10.61 c -0.64,-1.85 -0.94,-2.75 -1.3,-4.3 h -0.04 c -0.25,0.95 -0.69,2 -1.05,2.95 l -4.63,11.96 h 1.25 c 0.74,0 1.99,0 1.99,1.48 0,1.55 -1.19,1.55 -1.99,1.55 h -5.84 c -0.8,0 -1.98,0 -1.98,-1.55 0,-1.48 1.25,-1.48 1.98,-1.48 h 1.55 l 7.07,-17.8 c 0.21,-0.48 0.21,-0.59 0.21,-0.64 0,-0.09 -1.25,-4.19 -1.89,-5.44 -1.46,-2.73 -3.25,-2.83 -3.99,-2.87 0,0.04 0.25,0.43 0.25,1.09 0,1.23 -0.9,2.14 -2.15,2.14 -1.35,0 -2.19,-0.91 -2.19,-2.2 0,-2.08 1.7,-4.08 4.14,-4.08 4.98,0 7.22,6.58 7.42,7.12 z"
           id="path3784" /><path
           style="fill:#000000;stroke-width:0"
           inkscape:connector-curvature="0"
           d="m 755,429.92 v 1.25 h -3.88 v 15.54 c 0,0.72 0,0.97 -0.77,0.97 -0.42,0 -0.56,0 -0.9,-0.48 l -11.53,-16.03 v -1.25 h 10.25 l 0.23,1.25 h -9.2 l 9.2,12.75 v -12.75 l -0.23,-1.25 v -2.86 c 0,-1.19 0,-1.61 -2.83,-1.61 h -0.94 v -1.25 c 1.74,0.06 3.97,0.14 5.22,0.14 1.3,0 3.52,-0.08 5.27,-0.14 v 1.25 h -0.94 c -2.83,0 -2.83,0.42 -2.83,1.61 v 2.86 z"
           id="path3786" /><path
           style="fill:#000000;stroke-width:0"
           inkscape:connector-curvature="0"
           d="m 774.79,429.92 v 1.25 h -3.87 v 15.54 c 0,0.72 0,0.97 -0.77,0.97 -0.42,0 -0.56,0 -0.9,-0.48 l -11.53,-16.03 v -1.25 h 10.25 l 0.23,1.25 H 759 l 9.2,12.75 v -12.75 l -0.23,-1.25 v -2.86 c 0,-1.19 0,-1.61 -2.83,-1.61 h -0.94 v -1.25 c 1.73,0.06 3.97,0.14 5.22,0.14 1.3,0 3.51,-0.08 5.26,-0.14 v 1.25 h -0.93 c -2.83,0 -2.83,0.42 -2.83,1.61 v 2.86 z"
           id="path3788" /><path
           style="fill:#000000;stroke-width:0"
           inkscape:connector-curvature="0"
           d="m 747.85,415.02 0,0.05 0,0.05 -0.01,0.06 -0.01,0.05 -0.01,0.06 -0.01,0.06 -0.02,0.05 -0.02,0.06 -0.02,0.05 -0.02,0.06 -0.03,0.06 -0.03,0.05 -0.03,0.05 -0.04,0.06 -0.04,0.05 -0.04,0.05 -0.04,0.05 -0.05,0.04 -0.05,0.05 -0.05,0.04 -0.06,0.04 -0.06,0.04 -0.06,0.04 -0.07,0.03 -0.06,0.03 -0.08,0.02 -0.07,0.02 -0.08,0.02 -0.08,0.02 -0.08,0.01 -0.09,0.01 -0.09,0 c -0.94,0 -1.95,-0.91 -1.95,-1.92 0,-0.6 0.45,-1.33 1.4,-1.33 1,0 1.95,0.98 1.95,1.92 z"
           id="path3790" /><path
           style="fill:#000000;stroke-width:0"
           inkscape:connector-curvature="0"
           d="m 740.75,397.32 -0.06,-0.17 -0.05,-0.17 -0.03,-0.09 -0.02,-0.08 -0.03,-0.09 -0.02,-0.09 -0.02,-0.08 -0.02,-0.1 -0.02,-0.09 -0.02,-0.1 -0.01,-0.1 0,-0.05 -0.01,-0.05 0,-0.05 0,-0.05 -0.01,-0.06 0,-0.05 c 0,-1.64 1.39,-2.96 3.3,-2.96 3.49,0 5.03,4.8 5.03,5.33 0,0.46 -0.45,0.46 -0.56,0.46 -0.48,0 -0.53,-0.21 -0.67,-0.6 -0.8,-2.78 -2.33,-4.22 -3.69,-4.22 -0.7,0 -0.87,0.46 -0.87,1.22 0,0.8 0.25,1.47 0.56,2.24 0.34,0.93 0.73,1.87 1.11,2.78 0.31,0.84 1.58,4.01 1.71,4.44 0.1,0.34 0.21,0.76 0.21,1.1 0,1.65 -1.39,2.96 -3.31,2.96 -3.46,0 -5.05,-4.74 -5.05,-5.33 0,-0.45 0.48,-0.45 0.59,-0.45 0.49,0 0.52,0.17 0.63,0.56 0.9,3 2.43,4.25 3.72,4.25 0.56,0 0.87,-0.28 0.87,-1.22 0,-0.8 -0.2,-1.33 -1.08,-3.48 z"
           id="path3792" /></g>    </g>
    <g
       transform="matrix(0.30547009,0,0,0.30547009,62.377263,2.6596657)"
       id="g4036">
      <g
         style="font-style:normal;font-variant:normal;font-weight:normal;font-stretch:normal;letter-spacing:normal;word-spacing:normal;text-anchor:start;fill:none;stroke:#000000;stroke-linecap:butt;stroke-linejoin:miter;stroke-miterlimit:10.43299961;stroke-opacity:1;stroke-dasharray:none;stroke-dashoffset:0"
         word-spacing="normal"
         letter-spacing="normal"
         font-size-adjust="none"
         font-stretch="normal"
         font-weight="normal"
         font-variant="normal"
         font-style="normal"
         stroke-miterlimit="10.433"
         xml:space="preserve"
         transform="matrix(1.0629921,0,0,-1.0629921,-186.02362,789.27165)"
         id="g4038"><path
           style="fill:#000000;stroke-width:0"
           inkscape:connector-curvature="0"
           id="path4040"
           d="m 471.27,435.29 -0.02,0.09 -0.02,0.08 -0.03,0.09 -0.02,0.08 -0.02,0.07 -0.02,0.08 -0.03,0.07 -0.02,0.07 -0.05,0.13 -0.06,0.12 -0.05,0.12 -0.06,0.1 -0.06,0.1 -0.06,0.09 -0.06,0.08 -0.07,0.08 -0.07,0.06 -0.07,0.07 -0.07,0.05 -0.08,0.05 -0.08,0.04 -0.09,0.04 -0.09,0.04 -0.09,0.03 -0.09,0.02 -0.1,0.02 -0.11,0.02 -0.1,0.01 -0.11,0.01 -0.12,0.01 -0.12,0.01 -0.12,0 -0.13,0.01 -0.13,0 -0.14,0 -0.14,0 c -1.44,0 -2.24,0 -2.69,-1.89 l -6.03,-26.09 c -0.69,0 -1.85,0 -2.14,-0.11 -0.55,-0.3 -0.85,-0.8 -0.85,-1.44 0,-1.5 1.3,-1.5 2.14,-1.5 h 5.08 c 0.91,0 2.1,0 2.1,1.5 0,1.55 -0.99,1.55 -2.79,1.55 l 1.15,5.17 0.75,3.04 3.28,15.74 h 0.06 l 3.23,-15.74 h -6.57 l -0.75,-3.04 h 8.07 l 1.14,-5.17 c -1.79,0 -2.79,0 -2.79,-1.55 0,-1.5 1.2,-1.5 2.09,-1.5 h 5.09 c 0.85,0 2.15,0 2.15,1.5 0,0.64 -0.25,1.14 -0.85,1.39 -0.31,0.16 -1.4,0.16 -2.15,0.16 z" /><path
           style="fill:#000000;stroke-width:0"
           inkscape:connector-curvature="0"
           id="path4042"
           d="m 493.35,446.36 0,0.04 0,0.04 0,0.04 0,0.04 0,0.04 0,0.04 0,0.04 0,0.03 0,0.04 -0.01,0.03 0,0.03 0,0.03 0,0.03 -0.01,0.03 0,0.03 0,0.02 -0.01,0.03 0,0.02 -0.01,0.02 0,0.03 -0.02,0.04 -0.01,0.04 -0.02,0.03 -0.02,0.03 -0.02,0.03 -0.02,0.03 -0.03,0.02 -0.03,0.02 -0.03,0.01 -0.04,0.02 -0.04,0.01 -0.05,0.01 -0.04,0.01 -0.03,0.01 -0.03,0 -0.02,0 -0.03,0.01 -0.03,0 -0.03,0 -0.03,0 -0.04,0 -0.03,0.01 -0.04,0 -0.03,0 -0.04,0 -0.04,0 -0.04,0 -0.04,0 -0.05,0 -0.04,0 -0.05,0 c -2.23,-2.2 -5.39,-2.23 -6.82,-2.23 v -1.25 c 0.84,0 3.14,0 5.04,0.96 v -17.76 c 0,-1.16 0,-1.61 -3.48,-1.61 h -1.31 v -1.25 c 0.62,0.03 4.9,0.14 6.2,0.14 1.08,0 5.47,-0.11 6.23,-0.14 v 1.25 h -1.32 c -3.49,0 -3.49,0.45 -3.49,1.61 z" /><path
           style="fill:#000000;stroke-width:0"
           inkscape:connector-curvature="0"
           id="path4044"
           d="m 487.54,396.9 0.17,0.17 0.16,0.16 0.17,0.17 0.17,0.17 0.18,0.17 0.09,0.09 0.1,0.09 0.1,0.1 0.11,0.1 0.11,0.1 0.11,0.11 0.13,0.11 0.13,0.11 0.13,0.12 0.15,0.13 0.15,0.13 0.16,0.13 0.17,0.15 0.17,0.15 0.19,0.15 0.2,0.17 0.21,0.17 0.22,0.18 0.23,0.19 0.25,0.2 0.25,0.2 0.27,0.22 c 0.74,0.59 3.35,2.69 4.36,3.66 2.13,2.09 3.46,3.87 3.46,4.29 0,0.41 -0.46,0.41 -0.6,0.41 -0.31,0 -0.42,-0.06 -0.59,-0.34 -1.08,-1.6 -1.81,-2.13 -2.64,-2.13 -0.42,0 -0.96,0.03 -2,1.05 -1.17,1.18 -1.94,1.42 -2.75,1.42 -2.78,0 -4.67,-3.03 -4.67,-4.06 0,-0.33 0.36,-0.43 0.59,-0.43 0.42,0 0.5,0.1 0.62,0.49 0.54,1.22 2.49,1.3 3.05,1.3 0.8,0 1.7,-0.22 2.19,-0.33 1.92,-0.41 2.16,-0.41 3.03,-0.41 -0.91,-0.95 -1.53,-1.58 -4.84,-4.22 -2.72,-2.15 -3.66,-3.03 -4.32,-3.73 -2.09,-2.05 -3.11,-3.58 -3.11,-3.91 0,-0.4 0.46,-0.4 0.6,-0.4 0.34,0 0.42,0.06 0.59,0.34 0.94,1.33 2.02,2.12 3.21,2.12 0.42,0 0.93,-0.03 1.87,-0.9 1.09,-1.05 1.78,-1.56 2.91,-1.56 3.72,0 6.06,4.21 6.06,5.39 0,0.42 -0.39,0.45 -0.59,0.45 -0.43,0 -0.5,-0.17 -0.63,-0.55 -0.67,-1.75 -2.72,-2.58 -4.44,-2.58 -0.79,0 -1.67,0.18 -2.53,0.38 -1.61,0.34 -1.89,0.34 -2.51,0.34 -0.08,0 -0.6,0 -0.8,-0.03 z" /><path
           style="fill:#000000;stroke-width:0"
           inkscape:connector-curvature="0"
           id="path4046"
           d="m 537.03,435.29 -0.02,0.09 -0.02,0.08 -0.02,0.09 -0.03,0.08 -0.02,0.07 -0.02,0.08 -0.03,0.07 -0.02,0.07 -0.05,0.13 -0.05,0.12 -0.06,0.12 -0.05,0.1 -0.06,0.1 -0.07,0.09 -0.06,0.08 -0.07,0.08 -0.06,0.06 -0.08,0.07 -0.07,0.05 -0.08,0.05 -0.08,0.04 -0.09,0.04 -0.08,0.04 -0.1,0.03 -0.09,0.02 -0.1,0.02 -0.1,0.02 -0.11,0.01 -0.11,0.01 -0.12,0.01 -0.12,0.01 -0.12,0 -0.13,0.01 -0.13,0 -0.14,0 -0.14,0 c -1.44,0 -2.24,0 -2.69,-1.89 l -6.03,-26.09 c -0.69,0 -1.84,0 -2.14,-0.11 -0.55,-0.3 -0.85,-0.8 -0.85,-1.44 0,-1.5 1.3,-1.5 2.15,-1.5 h 5.07 c 0.91,0 2.1,0 2.1,1.5 0,1.55 -0.99,1.55 -2.78,1.55 l 1.14,5.17 0.75,3.04 3.28,15.74 h 0.06 l 3.23,-15.74 h -6.57 l -0.75,-3.04 h 8.08 l 1.14,-5.17 c -1.8,0 -2.8,0 -2.8,-1.55 0,-1.5 1.2,-1.5 2.09,-1.5 h 5.1 c 0.84,0 2.14,0 2.14,1.5 0,0.64 -0.25,1.14 -0.85,1.39 -0.31,0.16 -1.4,0.16 -2.15,0.16 z" /><path
           style="fill:#000000;stroke-width:0"
           inkscape:connector-curvature="0"
           id="path4048"
           d="m 565.03,430.54 h -1.18 c -0.1,-0.76 -0.45,-2.83 -0.91,-3.17 -0.26,-0.2 -2.95,-0.2 -3.44,-0.2 h -6.42 c 3.66,3.23 4.88,4.2 6.97,5.84 2.58,2.06 4.98,4.22 4.98,7.53 0,4.22 -3.68,6.8 -8.15,6.8 -4.31,0 -7.25,-3.03 -7.25,-6.23 0,-1.79 1.5,-1.96 1.86,-1.96 0.83,0 1.84,0.6 1.84,1.85 0,0.62 -0.25,1.84 -2.06,1.84 1.08,2.47 3.45,3.23 5.09,3.23 3.49,0 5.3,-2.7 5.3,-5.53 0,-3.03 -2.16,-5.43 -3.28,-6.68 l -8.39,-8.3 c -0.36,-0.31 -0.36,-0.39 -0.36,-1.36 h 14.36 z" /><path
           style="fill:#000000;stroke-width:0"
           inkscape:connector-curvature="0"
           id="path4050"
           d="m 553.3,396.9 0.17,0.17 0.16,0.16 0.17,0.17 0.17,0.17 0.18,0.17 0.09,0.09 0.1,0.09 0.1,0.1 0.11,0.1 0.11,0.1 0.12,0.11 0.12,0.11 0.13,0.11 0.13,0.12 0.15,0.13 0.15,0.13 0.16,0.13 0.17,0.15 0.18,0.15 0.18,0.15 0.2,0.17 0.21,0.17 0.22,0.18 0.23,0.19 0.25,0.2 0.25,0.2 0.27,0.22 c 0.74,0.59 3.35,2.69 4.37,3.66 2.12,2.09 3.45,3.87 3.45,4.29 0,0.41 -0.45,0.41 -0.6,0.41 -0.31,0 -0.42,-0.06 -0.59,-0.34 -1.08,-1.6 -1.81,-2.13 -2.64,-2.13 -0.42,0 -0.95,0.03 -2,1.05 -1.17,1.18 -1.94,1.42 -2.75,1.42 -2.78,0 -4.67,-3.03 -4.67,-4.06 0,-0.33 0.36,-0.43 0.59,-0.43 0.42,0 0.5,0.1 0.63,0.49 0.53,1.22 2.48,1.3 3.04,1.3 0.8,0 1.71,-0.22 2.19,-0.33 1.92,-0.41 2.16,-0.41 3.03,-0.41 -0.9,-0.95 -1.53,-1.58 -4.84,-4.22 -2.72,-2.15 -3.66,-3.03 -4.31,-3.73 -2.1,-2.05 -3.11,-3.58 -3.11,-3.91 0,-0.4 0.45,-0.4 0.59,-0.4 0.34,0 0.42,0.06 0.59,0.34 0.94,1.33 2.02,2.12 3.21,2.12 0.42,0 0.94,-0.03 1.87,-0.9 1.1,-1.05 1.78,-1.56 2.91,-1.56 3.72,0 6.06,4.21 6.06,5.39 0,0.42 -0.39,0.45 -0.59,0.45 -0.43,0 -0.5,-0.17 -0.63,-0.55 -0.67,-1.75 -2.72,-2.58 -4.43,-2.58 -0.8,0 -1.68,0.18 -2.54,0.38 -1.61,0.34 -1.89,0.34 -2.51,0.34 -0.08,0 -0.6,0 -0.8,-0.03 z" /><path
           style="fill:#000000;stroke-width:0"
           inkscape:connector-curvature="0"
           id="path4052"
           d="m 602.67,435.29 -0.02,0.09 -0.02,0.08 -0.02,0.09 -0.03,0.08 -0.02,0.07 -0.02,0.08 -0.03,0.07 -0.02,0.07 -0.05,0.13 -0.05,0.12 -0.06,0.12 -0.05,0.1 -0.06,0.1 -0.06,0.09 -0.07,0.08 -0.06,0.08 -0.07,0.06 -0.08,0.07 -0.07,0.05 -0.08,0.05 -0.08,0.04 -0.09,0.04 -0.08,0.04 -0.1,0.03 -0.09,0.02 -0.1,0.02 -0.1,0.02 -0.11,0.01 -0.11,0.01 -0.12,0.01 -0.12,0.01 -0.12,0 -0.13,0.01 -0.13,0 -0.14,0 -0.14,0 c -1.44,0 -2.24,0 -2.69,-1.89 l -6.03,-26.09 c -0.69,0 -1.84,0 -2.14,-0.11 -0.55,-0.3 -0.84,-0.8 -0.84,-1.44 0,-1.5 1.29,-1.5 2.14,-1.5 h 5.07 c 0.91,0 2.1,0 2.1,1.5 0,1.55 -0.99,1.55 -2.78,1.55 l 1.14,5.17 0.75,3.04 3.28,15.74 h 0.06 l 3.24,-15.74 h -6.58 l -0.75,-3.04 h 8.08 l 1.14,-5.17 c -1.8,0 -2.8,0 -2.8,-1.55 0,-1.5 1.2,-1.5 2.09,-1.5 h 5.1 c 0.84,0 2.14,0 2.14,1.5 0,0.64 -0.25,1.14 -0.85,1.39 -0.31,0.16 -1.4,0.16 -2.15,0.16 z" /><path
           style="fill:#000000;stroke-width:0"
           inkscape:connector-curvature="0"
           id="path4054"
           d="m 622.59,435.84 0.26,-0.01 0.24,-0.01 0.25,-0.03 0.24,-0.04 0.23,-0.05 0.22,-0.06 0.23,-0.07 0.21,-0.08 0.21,-0.1 0.2,-0.1 0.2,-0.12 0.19,-0.12 0.18,-0.14 0.17,-0.15 0.17,-0.16 0.16,-0.17 0.15,-0.18 0.14,-0.19 0.14,-0.21 0.12,-0.21 0.12,-0.23 0.11,-0.23 0.1,-0.25 0.09,-0.25 0.08,-0.27 0.07,-0.28 0.06,-0.29 0.05,-0.3 0.04,-0.31 0.02,-0.32 0.02,-0.34 0.01,-0.34 c 0,-4.33 -2.52,-5.61 -4.54,-5.61 -1.39,0 -4.46,0.38 -5.92,2.44 1.63,0.06 2.02,1.22 2.02,1.95 0,1.11 -0.85,1.91 -1.92,1.91 -0.97,0 -1.96,-0.6 -1.96,-2.02 0,-3.28 3.63,-5.4 7.85,-5.4 4.84,0 8.18,3.25 8.18,6.73 0,2.72 -2.21,5.44 -6.06,6.23 3.66,1.33 4.99,3.94 4.99,6.07 0,2.75 -3.18,4.81 -7.03,4.81 -3.88,0 -6.83,-1.89 -6.83,-4.67 0,-1.19 0.76,-1.85 1.81,-1.85 1.08,0 1.76,0.8 1.76,1.77 0,1.02 -0.68,1.75 -1.76,1.81 1.22,1.55 3.61,1.92 4.91,1.92 1.56,0 3.76,-0.76 3.76,-3.79 0,-1.47 -0.48,-3.07 -1.39,-4.14 -1.16,-1.33 -2.12,-1.41 -3.87,-1.5 -0.88,-0.08 -0.94,-0.08 -1.11,-0.11 -0.08,0 -0.36,-0.07 -0.36,-0.46 0,-0.48 0.31,-0.48 0.9,-0.48 z" /><path
           style="fill:#000000;stroke-width:0"
           inkscape:connector-curvature="0"
           id="path4056"
           d="m 618.94,396.9 0.17,0.17 0.16,0.16 0.17,0.17 0.17,0.17 0.17,0.17 0.1,0.09 0.1,0.09 0.1,0.1 0.1,0.1 0.12,0.1 0.11,0.11 0.13,0.11 0.12,0.11 0.14,0.12 0.14,0.13 0.16,0.13 0.16,0.13 0.16,0.15 0.18,0.15 0.19,0.15 0.2,0.17 0.21,0.17 0.22,0.18 0.23,0.19 0.24,0.2 0.26,0.2 0.27,0.22 c 0.74,0.59 3.35,2.69 4.36,3.66 2.13,2.09 3.45,3.87 3.45,4.29 0,0.41 -0.45,0.41 -0.59,0.41 -0.31,0 -0.42,-0.06 -0.59,-0.34 -1.08,-1.6 -1.82,-2.13 -2.64,-2.13 -0.43,0 -0.96,0.03 -2,1.05 -1.18,1.18 -1.94,1.42 -2.75,1.42 -2.78,0 -4.68,-3.03 -4.68,-4.06 0,-0.33 0.36,-0.43 0.6,-0.43 0.42,0 0.5,0.1 0.62,0.49 0.53,1.22 2.49,1.3 3.05,1.3 0.8,0 1.7,-0.22 2.19,-0.33 1.92,-0.41 2.15,-0.41 3.03,-0.41 -0.91,-0.95 -1.53,-1.58 -4.85,-4.22 -2.71,-2.15 -3.65,-3.03 -4.31,-3.73 -2.09,-2.05 -3.11,-3.58 -3.11,-3.91 0,-0.4 0.46,-0.4 0.6,-0.4 0.34,0 0.42,0.06 0.59,0.34 0.94,1.33 2.02,2.12 3.2,2.12 0.43,0 0.94,-0.03 1.88,-0.9 1.09,-1.05 1.78,-1.56 2.91,-1.56 3.71,0 6.06,4.21 6.06,5.39 0,0.42 -0.39,0.45 -0.6,0.45 -0.42,0 -0.5,-0.17 -0.62,-0.55 -0.67,-1.75 -2.72,-2.58 -4.44,-2.58 -0.8,0 -1.67,0.18 -2.53,0.38 -1.61,0.34 -1.89,0.34 -2.52,0.34 -0.07,0 -0.59,0 -0.79,-0.03 z" /><path
           style="fill:#000000;stroke-width:0"
           inkscape:connector-curvature="0"
           id="path4058"
           d="m 668.43,435.29 -0.02,0.09 -0.02,0.08 -0.03,0.09 -0.02,0.08 -0.02,0.07 -0.02,0.08 -0.03,0.07 -0.02,0.07 -0.05,0.13 -0.06,0.12 -0.05,0.12 -0.06,0.1 -0.05,0.1 -0.07,0.09 -0.06,0.08 -0.07,0.08 -0.07,0.06 -0.07,0.07 -0.07,0.05 -0.08,0.05 -0.08,0.04 -0.09,0.04 -0.09,0.04 -0.09,0.03 -0.09,0.02 -0.1,0.02 -0.11,0.02 -0.1,0.01 -0.11,0.01 -0.12,0.01 -0.12,0.01 -0.12,0 -0.13,0.01 -0.13,0 -0.14,0 -0.14,0 c -1.44,0 -2.24,0 -2.69,-1.89 l -6.03,-26.09 c -0.69,0 -1.85,0 -2.14,-0.11 -0.55,-0.3 -0.85,-0.8 -0.85,-1.44 0,-1.5 1.3,-1.5 2.14,-1.5 h 5.08 c 0.91,0 2.1,0 2.1,1.5 0,1.55 -0.99,1.55 -2.79,1.55 l 1.15,5.17 0.75,3.04 3.28,15.74 h 0.06 l 3.23,-15.74 h -6.57 l -0.75,-3.04 h 8.07 l 1.14,-5.17 c -1.79,0 -2.79,0 -2.79,-1.55 0,-1.5 1.2,-1.5 2.09,-1.5 h 5.09 c 0.85,0 2.15,0 2.15,1.5 0,0.64 -0.25,1.14 -0.85,1.39 -0.31,0.16 -1.4,0.16 -2.15,0.16 z" /><path
           style="fill:#000000;stroke-width:0"
           inkscape:connector-curvature="0"
           id="path4060"
           d="m 697.28,429.92 v 1.25 h -3.88 v 15.54 c 0,0.72 0,0.97 -0.76,0.97 -0.42,0 -0.57,0 -0.91,-0.48 L 680.2,431.17 v -1.25 h 10.25 l 0.23,1.25 h -9.2 l 9.2,12.75 v -12.75 l -0.23,-1.25 v -2.86 c 0,-1.19 0,-1.61 -2.83,-1.61 h -0.94 v -1.25 c 1.74,0.06 3.97,0.14 5.22,0.14 1.3,0 3.52,-0.08 5.27,-0.14 v 1.25 h -0.94 c -2.83,0 -2.83,0.42 -2.83,1.61 v 2.86 z" /><path
           style="fill:#000000;stroke-width:0"
           inkscape:connector-curvature="0"
           id="path4062"
           d="m 684.7,396.9 0.17,0.17 0.16,0.16 0.17,0.17 0.17,0.17 0.18,0.17 0.09,0.09 0.1,0.09 0.1,0.1 0.11,0.1 0.11,0.1 0.11,0.11 0.13,0.11 0.13,0.11 0.13,0.12 0.15,0.13 0.15,0.13 0.16,0.13 0.17,0.15 0.17,0.15 0.19,0.15 0.2,0.17 0.21,0.17 0.22,0.18 0.23,0.19 0.25,0.2 0.25,0.2 0.27,0.22 c 0.74,0.59 3.35,2.69 4.36,3.66 2.13,2.09 3.46,3.87 3.46,4.29 0,0.41 -0.46,0.41 -0.6,0.41 -0.31,0 -0.42,-0.06 -0.59,-0.34 -1.08,-1.6 -1.81,-2.13 -2.64,-2.13 -0.42,0 -0.95,0.03 -2,1.05 -1.17,1.18 -1.94,1.42 -2.75,1.42 -2.78,0 -4.67,-3.03 -4.67,-4.06 0,-0.33 0.35,-0.43 0.59,-0.43 0.42,0 0.5,0.1 0.63,0.49 0.53,1.22 2.48,1.3 3.04,1.3 0.8,0 1.71,-0.22 2.19,-0.33 1.92,-0.41 2.15,-0.41 3.03,-0.41 -0.91,-0.95 -1.53,-1.58 -4.84,-4.22 -2.72,-2.15 -3.66,-3.03 -4.32,-3.73 -2.09,-2.05 -3.1,-3.58 -3.1,-3.91 0,-0.4 0.45,-0.4 0.59,-0.4 0.34,0 0.42,0.06 0.59,0.34 0.94,1.33 2.02,2.12 3.2,2.12 0.43,0 0.94,-0.03 1.88,-0.9 1.09,-1.05 1.78,-1.56 2.91,-1.56 3.71,0 6.06,4.21 6.06,5.39 0,0.42 -0.39,0.45 -0.6,0.45 -0.42,0 -0.5,-0.17 -0.62,-0.55 -0.67,-1.75 -2.72,-2.58 -4.44,-2.58 -0.79,0 -1.67,0.18 -2.53,0.38 -1.61,0.34 -1.89,0.34 -2.51,0.34 -0.08,0 -0.6,0 -0.8,-0.03 z" /></g>    </g>
    <g
       id="g4644"
       transform="matrix(0.33896957,0,0,0.33896957,58.956464,-82.800933)">
      <g
         word-spacing="normal"
         letter-spacing="normal"
         font-size-adjust="none"
         font-stretch="normal"
         font-weight="normal"
         font-variant="normal"
         font-style="normal"
         stroke-miterlimit="10.433"
         xml:space="preserve"
         transform="matrix(1.0629921,0,0,-1.0629921,-186.02362,789.27165)"
         id="g4646"
         style="font-style:normal;font-variant:normal;font-weight:normal;font-stretch:normal;letter-spacing:normal;word-spacing:normal;text-anchor:start;fill:none;stroke:#000000;stroke-linecap:butt;stroke-linejoin:miter;stroke-miterlimit:10.43299961;stroke-opacity:1;stroke-dasharray:none;stroke-dashoffset:0"><path
           id="path4648"
           d="m 478.74,411.64 0,0.06 -0.01,0.06 0,0.06 -0.01,0.06 -0.01,0.06 -0.01,0.05 -0.01,0.06 -0.02,0.05 -0.01,0.04 -0.02,0.05 -0.02,0.05 -0.02,0.04 -0.02,0.04 -0.02,0.04 -0.03,0.04 -0.02,0.04 -0.03,0.04 -0.03,0.03 -0.03,0.03 -0.03,0.04 -0.03,0.03 -0.03,0.02 -0.07,0.06 -0.07,0.05 -0.07,0.04 -0.07,0.04 -0.08,0.03 -0.07,0.03 -0.08,0.03 -0.07,0.02 -0.08,0.02 -0.07,0.02 -0.07,0.01 -0.08,0.02 -0.06,0.01 -0.07,0 -0.06,0.01 -0.06,0 -0.05,0 -0.05,0.01 -0.04,0 -0.04,0 -0.02,0 -0.01,0 c -0.8,0 -1.3,-0.11 -1.64,-1.1 -0.3,-0.65 -1.25,-3 -4.94,-3 -4.23,0 -7.81,3.5 -7.81,8.03 0,2.4 1.39,8.11 8.12,8.11 1.03,0 2.99,0 2.99,-0.43 0.04,-1.75 1,-2.44 2.18,-2.44 1.21,0 2.25,0.84 2.25,2.28 0,3.64 -5.18,3.64 -7.42,3.64 -8.58,0 -11.56,-6.78 -11.56,-11.16 0,-5.98 4.67,-11.06 10.95,-11.06 6.93,0 8.63,4.88 8.63,5.74 z"
           inkscape:connector-curvature="0"
           style="fill:#000000;stroke-width:0" /><path
           id="path4650"
           d="m 504.94,416.96 -0.01,0.58 -0.04,0.58 -0.07,0.56 -0.09,0.55 -0.11,0.54 -0.14,0.53 -0.16,0.52 -0.19,0.51 -0.21,0.5 -0.22,0.48 -0.25,0.47 -0.27,0.45 -0.28,0.43 -0.31,0.43 -0.32,0.4 -0.34,0.39 -0.36,0.36 -0.37,0.35 -0.38,0.33 -0.41,0.31 -0.41,0.29 -0.43,0.27 -0.44,0.24 -0.45,0.22 -0.46,0.2 -0.48,0.17 -0.48,0.15 -0.49,0.13 -0.5,0.09 -0.51,0.07 -0.52,0.05 -0.52,0.01 c -5.58,0 -10.2,-4.94 -10.2,-11.16 0,-6.32 4.73,-11.06 10.2,-11.06 v 3.03 c -3.68,0 -6.76,3.75 -6.76,8.38 0,4.53 3.23,7.76 6.76,7.76 3.6,0 6.78,-3.23 6.78,-7.76 0,-4.63 -3.09,-8.38 -6.78,-8.38 h 0 v -3.03 c 5.49,0 10.22,4.78 10.22,11.06 z"
           inkscape:connector-curvature="0"
           style="fill:#000000;stroke-width:0" /><path
           id="path4652"
           d="m 522.63,434.59 0,0.14 0,0.14 -0.01,0.13 -0.01,0.12 -0.01,0.12 -0.01,0.11 -0.02,0.11 -0.01,0.1 -0.03,0.1 -0.02,0.09 -0.03,0.09 -0.03,0.08 -0.04,0.07 -0.04,0.08 -0.05,0.06 -0.05,0.06 -0.06,0.06 -0.06,0.05 -0.07,0.05 -0.07,0.05 -0.08,0.04 -0.08,0.03 -0.09,0.04 -0.1,0.02 -0.1,0.03 -0.11,0.02 -0.12,0.02 -0.13,0.01 -0.13,0.01 -0.14,0.01 -0.07,0 -0.08,0.01 -0.07,0 -0.08,0 h -7.86 c -0.8,0 -2.05,0 -2.05,-1.55 0,-1.48 1.3,-1.48 1.99,-1.48 h 6.48 v -24.36 h -6.42 c -0.8,0 -2.05,0 -2.05,-1.55 0,-1.5 1.3,-1.5 1.99,-1.5 h 16.4 c 0.74,0 1.99,0 1.99,1.5 0,1.55 -1.19,1.55 -1.99,1.55 h -6.48 z"
           inkscape:connector-curvature="0"
           style="fill:#000000;stroke-width:0" /><polygon
           id="polygon4654"
           points="541.86,395.73 541.86,441.57 546.69,441.57 546.69,443.56 539.86,443.56 539.86,393.75 546.69,393.75 546.69,395.73 "
           style="fill:#000000;stroke-width:0" /><path
           id="path4656"
           d="m 567.22,426.18 0.02,0.03 0.02,0.02 0.02,0.03 0.02,0.02 0.02,0.02 0.01,0.03 0.02,0.02 0.02,0.02 0.01,0.02 0.02,0.02 0.01,0.02 0.02,0.02 0.01,0.02 0.01,0.01 0.03,0.04 0.02,0.03 0.02,0.03 0.02,0.03 0.01,0.03 0.02,0.02 0.01,0.03 0.01,0.02 0.02,0.02 0,0.03 0.01,0.02 0.01,0.02 0.01,0.02 0,0.01 0.01,0.02 0,0.02 0,0.02 0.01,0.03 0,0.03 0,0.04 0,0.04 c 0,0.64 -0.39,0.64 -1.3,0.64 h -15.93 l -0.55,-8.02 h 1.25 c 0.3,5.08 1.23,6.92 6.72,6.92 h 5.68 l -13.9,-18.78 c -0.45,-0.54 -0.45,-0.64 -0.45,-0.89 0,-0.7 0.35,-0.7 1.29,-0.7 h 16.44 l 0.86,9.31 h -1.25 c -0.45,-5.87 -1.5,-8.06 -7.28,-8.06 h -5.88 z"
           inkscape:connector-curvature="0"
           style="fill:#000000;stroke-width:0" /><polygon
           id="polygon4658"
           points="570.96,441.57 575.78,441.57 575.78,395.73 570.96,395.73 570.96,393.75 577.78,393.75 577.78,443.56 570.96,443.56 "
           style="fill:#000000;stroke-width:0" /><path
           id="path4660"
           d="m 634.7,422.5 0.14,0 0.14,0 0.14,0 0.08,0.01 0.07,0 0.07,0.01 0.07,0.01 0.07,0.01 0.07,0.01 0.07,0.01 0.07,0.02 0.06,0.02 0.06,0.02 0.07,0.02 0.05,0.03 0.06,0.03 0.05,0.04 0.05,0.03 0.05,0.05 0.04,0.04 0.04,0.05 0.02,0.03 0.02,0.03 0.01,0.02 0.02,0.03 0.01,0.03 0.02,0.04 0.01,0.03 0.01,0.04 0.01,0.03 0.01,0.04 0.01,0.04 0,0.04 0.01,0.04 0,0.04 0,0.04 0,0.05 c 0,1 -0.95,1 -1.64,1 H 604.9 c -0.7,0 -1.64,0 -1.64,-1 0,-0.98 0.94,-0.98 1.69,-0.98 z"
           inkscape:connector-curvature="0"
           style="fill:#000000;stroke-width:0" /><path
           id="path4662"
           d="m 634.74,412.82 0.07,0 0.06,0 0.14,0.01 0.14,0 0.07,0 0.07,0.01 0.07,0.01 0.07,0 0.07,0.01 0.06,0.02 0.07,0.01 0.07,0.02 0.06,0.02 0.06,0.02 0.06,0.02 0.06,0.03 0.05,0.03 0.06,0.04 0.04,0.04 0.05,0.04 0.04,0.05 0.02,0.02 0.02,0.03 0.02,0.02 0.02,0.03 0.02,0.03 0.01,0.03 0.01,0.03 0.02,0.03 0.01,0.04 0.01,0.03 0.01,0.04 0.01,0.04 0.01,0.04 0,0.04 0.01,0.04 0,0.04 0,0.05 0,0.04 c 0,1 -0.95,1 -1.68,1 h -29.75 c -0.75,0 -1.69,0 -1.69,-1 0,-1 0.94,-1 1.64,-1 z"
           inkscape:connector-curvature="0"
           style="fill:#000000;stroke-width:0" /><path
           id="path4664"
           d="m 666.25,428.21 -7.58,-0.54 v -1.55 c 3.83,0 4.28,-0.34 4.28,-2.78 v -19.73 c 0,-2.24 -0.45,-6.54 -3.64,-6.54 -0.25,0 -1.39,0 -2.69,0.66 0.75,0.2 1.75,0.89 1.75,2.23 0,1.3 -0.9,2.3 -2.3,2.3 -1.39,0 -2.29,-1 -2.29,-2.3 0,-2.57 2.79,-3.98 5.64,-3.98 3.73,0 6.83,3.19 6.83,7.73 z"
           inkscape:connector-curvature="0"
           style="fill:#000000;stroke-width:0" /><path
           id="path4666"
           d="m 666.25,436.89 -0.01,0.13 -0.01,0.14 -0.01,0.13 -0.03,0.13 -0.03,0.13 -0.03,0.12 -0.05,0.12 -0.04,0.12 -0.06,0.12 -0.06,0.11 -0.06,0.11 -0.07,0.11 -0.07,0.1 -0.08,0.1 -0.09,0.1 -0.09,0.09 -0.09,0.09 -0.09,0.08 -0.1,0.08 -0.11,0.07 -0.1,0.07 -0.12,0.07 -0.11,0.06 -0.12,0.05 -0.12,0.05 -0.12,0.04 -0.12,0.03 -0.13,0.03 -0.13,0.03 -0.13,0.01 -0.13,0.01 -0.14,0.01 c -1.45,0 -2.63,-1.19 -2.63,-2.64 0,-1.44 1.18,-2.64 2.63,-2.64 1.44,0 2.65,1.2 2.65,2.64 z"
           inkscape:connector-curvature="0"
           style="fill:#000000;stroke-width:0" /></g>    </g>
  </g>
</svg>
